<?xml version="1.0" encoding="utf-8"?>
<!-- Generator: Adobe Illustrator 16.0.0, SVG Export Plug-In . SVG Version: 6.00 Build 0)  -->
<!DOCTYPE svg PUBLIC "-//W3C//DTD SVG 1.1//EN" "http://www.w3.org/Graphics/SVG/1.1/DTD/svg11.dtd">
<svg version="1.1" id="Layer_1" xmlns="http://www.w3.org/2000/svg" xmlns:xlink="http://www.w3.org/1999/xlink" x="0px" y="0px"
	 width="66.75px" height="56.635px" viewBox="0 0 66.75 56.635" enable-background="new 0 0 66.75 56.635" xml:space="preserve">
<g enable-background="new    ">
	<path fill="#001DAA" d="M23.369,54.807h-1.347v-4.396h-4.833v4.396h-1.347v-9.953h1.347v4.498h4.833v-4.498h1.347V54.807z"/>
	<path fill="#001DAA" d="M25.262,51.04c0-1.094,0.296-1.995,0.889-2.704c0.592-0.708,1.397-1.062,2.413-1.062
		c1.025,0,1.835,0.354,2.43,1.06s0.893,1.608,0.893,2.707v0.15c0,1.103-0.297,2.005-0.889,2.707s-1.399,1.053-2.42,1.053
		s-1.829-0.353-2.423-1.056c-0.595-0.705-0.892-1.605-0.892-2.704V51.04z M26.609,51.187c0,0.783,0.165,1.43,0.496,1.939
		s0.821,0.765,1.473,0.765c0.643,0,1.13-0.255,1.463-0.765s0.499-1.156,0.499-1.939v-0.149c0-0.774-0.167-1.418-0.502-1.933
		s-0.826-0.771-1.473-0.771c-0.643,0-1.129,0.257-1.459,0.771s-0.496,1.158-0.496,1.933V51.187z"/>
	<path fill="#001DAA" d="M34.736,47.41l0.096,0.971c0.242-0.351,0.549-0.623,0.92-0.816c0.371-0.194,0.803-0.291,1.295-0.291
		s0.916,0.114,1.269,0.342s0.618,0.569,0.796,1.025c0.232-0.419,0.541-0.752,0.924-0.998s0.829-0.369,1.34-0.369
		c0.752,0,1.346,0.259,1.783,0.775c0.438,0.518,0.656,1.296,0.656,2.335v4.423h-1.346V50.37c0-0.729-0.126-1.245-0.377-1.548
		c-0.25-0.304-0.624-0.455-1.121-0.455c-0.46,0-0.832,0.159-1.117,0.479s-0.452,0.723-0.502,1.21v0.055v4.696h-1.354V50.37
		c0-0.692-0.129-1.2-0.387-1.521c-0.258-0.322-0.628-0.482-1.111-0.482c-0.41,0-0.747,0.084-1.012,0.253
		c-0.264,0.169-0.467,0.405-0.607,0.711v5.476h-1.348V47.41H34.736z"/>
	<path fill="#001DAA" d="M48.84,54.95c-1.03,0-1.85-0.343-2.458-1.028c-0.608-0.687-0.913-1.576-0.913-2.67v-0.301
		c0-1.053,0.314-1.929,0.94-2.629c0.626-0.699,1.368-1.049,2.226-1.049c0.998,0,1.752,0.301,2.262,0.902
		c0.511,0.602,0.766,1.403,0.766,2.406v0.841h-4.799l-0.02,0.034c0.014,0.709,0.193,1.292,0.539,1.748
		c0.347,0.457,0.832,0.686,1.457,0.686c0.455,0,0.855-0.064,1.199-0.195c0.344-0.129,0.642-0.309,0.893-0.536l0.525,0.876
		c-0.264,0.262-0.612,0.479-1.045,0.653C49.979,54.863,49.455,54.95,48.84,54.95z M48.635,48.333c-0.451,0-0.837,0.189-1.156,0.569
		c-0.318,0.379-0.515,0.854-0.588,1.427l0.014,0.034h3.412v-0.177c0-0.527-0.142-0.968-0.424-1.322
		C49.609,48.51,49.19,48.333,48.635,48.333z"/>
</g>
<g>
	<path fill="#001DAA" d="M48.34,36.258H37.697H27.053H16.41V20.293c-1.471,0-2.661-1.19-2.661-2.66L32.374,1.668l7.981,6.842V4.328
		h5.32v8.742l5.321,4.562c0,1.469-1.188,2.658-2.66,2.658L48.34,36.258z"/>
</g>
<circle fill="#FFFFFF" cx="26.165" cy="18.502" r="2"/>
<circle fill="#FFFFFF" cx="38.832" cy="18.502" r="2"/>
<path fill="none" stroke="#FFFFFF" stroke-miterlimit="10" d="M23.776,25.074c0,0,2.023,7.373,7.872,7.373
	c5.848,0,9.222-6.902,9.222-6.902"/>
</svg>
