<?xml version="1.0" encoding="utf-8"?>
<!-- Generator: Adobe Illustrator 16.0.0, SVG Export Plug-In . SVG Version: 6.00 Build 0)  -->
<!DOCTYPE svg PUBLIC "-//W3C//DTD SVG 1.1//EN" "http://www.w3.org/Graphics/SVG/1.1/DTD/svg11.dtd">
<svg version="1.1" id="Layer_1" xmlns="http://www.w3.org/2000/svg" xmlns:xlink="http://www.w3.org/1999/xlink" x="0px" y="0px"
	 width="66.75px" height="56.635px" viewBox="72.667 0 66.75 56.635" enable-background="new 72.667 0 66.75 56.635"
	 xml:space="preserve">
<g id="Layer_1_3_">
	<g>
		<path fill="#0AFD8D" d="M112.323,17.434c0.186-3.99-3.029-7.203-7.166-7.203c-4.139,0-7.354,3.213-7.168,7.203
			c0.148,3.988,3.361,7.205,7.168,7.205C108.962,24.639,112.177,21.422,112.323,17.434z M115.944,31.582v-0.629
			c0-2.844-2.291-5.135-5.135-5.135H99.542c-2.846,0-5.139,2.291-5.139,5.135v0.629c2.736,2.771,6.541,4.508,10.754,4.508
			C109.368,36.09,113.175,34.354,115.944,31.582z M105.157,36.09c-8.35,0-15.148-6.799-15.148-15.146
			c0-8.35,6.799-15.146,15.148-15.146c8.349,0,15.146,6.797,15.146,15.146C120.304,29.291,113.507,36.09,105.157,36.09z
			 M105.157,37.565c9.199,0,16.625-7.426,16.625-16.625s-7.426-16.625-16.625-16.625c-9.2,0-16.625,7.426-16.625,16.625
			S95.957,37.565,105.157,37.565z"/>
		<g>
			<g enable-background="new    ">
				<path fill="#0AFD8D" d="M90.133,50.053h4.71v1.06h-6.057v-9.953h1.347V50.053z"/>
				<path fill="#0AFD8D" d="M95.779,47.346c0-1.094,0.297-1.995,0.889-2.704c0.592-0.708,1.396-1.062,2.413-1.062
					c1.025,0,1.835,0.354,2.431,1.06c0.594,0.706,0.892,1.608,0.892,2.707v0.15c0,1.103-0.296,2.005-0.889,2.707
					s-1.399,1.053-2.42,1.053s-1.829-0.353-2.423-1.056c-0.596-0.705-0.893-1.605-0.893-2.704V47.346z M97.126,47.492
					c0,0.783,0.165,1.43,0.495,1.939c0.331,0.51,0.822,0.765,1.474,0.765c0.643,0,1.13-0.255,1.463-0.765s0.499-1.156,0.499-1.939
					v-0.149c0-0.774-0.168-1.418-0.502-1.933c-0.336-0.515-0.826-0.771-1.474-0.771c-0.643,0-1.129,0.257-1.46,0.771
					c-0.33,0.515-0.495,1.158-0.495,1.933V47.492z"/>
				<path fill="#0AFD8D" d="M103.757,47.551c0-1.189,0.26-2.148,0.779-2.878s1.237-1.094,2.153-1.094
					c0.469,0,0.882,0.095,1.237,0.283c0.355,0.189,0.651,0.462,0.889,0.817l0.164-0.964h1.073v7.438
					c0,0.948-0.275,1.676-0.827,2.184c-0.552,0.509-1.347,0.763-2.386,0.763c-0.355,0-0.739-0.049-1.152-0.147
					c-0.412-0.098-0.775-0.23-1.09-0.399l0.342-1.046c0.242,0.137,0.533,0.247,0.875,0.332c0.342,0.084,0.68,0.126,1.012,0.126
					c0.656,0,1.134-0.149,1.432-0.448c0.299-0.298,0.448-0.753,0.448-1.363v-0.834c-0.241,0.31-0.53,0.543-0.868,0.701
					c-0.338,0.156-0.725,0.235-1.162,0.235c-0.906,0-1.62-0.328-2.14-0.984s-0.779-1.516-0.779-2.577V47.551z M105.104,47.694
					c0,0.743,0.157,1.34,0.472,1.791s0.793,0.677,1.436,0.677c0.405,0,0.745-0.093,1.019-0.276c0.273-0.186,0.499-0.446,0.677-0.783
					v-3.404c-0.173-0.314-0.399-0.564-0.677-0.748c-0.277-0.186-0.613-0.277-1.005-0.277c-0.643,0-1.124,0.269-1.442,0.807
					s-0.479,1.229-0.479,2.071V47.694z"/>
				<path fill="#0AFD8D" d="M113.464,41.822h-1.347v-1.374h1.347V41.822z M113.464,51.112h-1.347v-7.396h1.347V51.112z"/>
				<path fill="#0AFD8D" d="M116.738,43.716l0.096,1.101c0.246-0.392,0.555-0.696,0.926-0.913c0.372-0.216,0.795-0.324,1.269-0.324
					c0.798,0,1.415,0.233,1.853,0.701c0.438,0.467,0.656,1.188,0.656,2.163v4.669h-1.347v-4.642c0-0.651-0.129-1.114-0.386-1.388
					c-0.258-0.273-0.65-0.41-1.18-0.41c-0.387,0-0.73,0.094-1.029,0.28c-0.298,0.187-0.536,0.442-0.714,0.766v5.394h-1.347v-7.396
					H116.738z"/>
			</g>
		</g>
	</g>
</g>
</svg>
