<?xml version="1.0" encoding="utf-8"?>
<!-- Generator: Adobe Illustrator 16.0.0, SVG Export Plug-In . SVG Version: 6.00 Build 0)  -->
<!DOCTYPE svg PUBLIC "-//W3C//DTD SVG 1.1//EN" "http://www.w3.org/Graphics/SVG/1.1/DTD/svg11.dtd">
<svg version="1.1" id="Layer_1" xmlns="http://www.w3.org/2000/svg" xmlns:xlink="http://www.w3.org/1999/xlink" x="0px" y="0px"
	 width="66.75px" height="56.635px" viewBox="76.5 0 66.75 56.635" enable-background="new 76.5 0 66.75 56.635"
	 xml:space="preserve">
<g id="Layer_1_2_">
	<path fill="#0AFD8D" d="M84.147,4.849v30.839h3.467l3.587-3.588v-3.777v-3.468V7.232h16.731v9.749v2.359v12.712l-3.611,3.586
		h31.286V4.849H84.147z"/>
	<polygon fill="#DCDDDE" points="91.201,32.101 91.201,7.232 107.933,7.232 107.933,32.054 104.321,35.64 87.614,35.64 	"/>
	<g>
		<g enable-background="new    ">
			<path fill="#0AFD8D" d="M89.529,53.557v-9.953h3.247c1.039,0,1.853,0.225,2.44,0.674c0.588,0.448,0.882,1.122,0.882,2.02
				c0,0.442-0.142,0.838-0.424,1.186c-0.282,0.35-0.653,0.607-1.114,0.776c0.602,0.128,1.074,0.422,1.418,0.882
				c0.345,0.46,0.517,0.996,0.517,1.606c0,0.911-0.295,1.607-0.886,2.089c-0.59,0.48-1.391,0.721-2.402,0.721H89.529z
				 M90.876,47.835h2.181c0.502,0,0.909-0.138,1.224-0.413c0.314-0.276,0.472-0.66,0.472-1.152c0-0.538-0.17-0.939-0.51-1.207
				c-0.339-0.266-0.828-0.399-1.466-0.399h-1.9V47.835z M90.876,48.895v3.603h2.331c0.611,0,1.087-0.151,1.429-0.453
				s0.513-0.729,0.513-1.283c0-0.581-0.143-1.037-0.428-1.369c-0.284-0.331-0.723-0.497-1.315-0.497H90.876z"/>
			<path fill="#0AFD8D" d="M100.487,50.815l0.239,0.93h0.041l1.818-5.585h1.497l-3.11,8.531c-0.188,0.497-0.455,0.93-0.803,1.299
				c-0.35,0.369-0.82,0.554-1.412,0.554c-0.109,0-0.248-0.013-0.417-0.038c-0.169-0.024-0.298-0.049-0.39-0.071l0.137-1.06
				c-0.027-0.005,0.054,0,0.242,0.014c0.189,0.014,0.309,0.021,0.359,0.021c0.287,0,0.521-0.128,0.704-0.383
				s0.335-0.538,0.458-0.848l0.321-0.772l-2.748-7.246h1.504L100.487,50.815z"/>
			<path fill="#0AFD8D" d="M107.528,50.815l0.239,0.93h0.041l1.818-5.585h1.497l-3.11,8.531c-0.188,0.497-0.455,0.93-0.803,1.299
				c-0.35,0.369-0.82,0.554-1.412,0.554c-0.109,0-0.248-0.013-0.417-0.038c-0.169-0.024-0.298-0.049-0.39-0.071l0.137-1.06
				c-0.027-0.005,0.054,0,0.242,0.014c0.189,0.014,0.309,0.021,0.359,0.021c0.287,0,0.521-0.128,0.704-0.383
				s0.335-0.538,0.458-0.848l0.321-0.772l-2.748-7.246h1.504L107.528,50.815z"/>
			<path fill="#0AFD8D" d="M114.569,50.815l0.239,0.93h0.041l1.818-5.585h1.497l-3.11,8.531c-0.188,0.497-0.455,0.93-0.803,1.299
				c-0.35,0.369-0.82,0.554-1.412,0.554c-0.109,0-0.248-0.013-0.417-0.038c-0.169-0.024-0.298-0.049-0.39-0.071l0.137-1.06
				c-0.027-0.005,0.054,0,0.242,0.014c0.189,0.014,0.309,0.021,0.359,0.021c0.287,0,0.521-0.128,0.704-0.383
				s0.335-0.538,0.458-0.848l0.321-0.772l-2.748-7.246h1.504L114.569,50.815z"/>
			<path fill="#0AFD8D" d="M121.61,50.815l0.239,0.93h0.041l1.818-5.585h1.497l-3.11,8.531c-0.188,0.497-0.455,0.93-0.803,1.299
				c-0.35,0.369-0.82,0.554-1.412,0.554c-0.109,0-0.248-0.013-0.417-0.038c-0.169-0.024-0.298-0.049-0.39-0.071l0.137-1.06
				c-0.027-0.005,0.054,0,0.242,0.014c0.189,0.014,0.309,0.021,0.359,0.021c0.287,0,0.521-0.128,0.704-0.383
				s0.335-0.538,0.458-0.848l0.321-0.772l-2.748-7.246h1.504L121.61,50.815z"/>
			<path fill="#0AFD8D" d="M129.369,53.7c-1.029,0-1.85-0.343-2.457-1.028c-0.609-0.687-0.913-1.576-0.913-2.67v-0.301
				c0-1.053,0.313-1.929,0.94-2.629c0.626-0.699,1.367-1.049,2.225-1.049c0.998,0,1.752,0.301,2.263,0.902s0.766,1.403,0.766,2.406
				v0.841h-4.799l-0.021,0.034c0.014,0.709,0.193,1.292,0.54,1.748c0.347,0.457,0.831,0.686,1.456,0.686
				c0.455,0,0.855-0.064,1.199-0.195c0.345-0.129,0.643-0.309,0.893-0.536l0.526,0.876c-0.265,0.262-0.612,0.479-1.046,0.653
				C130.508,53.613,129.984,53.7,129.369,53.7z M129.164,47.083c-0.451,0-0.836,0.189-1.155,0.569
				c-0.319,0.379-0.515,0.854-0.588,1.427l0.014,0.034h3.411v-0.177c0-0.527-0.141-0.968-0.424-1.322S129.721,47.083,129.164,47.083
				z"/>
		</g>
	</g>
	<g>
		<circle fill="#FFFFFF" cx="103.426" cy="10.543" r="2.197"/>
	</g>
	<g>
		<path fill="#FFFFFF" d="M109.234,27.785c-0.58,0-1.086-0.438-1.109-1.016l-0.531-4.977l-4.25,8.812
			c-0.239,0.509-0.771,0.847-1.398,0.847h-2.053l5.216-10.793l-1.618-4.058l-1.545,1.884c-0.375,0.491-0.999,0.822-1.675,0.844
			v0.006l-3.413-0.002c-0.143,0.009-0.291-0.02-0.462-0.107c-0.472-0.248-0.685-0.88-0.423-1.37
			c0.201-0.384,0.511-0.551,0.896-0.562l3.006,0.024l0,0l2.77-3.489c0.507-0.58,1.277-0.969,2.125-0.969h5.357
			c0.849,0,1.594,0.459,1.98,1.208l1.594,3.021c0.072,0.121,0.12,0.267,0.12,0.459c0,0.531-0.458,1.015-1.014,1.015
			c-0.435,0-0.726-0.192-0.918-0.53l-1.72-3.049h-2.318l2.082,4.737l0.531,5.675h4.588c0.725,0,1.304,0.459,1.593,1.086l0.508,1.303
			h-7.919V27.785L109.234,27.785z"/>
	</g>
</g>
</svg>
