<?xml version="1.0" encoding="utf-8"?>
<!-- Generator: Adobe Illustrator 16.0.0, SVG Export Plug-In . SVG Version: 6.00 Build 0)  -->
<!DOCTYPE svg PUBLIC "-//W3C//DTD SVG 1.1//EN" "http://www.w3.org/Graphics/SVG/1.1/DTD/svg11.dtd">
<svg version="1.1" xmlns="http://www.w3.org/2000/svg" xmlns:xlink="http://www.w3.org/1999/xlink" x="0px" y="0px"
	 width="20.203px" height="20.203px" viewBox="-42.308 223.156 20.203 20.203"
	 enable-background="new -42.308 223.156 20.203 20.203" xml:space="preserve">
<g id="Layer_1">
	<path fill="#231F20" d="M-29.099,223.156v1.555h-2.33v1.83l8.548,3.886v4.386h-0.777v6.993h1.554v1.554h-20.203v-1.554h1.554
		v-6.993h-0.776v-4.386l8.547-3.886v-3.385H-29.099z M-32.333,227.893l-4.834,2.258h9.922L-32.333,227.893z M-39.977,231.704v1.555
		h15.602v-1.555H-39.977z M-39.201,234.812v6.993h1.555v-6.993H-39.201z M-36.076,234.812v6.993h1.555v-6.993H-36.076z
		 M-32.951,234.812v6.993h1.555v-6.993H-32.951z M-29.826,234.812v6.993h1.555v-6.993H-29.826z M-26.701,234.812v6.993h1.555v-6.993
		H-26.701z"/>
</g>
<g id="nyt_x5F_exporter_x5F_info" display="none">
</g>
</svg>
