<?xml version="1.0" encoding="utf-8"?>
<!-- Generator: Adobe Illustrator 16.0.0, SVG Export Plug-In . SVG Version: 6.00 Build 0)  -->
<!DOCTYPE svg PUBLIC "-//W3C//DTD SVG 1.1//EN" "http://www.w3.org/Graphics/SVG/1.1/DTD/svg11.dtd">
<svg version="1.1" xmlns="http://www.w3.org/2000/svg" xmlns:xlink="http://www.w3.org/1999/xlink" x="0px" y="0px"
	 width="21.166px" height="23.667px" viewBox="170.208 214.769 21.166 23.667"
	 enable-background="new 170.208 214.769 21.166 23.667" xml:space="preserve">
<g id="Layer_1">
	<g>
		<path fill="#FFFFFF" d="M182.46,235.001c-0.411,0.729-0.9,2.524-0.921,2.601l-0.035,0.128h8.514l-0.002-0.103
			c-0.013-1.225-0.186-2.147-0.313-2.821c-0.068-0.365-0.122-0.652-0.122-0.851c0-0.225,0.041-0.454,0.085-0.697
			c0.065-0.366,0.134-0.744,0.072-1.161c-0.091-0.618-0.157-3.16-0.166-3.506c0.046-0.055,0.141-0.174,0.203-0.283
			c0.066-0.116,0.07-0.291,0.074-0.433c0.001-0.052,0.001-0.096,0.006-0.121c0.03-0.134-0.156-1.258-0.288-1.743
			c-0.145-0.53-0.608-0.571-0.748-0.571c-0.029,0-0.044,0-0.043,0c-0.058,0-0.293,0.004-0.936,0.044
			c-0.074,0.005-0.143,0-0.213,0.001c0.092-0.567-0.095-1.291-0.969-2.147c0,0,1.95-1.529,0.238-3.569c0,0-1.132-1.035-0.302-1.94
			c0,0,0.78-0.904-0.001-1.585l-0.034,0.037c-0.199-0.315-0.661-0.649-1.644,0.178c0,0-0.888,0.688-1.703-0.294
			c0,0-1.54-2.084-3.595,0.171c0,0-1.854-2.378-4.069,0.19c0,0-0.639,0.521-1.528-0.201c0,0-0.89-0.806-1.611,0.117
			c0,0-0.856,0.654,0.051,1.695c0,0,0.621,0.772,0.017,1.461c0,0-2.212,1.982-0.124,3.962c0,0-2.221,1.339,0.01,3.523
			c0,0-1.95,1.529-0.238,3.568c0,0,1.132,1.036,0.301,1.94c0,0-0.779,0.905,0.002,1.585l0.034-0.037
			c0.199,0.315,0.66,0.649,1.644-0.178c0,0,0.888-0.688,1.703,0.294c0,0,1.54,2.084,3.595-0.171c0,0,1.419,1.82,3.258,0.557
			c-0.052,0.095-0.102,0.187-0.168,0.304L182.46,235.001z"/>
		<path d="M174.147,232.311v-14.194h10.983l1.564-1.524c0,0-0.303-1.377-1.779-0.135c0,0-0.888,0.688-1.703-0.294
			c0,0-1.54-2.084-3.595,0.171c0,0-1.854-2.378-4.069,0.19c0,0-0.639,0.521-1.528-0.201c0,0-0.89-0.806-1.611,0.117
			c0,0-0.856,0.654,0.051,1.695c0,0,0.621,0.772,0.017,1.461c0,0-2.212,1.982-0.124,3.962c0,0-2.221,1.339,0.01,3.523
			c0,0-1.95,1.529-0.238,3.568c0,0,1.132,1.036,0.301,1.94c0,0-0.779,0.905,0.002,1.585L174.147,232.311z"/>
		<path d="M184.873,218.107v14.194h-10.984l-1.563,1.525c0,0,0.302,1.376,1.779,0.134c0,0,0.888-0.688,1.703,0.294
			c0,0,1.54,2.084,3.595-0.171c0,0,1.854,2.379,4.069-0.189c0,0,0.638-0.521,1.527,0.201c0,0,0.89,0.806,1.612-0.117
			c0,0,0.855-0.655-0.051-1.696c0,0-0.621-0.772-0.017-1.46c0,0,2.212-1.983,0.124-3.963c0,0,2.22-1.339-0.01-3.522
			c0,0,1.95-1.529,0.238-3.569c0,0-1.132-1.035-0.302-1.94c0,0,0.78-0.904-0.001-1.585L184.873,218.107z"/>
		<g>
			<g>
				<path d="M181.638,237.628c0,0,0.501-1.85,0.911-2.576c0.409-0.727,0.568-0.99,0.542-1.572c-0.027-0.581-0.063-0.773-0.648-0.466
					c0,0-0.363,0.175-0.641,0.175c-0.276,0-0.436,0.061-0.561-0.402c-0.126-0.463-0.621-1.962-0.621-1.962s-0.172-0.886-0.172-1.375
					c0-0.488-0.159-1.097,0.502-1.624c0.661-0.529,1.642-1.292,1.83-1.49c0.188-0.197,0.369-0.307,0.313-0.803
					c-0.056-0.495-0.136-0.951-0.402-1.179c-0.268-0.229-0.664-0.288-0.862-0.635s-0.479-0.821-0.298-1.328
					c0.089-0.245,0.123-0.361,0.152-0.763c0.026-0.349,0.347-0.647,0.571-0.812c0.446-0.327,1.061-0.509,1.467-0.565
					s0.869,0.07,1.033,0.137c0.166,0.065,0.714,0.488,0.979,0.99c0.264,0.502,0.316,0.614,0.231,0.773
					c-0.086,0.158-0.093,0.244-0.021,0.436c0.073,0.191-0.179,0.396-0.185,0.509c-0.007,0.112-0.054,1.193-0.146,1.493
					c-0.106,0.345-0.258,0.607,0.388,0.753c0.509,0.114,1.105,0.29,1.846,0.244s0.938-0.043,0.938-0.043s0.535-0.049,0.684,0.495
					c0.149,0.545,0.308,1.605,0.287,1.695c-0.02,0.089,0.011,0.386-0.068,0.525c-0.079,0.138-0.219,0.297-0.219,0.297
					s0.069,2.883,0.169,3.558c0.099,0.673-0.159,1.268-0.159,1.843c0,0.574,0.417,1.771,0.437,3.673H181.638L181.638,237.628z"/>
				<path d="M190.018,237.729h-8.514l0.035-0.128c0.021-0.076,0.51-1.871,0.921-2.601l0.032-0.057
					c0.379-0.672,0.521-0.924,0.496-1.46c-0.018-0.403-0.047-0.514-0.136-0.514c-0.073,0-0.191,0.043-0.362,0.133
					c-0.019,0.01-0.391,0.187-0.688,0.187l-0.155,0.003c-0.243,0-0.396-0.076-0.504-0.481c-0.124-0.454-0.615-1.94-0.62-1.955
					c-0.01-0.05-0.177-0.913-0.177-1.407c0-0.075-0.004-0.153-0.008-0.234c-0.022-0.442-0.05-0.992,0.548-1.47
					c0.156-0.125,0.331-0.265,0.509-0.405c0.55-0.435,1.172-0.929,1.312-1.075l0.065-0.067c0.153-0.153,0.264-0.264,0.22-0.654
					c-0.048-0.428-0.12-0.901-0.367-1.112c-0.092-0.078-0.203-0.137-0.32-0.198c-0.21-0.108-0.427-0.221-0.564-0.463l-0.013-0.022
					c-0.205-0.359-0.486-0.851-0.292-1.391c0.082-0.229,0.117-0.338,0.146-0.736c0.03-0.402,0.396-0.729,0.612-0.887
					c0.462-0.339,1.085-0.524,1.513-0.584c0.433-0.062,0.921,0.076,1.086,0.143c0.183,0.072,0.754,0.514,1.03,1.037
					c0.266,0.505,0.345,0.657,0.23,0.869c-0.07,0.128-0.079,0.183-0.015,0.352c0.064,0.17-0.04,0.328-0.117,0.444
					c-0.022,0.035-0.059,0.089-0.062,0.107l-0.004,0.061c-0.04,0.79-0.088,1.266-0.146,1.456l-0.029,0.09
					c-0.048,0.149-0.087,0.268-0.042,0.348c0.044,0.075,0.173,0.138,0.385,0.186l0.213,0.05c0.455,0.107,0.98,0.23,1.603,0.192
					c0.643-0.04,0.878-0.044,0.936-0.044c-0.001,0,0.014,0,0.043,0c0.14,0,0.604,0.041,0.748,0.571
					c0.132,0.485,0.318,1.609,0.288,1.743c-0.005,0.025-0.005,0.069-0.006,0.121c-0.004,0.142-0.008,0.316-0.074,0.433
					c-0.062,0.109-0.157,0.229-0.203,0.283c0.009,0.346,0.075,2.888,0.166,3.506c0.062,0.417-0.007,0.795-0.072,1.161
					c-0.044,0.243-0.085,0.473-0.085,0.697c0,0.198,0.054,0.485,0.122,0.851c0.128,0.674,0.301,1.597,0.313,2.821L190.018,237.729z
					 M181.771,237.526h8.04c-0.021-1.156-0.187-2.035-0.308-2.683c-0.071-0.376-0.127-0.672-0.127-0.889
					c0-0.243,0.043-0.48,0.088-0.732c0.063-0.351,0.128-0.713,0.072-1.096c-0.1-0.673-0.167-3.451-0.17-3.57l-0.001-0.039
					l0.026-0.03c0.001-0.001,0.133-0.152,0.206-0.28c0.04-0.071,0.044-0.23,0.047-0.336c0.001-0.069,0.004-0.128,0.012-0.161
					c0.008-0.099-0.142-1.112-0.286-1.646c-0.104-0.38-0.421-0.422-0.552-0.422l-0.025,0.001c-0.058,0.001-0.287,0.003-0.939,0.044
					c-0.655,0.041-1.195-0.087-1.663-0.198l-0.211-0.049c-0.277-0.062-0.441-0.152-0.517-0.284c-0.09-0.157-0.033-0.329,0.025-0.511
					l0.027-0.087c0.036-0.117,0.09-0.457,0.139-1.407l0.003-0.062c0.004-0.068,0.046-0.133,0.095-0.206
					c0.058-0.089,0.124-0.188,0.097-0.261c-0.082-0.216-0.076-0.333,0.025-0.521c0.057-0.104,0.033-0.174-0.231-0.677
					c-0.264-0.5-0.8-0.894-0.926-0.943c-0.175-0.07-0.61-0.181-0.981-0.129c-0.386,0.054-0.988,0.229-1.421,0.546
					c-0.188,0.138-0.506,0.417-0.529,0.737c-0.03,0.406-0.065,0.532-0.158,0.79c-0.162,0.452,0.081,0.878,0.277,1.221l0.013,0.022
					c0.108,0.19,0.289,0.284,0.48,0.384c0.123,0.063,0.25,0.13,0.358,0.224c0.305,0.259,0.383,0.757,0.438,1.245
					c0.055,0.486-0.106,0.648-0.278,0.82l-0.062,0.063c-0.149,0.156-0.75,0.634-1.332,1.095c-0.178,0.141-0.352,0.279-0.509,0.404
					c-0.516,0.412-0.493,0.863-0.472,1.301c0.004,0.084,0.008,0.166,0.008,0.245c0,0.474,0.168,1.346,0.17,1.354
					c0.018,0.049,0.495,1.494,0.619,1.954c0.09,0.329,0.176,0.331,0.307,0.331c0,0,0.001,0,0.002,0l0.155-0.003
					c0.25,0,0.593-0.163,0.597-0.165c0.772-0.406,0.771,0.059,0.793,0.553c0.027,0.596-0.134,0.881-0.522,1.57l-0.032,0.057
					C182.301,235.699,181.893,237.096,181.771,237.526z"/>
			</g>
			<g>
				<path fill="none" stroke="#FFFFFF" stroke-width="0.21" d="M181.638,237.628c0,0,0.501-1.85,0.911-2.576
					c0.409-0.727,0.568-0.99,0.542-1.572c-0.027-0.581-0.063-0.773-0.648-0.466c0,0-0.363,0.175-0.641,0.175
					c-0.276,0-0.436,0.061-0.561-0.402c-0.126-0.463-0.621-1.962-0.621-1.962s-0.172-0.886-0.172-1.375
					c0-0.488-0.159-1.097,0.502-1.624c0.661-0.529,1.642-1.292,1.83-1.49c0.188-0.197,0.369-0.307,0.313-0.803
					c-0.056-0.495-0.136-0.951-0.402-1.179c-0.268-0.229-0.664-0.288-0.862-0.635s-0.479-0.821-0.298-1.328
					c0.089-0.245,0.123-0.361,0.152-0.763c0.026-0.349,0.347-0.647,0.571-0.812c0.446-0.327,1.061-0.509,1.467-0.565
					s0.869,0.07,1.033,0.137c0.166,0.065,0.714,0.488,0.979,0.99c0.264,0.502,0.316,0.614,0.231,0.773
					c-0.086,0.158-0.093,0.244-0.021,0.436c0.073,0.191-0.179,0.396-0.185,0.509c-0.007,0.112-0.054,1.193-0.146,1.493
					c-0.106,0.345-0.258,0.607,0.388,0.753c0.509,0.114,1.105,0.29,1.846,0.244s0.938-0.043,0.938-0.043s0.535-0.049,0.684,0.495
					c0.149,0.545,0.308,1.605,0.287,1.695c-0.02,0.089,0.011,0.386-0.068,0.525c-0.079,0.138-0.219,0.297-0.219,0.297
					s0.069,2.883,0.169,3.558c0.099,0.673-0.159,1.268-0.159,1.843c0,0.574,0.417,1.771,0.437,3.673H181.638L181.638,237.628z"/>
				<path fill="none" stroke="#FFFFFF" stroke-width="0.21" d="M190.018,237.729h-8.514l0.035-0.128
					c0.021-0.076,0.51-1.871,0.921-2.601l0.032-0.057c0.379-0.672,0.521-0.924,0.496-1.46c-0.018-0.403-0.047-0.514-0.136-0.514
					c-0.073,0-0.191,0.043-0.362,0.133c-0.019,0.01-0.391,0.187-0.688,0.187l-0.155,0.003c-0.243,0-0.396-0.076-0.504-0.481
					c-0.124-0.454-0.615-1.94-0.62-1.955c-0.01-0.05-0.177-0.913-0.177-1.407c0-0.075-0.004-0.153-0.008-0.234
					c-0.022-0.442-0.05-0.992,0.548-1.47c0.156-0.125,0.331-0.265,0.509-0.405c0.55-0.435,1.172-0.929,1.312-1.075l0.065-0.067
					c0.153-0.153,0.264-0.264,0.22-0.654c-0.048-0.428-0.12-0.901-0.367-1.112c-0.092-0.078-0.203-0.137-0.32-0.198
					c-0.21-0.108-0.427-0.221-0.564-0.463l-0.013-0.022c-0.205-0.359-0.486-0.851-0.292-1.391c0.082-0.229,0.117-0.338,0.146-0.736
					c0.03-0.402,0.396-0.729,0.612-0.887c0.462-0.339,1.085-0.524,1.513-0.584c0.433-0.062,0.921,0.076,1.086,0.143
					c0.183,0.072,0.754,0.514,1.03,1.037c0.266,0.505,0.345,0.657,0.23,0.869c-0.07,0.128-0.079,0.183-0.015,0.352
					c0.064,0.17-0.04,0.328-0.117,0.444c-0.022,0.035-0.059,0.089-0.062,0.107l-0.004,0.061c-0.04,0.79-0.088,1.266-0.146,1.456
					l-0.029,0.09c-0.048,0.149-0.087,0.268-0.042,0.348c0.044,0.075,0.173,0.138,0.385,0.186l0.213,0.05
					c0.455,0.107,0.98,0.23,1.603,0.192c0.643-0.04,0.878-0.044,0.936-0.044c-0.001,0,0.014,0,0.043,0
					c0.14,0,0.604,0.041,0.748,0.571c0.132,0.485,0.318,1.609,0.288,1.743c-0.005,0.025-0.005,0.069-0.006,0.121
					c-0.004,0.142-0.008,0.316-0.074,0.433c-0.062,0.109-0.157,0.229-0.203,0.283c0.009,0.346,0.075,2.888,0.166,3.506
					c0.062,0.417-0.007,0.795-0.072,1.161c-0.044,0.243-0.085,0.473-0.085,0.697c0,0.198,0.054,0.485,0.122,0.851
					c0.128,0.674,0.301,1.597,0.313,2.821L190.018,237.729z M181.771,237.526h8.04c-0.021-1.156-0.187-2.035-0.308-2.683
					c-0.071-0.376-0.127-0.672-0.127-0.889c0-0.243,0.043-0.48,0.088-0.732c0.063-0.351,0.128-0.713,0.072-1.096
					c-0.1-0.673-0.167-3.451-0.17-3.57l-0.001-0.039l0.026-0.03c0.001-0.001,0.133-0.152,0.206-0.28
					c0.04-0.071,0.044-0.23,0.047-0.336c0.001-0.069,0.004-0.128,0.012-0.161c0.008-0.099-0.142-1.112-0.286-1.646
					c-0.104-0.38-0.421-0.422-0.552-0.422l-0.025,0.001c-0.058,0.001-0.287,0.003-0.939,0.044c-0.655,0.041-1.195-0.087-1.663-0.198
					l-0.211-0.049c-0.277-0.062-0.441-0.152-0.517-0.284c-0.09-0.157-0.033-0.329,0.025-0.511l0.027-0.087
					c0.036-0.117,0.09-0.457,0.139-1.407l0.003-0.062c0.004-0.068,0.046-0.133,0.095-0.206c0.058-0.089,0.124-0.188,0.097-0.261
					c-0.082-0.216-0.076-0.333,0.025-0.521c0.057-0.104,0.033-0.174-0.231-0.677c-0.264-0.5-0.8-0.894-0.926-0.943
					c-0.175-0.07-0.61-0.181-0.981-0.129c-0.386,0.054-0.988,0.229-1.421,0.546c-0.188,0.138-0.506,0.417-0.529,0.737
					c-0.03,0.406-0.065,0.532-0.158,0.79c-0.162,0.452,0.081,0.878,0.277,1.221l0.013,0.022c0.108,0.19,0.289,0.284,0.48,0.384
					c0.123,0.063,0.25,0.13,0.358,0.224c0.305,0.259,0.383,0.757,0.438,1.245c0.055,0.486-0.106,0.648-0.278,0.82l-0.062,0.063
					c-0.149,0.156-0.75,0.634-1.332,1.095c-0.178,0.141-0.352,0.279-0.509,0.404c-0.516,0.412-0.493,0.863-0.472,1.301
					c0.004,0.084,0.008,0.166,0.008,0.245c0,0.474,0.168,1.346,0.17,1.354c0.018,0.049,0.495,1.494,0.619,1.954
					c0.09,0.329,0.176,0.331,0.307,0.331c0,0,0.001,0,0.002,0l0.155-0.003c0.25,0,0.593-0.163,0.597-0.165
					c0.772-0.406,0.771,0.059,0.793,0.553c0.027,0.596-0.134,0.881-0.522,1.57l-0.032,0.057
					C182.301,235.699,181.893,237.096,181.771,237.526z"/>
			</g>
		</g>
	</g>
</g>
<g id="nyt_x5F_exporter_x5F_info" display="none">
</g>
</svg>
