<?xml version="1.0" encoding="utf-8"?>
<!-- Generator: Adobe Illustrator 16.0.0, SVG Export Plug-In . SVG Version: 6.00 Build 0)  -->
<!DOCTYPE svg PUBLIC "-//W3C//DTD SVG 1.1//EN" "http://www.w3.org/Graphics/SVG/1.1/DTD/svg11.dtd">
<svg version="1.1" xmlns="http://www.w3.org/2000/svg" xmlns:xlink="http://www.w3.org/1999/xlink" x="0px" y="0px"
	 width="22.358px" height="22.07px" viewBox="134.089 223.746 22.358 22.07" enable-background="new 134.089 223.746 22.358 22.07"
	 xml:space="preserve">
<g id="Layer_1">
	<g>
		<path fill="#231F20" d="M134.389,235.246h0.863c0.4,0,0.4-0.621,0-0.621h-0.863C133.988,234.625,133.988,235.246,134.389,235.246z
			"/>
		<path fill="#231F20" d="M156.146,234.625h-11.604c-0.4,0-0.4,0.621,0,0.621h11.604
			C156.547,235.246,156.547,234.625,156.146,234.625z"/>
		<path fill="#231F20" d="M156.146,230.895h-12.787c-0.4,0-0.4,0.622,0,0.622h12.787
			C156.547,231.517,156.547,230.895,156.146,230.895z"/>
		<path fill="#231F20" d="M134.389,231.517h3.58c0.402,0,0.402-0.622,0-0.622h-3.58
			C133.988,230.895,133.988,231.517,134.389,231.517z"/>
		<path fill="#231F20" d="M156.146,227.165h-11.678c-0.4,0-0.4,0.622,0,0.622h11.678
			C156.547,227.787,156.547,227.165,156.146,227.165z"/>
		<path fill="#231F20" d="M134.389,227.787h3.863c0.4,0,0.4-0.622,0-0.622h-3.863C133.988,227.165,133.988,227.787,134.389,227.787z
			"/>
		<path fill="#231F20" d="M156.146,238.354h-10.258c-0.4,0-0.4,0.622,0,0.622h10.258
			C156.547,238.977,156.547,238.354,156.146,238.354z"/>
		<path fill="#231F20" d="M134.389,238.977h0.564c0.4,0,0.4-0.622,0-0.622h-0.564C133.988,238.354,133.988,238.977,134.389,238.977z
			"/>
		<path fill="#231F20" d="M134.389,242.706h2.627c0.4,0,0.4-0.622,0-0.622h-2.627C133.988,242.084,133.988,242.706,134.389,242.706z
			"/>
		<path fill="#231F20" d="M156.146,242.084h-11.957c-0.402,0-0.402,0.622,0,0.622h11.957
			C156.547,242.706,156.547,242.084,156.146,242.084z"/>
		<path fill="#231F20" d="M136.926,234.537c-0.996,1.486-1.121,3.436-0.33,5.039c0.889,1.809,2.869,3.004,4.896,2.559
			c0.105,0.871,0.371,2.144-0.791,2.396c0.211-0.947-0.74-1.78-1.652-1.434c-0.908,0.344-1.037,1.53-0.33,2.141
			c0.713,0.617,1.803,0.73,2.662,0.385c0.902-0.361,1.475-1.279,1.475-2.242c0-0.569-0.094-1.141-0.166-1.704
			c1.346-0.774,2.191-2.288,1.898-3.847c-0.277-1.457-1.486-2.629-2.988-2.708c-0.168-0.993-0.35-2.069-0.531-3.198
			c1.139-1.217,2.137-2.662,2.152-4.442c0.008-0.999-0.109-2.193-1.053-3.481c-0.184-0.249-0.521-0.326-0.795-0.182
			c-1.748,0.933-2.268,3.38-1.629,7.686c-0.301,0.301-0.609,0.591-0.908,0.873C138.004,233.161,137.285,233.84,136.926,234.537
			 M142.441,236.648c0.576,0.394,0.936,1.047,0.961,1.744c0.029,0.754-0.35,1.439-0.918,1.916c-0.127-0.779-0.604-3.545-0.666-3.909
			C142.045,236.443,142.26,236.525,142.441,236.648C142.928,236.98,142.26,236.525,142.441,236.648z M141.508,225.274
			c0.391,0.729,0.477,1.42,0.469,2.196c-0.008,1.039-0.479,1.968-1.137,2.816C140.562,227.76,140.787,226.081,141.508,225.274z
			 M139.689,233.282c0.098-0.092,0.195-0.185,0.295-0.28c0.131,0.795,0.26,1.557,0.381,2.275c-0.941,0.295-1.744,1.019-1.934,2.015
			c-0.18,0.942,0.229,1.926,1.02,2.466c0.283,0.193,0.67,0.12,0.863-0.164c0.193-0.283,0.121-0.67-0.162-0.863
			c-0.381-0.26-0.58-0.729-0.502-1.184c0.084-0.495,0.477-0.846,0.928-1.025c0.066,0.396,0.133,0.775,0.195,1.135
			c0.221,1.283,0.412,2.395,0.545,3.243c-1.924,0.476-3.654-1.117-3.953-2.948c-0.131-0.814,0.006-1.662,0.395-2.39
			C138.24,234.656,138.949,233.979,139.689,233.282z"/>
	</g>
</g>
<g id="nyt_x5F_exporter_x5F_info" display="none">
</g>
</svg>
