<?xml version="1.0" encoding="iso-8859-1"?>
<!-- Generator: Adobe Illustrator 16.0.0, SVG Export Plug-In . SVG Version: 6.00 Build 0)  -->
<!DOCTYPE svg PUBLIC "-//W3C//DTD SVG 1.1//EN" "http://www.w3.org/Graphics/SVG/1.1/DTD/svg11.dtd">
<svg version="1.1" xmlns="http://www.w3.org/2000/svg" xmlns:xlink="http://www.w3.org/1999/xlink" x="0px" y="0px"
	 width="33.477px" height="47.259px" viewBox="0 0 33.477 47.259" style="enable-background:new 0 0 33.477 47.259;"
	 xml:space="preserve">
<g id="Layer_1">
	<g>
		<g>
			<path style="fill:#1D4381;" d="M16.737,0C7.507,0-0.001,7.508-0.001,16.737c0,16.183,15.436,29.714,16.094,30.281
				c0.186,0.159,0.414,0.24,0.645,0.24s0.459-0.081,0.645-0.24c0.654-0.569,16.094-14.101,16.094-30.281
				C33.476,7.508,25.966,0,16.737,0z"/>
		</g>
		<g>
			<path style="fill:#FFFFFF;" d="M6.042,18.715h0.863c0.4,0,0.4-0.622,0-0.622H6.042C5.642,18.093,5.642,18.715,6.042,18.715z"/>
			<path style="fill:#FFFFFF;" d="M27.8,18.093H16.196c-0.4,0-0.4,0.622,0,0.622H27.8C28.2,18.715,28.2,18.093,27.8,18.093z"/>
			<path style="fill:#FFFFFF;" d="M27.8,14.363H15.013c-0.4,0-0.4,0.621,0,0.621H27.8C28.2,14.984,28.2,14.363,27.8,14.363z"/>
			<path style="fill:#FFFFFF;" d="M6.042,14.984h3.58c0.4,0,0.4-0.621,0-0.621h-3.58C5.642,14.363,5.642,14.984,6.042,14.984z"/>
			<path style="fill:#FFFFFF;" d="M27.8,10.633H16.122c-0.4,0-0.4,0.622,0,0.622H27.8C28.2,11.255,28.2,10.633,27.8,10.633z"/>
			<path style="fill:#FFFFFF;" d="M6.042,11.255h3.863c0.4,0,0.4-0.622,0-0.622H6.042C5.642,10.633,5.642,11.255,6.042,11.255z"/>
			<path style="fill:#FFFFFF;" d="M27.8,21.822H17.542c-0.4,0-0.4,0.622,0,0.622H27.8C28.2,22.444,28.2,21.822,27.8,21.822z"/>
			<path style="fill:#FFFFFF;" d="M6.042,22.444h0.564c0.4,0,0.4-0.622,0-0.622H6.042C5.642,21.822,5.642,22.444,6.042,22.444z"/>
			<path style="fill:#FFFFFF;" d="M6.042,26.174h2.625c0.402,0,0.402-0.621,0-0.621H6.042C5.642,25.553,5.642,26.174,6.042,26.174z"
				/>
			<path style="fill:#FFFFFF;" d="M27.8,25.553H15.843c-0.402,0-0.402,0.621,0,0.621H27.8C28.2,26.174,28.2,25.553,27.8,25.553z"/>
			<path style="fill:#FFFFFF;" d="M8.577,18.006c-0.994,1.485-1.119,3.436-0.33,5.039c0.891,1.808,2.869,3.003,4.898,2.559
				c0.105,0.87,0.371,2.143-0.793,2.396c0.211-0.948-0.738-1.781-1.65-1.436c-0.91,0.346-1.037,1.531-0.33,2.143
				c0.713,0.616,1.803,0.73,2.662,0.385c0.902-0.363,1.475-1.279,1.475-2.242c0-0.57-0.094-1.142-0.166-1.705
				c1.346-0.773,2.191-2.287,1.896-3.846c-0.275-1.457-1.484-2.629-2.986-2.709c-0.17-0.993-0.35-2.068-0.531-3.197
				c1.139-1.218,2.137-2.663,2.152-4.443c0.008-0.999-0.111-2.193-1.053-3.48c-0.184-0.25-0.521-0.326-0.795-0.182
				c-1.748,0.932-2.27,3.379-1.629,7.686c-0.301,0.3-0.609,0.59-0.908,0.873C9.657,16.629,8.938,17.308,8.577,18.006 M14.095,20.117
				c0.576,0.393,0.936,1.046,0.961,1.743c0.029,0.755-0.35,1.439-0.92,1.916c-0.125-0.778-0.602-3.544-0.664-3.909
				C13.698,19.91,13.913,19.992,14.095,20.117C14.581,20.449,13.913,19.992,14.095,20.117z M13.161,8.742
				c0.391,0.729,0.477,1.42,0.469,2.196c-0.008,1.04-0.479,1.968-1.137,2.816C12.216,11.229,12.44,9.549,13.161,8.742z
				 M11.341,16.75c0.098-0.092,0.197-0.186,0.297-0.279c0.131,0.793,0.258,1.557,0.381,2.275c-0.941,0.295-1.744,1.018-1.934,2.014
				c-0.18,0.943,0.229,1.926,1.02,2.466c0.283,0.193,0.67,0.12,0.863-0.163s0.121-0.67-0.162-0.864
				c-0.381-0.259-0.58-0.729-0.504-1.183c0.086-0.496,0.479-0.846,0.928-1.025c0.068,0.396,0.135,0.775,0.195,1.135
				c0.223,1.283,0.414,2.394,0.547,3.242c-1.926,0.477-3.654-1.117-3.953-2.948c-0.131-0.813,0.006-1.661,0.393-2.39
				C9.894,18.124,10.603,17.447,11.341,16.75z"/>
		</g>
	</g>
</g>
<g id="nyt_x5F_exporter_x5F_info" style="display:none;">
</g>
</svg>
