<?xml version="1.0" encoding="utf-8"?>
<!-- Generator: Adobe Illustrator 16.0.0, SVG Export Plug-In . SVG Version: 6.00 Build 0)  -->
<!DOCTYPE svg PUBLIC "-//W3C//DTD SVG 1.1//EN" "http://www.w3.org/Graphics/SVG/1.1/DTD/svg11.dtd">
<svg version="1.1" xmlns="http://www.w3.org/2000/svg" xmlns:xlink="http://www.w3.org/1999/xlink" x="0px" y="0px"
	 width="24.417px" height="19.834px" viewBox="60.875 219.935 24.417 19.834" enable-background="new 60.875 219.935 24.417 19.834"
	 xml:space="preserve">
<g id="Layer_1">
	<g>
		<path fill="#FFFFFF" d="M83.517,227.957c-0.209-0.261-0.521-0.47-0.835-0.521c0-0.157,0.052-0.261,0.052-0.418
			c0-1.2-0.939-2.14-2.14-2.192c-0.157-0.887-0.835-1.565-1.723-1.67c-0.209-0.888-0.991-1.514-1.931-1.514
			c-0.313,0-0.574,0.052-0.835,0.209l-0.47,0.209l0.417,0.312c0.209,0.209,0.209,0.418,0.156,0.522
			c-0.104,0.261-0.521,0.574-1.096,0.521c-1.2-0.052-2.088,0.835-2.349,1.827c-1.409,0-2.558,1.147-2.609,2.558
			c-0.783,0.365-1.306,1.148-1.306,2.035c0,0.052,0,0.052,0,0.104v0.053c0,0.887,0.835,1.565,1.932,1.773l1.253,5.69h9.134
			l1.253-5.742c0.678-0.209,1.2-0.679,1.408-1.305C84.195,229.627,84.039,228.583,83.517,227.957z"/>
		<g>
			<path fill="none" d="M73.547,231.454l0.888,5.48h0.783l-0.47-5.168C74.278,231.819,73.86,231.663,73.547,231.454z"/>
			<path fill="none" d="M79.654,231.35c-0.313,0.209-0.679,0.365-1.097,0.417l-0.47,5.22h0.783L79.654,231.35z"/>
			<path fill="none" d="M78.036,231.819L78.036,231.819c-0.417,0-0.835-0.104-1.2-0.261v5.376h0.783L78.036,231.819z"/>
			<path fill="none" d="M75.218,231.767l0.47,5.168h0.679v-5.585l0,0C76.053,231.559,75.636,231.715,75.218,231.767z"/>
			<path fill="none" d="M72.347,231.663l0.992,5.323h0.574l-0.888-5.637C72.816,231.506,72.608,231.611,72.347,231.663z"/>
			<path fill="none" d="M71.355,231.819C71.355,231.819,71.303,231.819,71.355,231.819l1.097,5.167h0.417l-0.992-5.22
				C71.721,231.819,71.512,231.819,71.355,231.819z"/>
			<path fill="none" d="M80.907,231.715c-0.313-0.104-0.574-0.261-0.783-0.417l-0.783,5.688h0.574L80.907,231.715z"/>
			<path fill="none" d="M81.377,231.819l-0.94,5.167h0.366l1.148-5.167c-0.104,0-0.157,0-0.262,0S81.48,231.819,81.377,231.819z"/>
			<path d="M83.517,227.957c-0.209-0.261-0.521-0.47-0.835-0.521c0-0.157,0.052-0.261,0.052-0.418c0-1.2-0.939-2.14-2.14-2.192
				c-0.157-0.887-0.835-1.565-1.723-1.67c-0.209-0.888-0.991-1.514-1.931-1.514c-0.313,0-0.574,0.052-0.835,0.209l-0.47,0.209
				l0.417,0.312c0.209,0.209,0.209,0.418,0.156,0.522c-0.104,0.261-0.521,0.574-1.096,0.521c-1.2-0.052-2.088,0.835-2.349,1.827
				c-1.409,0-2.558,1.147-2.609,2.558c-0.783,0.365-1.306,1.148-1.306,2.035c0,0.052,0,0.052,0,0.104l0,0v0.053
				c0,0.887,0.835,1.565,1.932,1.773l1.253,5.69h9.134l1.253-5.742c0.678-0.209,1.2-0.679,1.408-1.305
				C84.195,229.627,84.039,228.583,83.517,227.957z M72.452,236.986l-1.149-5.167h0.053c0.209,0,0.365,0,0.521-0.053l0.992,5.22
				H72.452z M73.339,236.986l-0.992-5.323c0.262-0.052,0.47-0.209,0.679-0.313l0.939,5.637H73.339z M74.435,236.986l-0.888-5.48
				c0.366,0.209,0.783,0.313,1.201,0.366l0.47,5.167h-0.783V236.986z M76.366,236.986h-0.679l-0.47-5.167
				c0.418-0.053,0.835-0.208,1.148-0.47l0,0V236.986z M76.836,231.611c0.365,0.155,0.783,0.261,1.2,0.261l0,0l-0.417,5.114h-0.731
				v-5.375H76.836z M78.558,231.767c0.418-0.052,0.783-0.208,1.097-0.417l-0.783,5.585h-0.783L78.558,231.767z M80.124,231.245
				c0.209,0.157,0.47,0.313,0.783,0.418l-0.992,5.271h-0.574L80.124,231.245z M80.803,236.986h-0.366l0.94-5.167
				c0.104,0,0.208,0,0.261,0c0.104,0,0.156,0,0.261,0L80.803,236.986z M83.308,230.201c-0.104,0.313-0.365,0.574-0.679,0.783
				c-0.156,0.104-0.313,0.156-0.521,0.209c-0.053,0-0.156,0.052-0.209,0.052c-0.679,0.104-1.305-0.313-1.618-0.73l-0.261-0.313
				l-0.261,0.313c-0.418,0.47-1.044,0.73-1.671,0.73c-0.574,0-1.096-0.209-1.513-0.521l-0.209-0.209l-0.209,0.209
				c-0.313,0.312-0.783,0.521-1.253,0.521c-0.574,0-1.096-0.209-1.357-0.626l-0.261-0.313l-0.312,0.262
				c-0.313,0.364-0.939,0.626-1.618,0.626c-0.053,0-0.104,0-0.209,0c-0.156,0-0.365-0.053-0.522-0.104
				c-0.678-0.157-1.147-0.574-1.147-1.096v-0.053v-0.053v-0.052c0-0.679,0.417-1.305,1.096-1.514l0.262-0.052v-0.313
				c0,0,0,0,0-0.052c0-1.201,0.991-2.192,2.191-2.192c0,0,0,0,0.053,0h0.261l0.052-0.261c0.156-0.783,0.835-1.566,1.774-1.514
				c0.888,0.104,1.514-0.366,1.723-0.888c0.104-0.261,0.104-0.574,0-0.835c0.053,0,0.104,0,0.157,0c0.679,0,1.252,0.521,1.305,1.2
				v0.313h0.312l0,0c0.73,0,1.357,0.626,1.357,1.356v0.366l0.365-0.053c0.052,0,0.104,0,0.157,0c0.887,0,1.565,0.731,1.565,1.565
				c0,0.21-0.053,0.418-0.104,0.574l-0.209,0.522l0.574-0.104c0.313-0.052,0.522,0.156,0.679,0.313
				C83.412,228.792,83.517,229.627,83.308,230.201z"/>
			<path d="M79.498,226.443c0.052-0.104,0.104-0.209,0.104-0.365c0-0.313-0.261-0.574-0.573-0.574c-0.313,0-0.574,0.261-0.574,0.574
				c0.052,0.365,0.312,0.626,0.626,0.626c0.104,0,0.209-0.052,0.261-0.104"/>
			<path d="M75.062,226.443c0.052-0.104,0.104-0.209,0.104-0.365c0-0.313-0.261-0.574-0.574-0.574c-0.312,0-0.573,0.261-0.573,0.574
				c0.104,0.365,0.118,0.606,0.626,0.626c0.104,0.004,0.208-0.052,0.261-0.104"/>
			
				<path fill="none" stroke="#000000" stroke-width="0.8" stroke-linecap="round" stroke-linejoin="round" stroke-miterlimit="10" d="
				M72.423,227.241c0,0,0.163,2.86,4.535,2.86c4.374,0,3.78-2.753,3.78-2.753"/>
		</g>
	</g>
	<g>
		<path fill="#FFFFFF" d="M76.821,234.808c-0.032-0.862-1.235-2.018-2.422-2.018c-0.124,0-0.246,0.013-0.364,0.037
			c-0.087,0.019-0.166,0.055-0.235,0.104c-0.537-0.345-1.049-0.477-1.413-0.524c-0.113-0.218-0.313-0.442-0.618-0.689
			c-0.032-0.542-0.424-0.933-1.108-1.616l-0.202-0.202c-0.686-0.686-1.075-1.077-1.617-1.109c-0.248-0.306-0.473-0.507-0.691-0.62
			c-0.049-0.367-0.182-0.877-0.522-1.411c0.049-0.069,0.085-0.148,0.104-0.235c0.124-0.599-0.073-1.286-0.545-1.888
			c-0.426-0.545-0.963-0.881-1.436-0.898c-0.027-0.001-0.056-0.002-0.084-0.002c-0.712,0-1.367,0.326-2.005,0.997
			c-0.008,0.008-0.015,0.017-0.021,0.024c-0.239,0.019-0.448,0.077-0.624,0.176c-0.686,0.385-0.991,1.834-1.112,2.664
			c-0.087,0.602-0.241,2.055,0.091,3.217c-0.127,0.346-0.223,1.159,0.874,3.185c-0.385,0.748,0.388,1.676,1.202,2.49
			c0.912,0.913,1.527,1.302,2.057,1.302c0.154,0,0.302-0.034,0.433-0.101c0.87,0.471,1.939,0.948,2.693,0.948
			c0.178,0,0.341-0.025,0.486-0.075c0.475,0.136,1.048,0.205,1.709,0.205c1.139,0,3.658-0.3,4.178-1.226
			c0.099-0.175,0.156-0.383,0.175-0.623c0.008-0.007,0.017-0.015,0.025-0.022C76.523,236.233,76.849,235.551,76.821,234.808z"/>
		<path d="M67.186,224.635c-0.426-0.545-0.963-0.881-1.436-0.898c-0.027-0.001-0.056-0.002-0.084-0.002
			c-0.712,0-1.367,0.326-2.005,0.997c-0.008,0.008-0.015,0.017-0.021,0.024c-0.239,0.019-0.448,0.077-0.624,0.176
			c-0.686,0.385-0.991,1.834-1.112,2.664c-0.087,0.602-0.241,2.055,0.091,3.217c-0.127,0.346-0.223,1.159,0.874,3.185
			c-0.385,0.748,0.388,1.676,1.202,2.49c0.912,0.913,1.527,1.302,2.057,1.302c0.154,0,0.302-0.034,0.433-0.101
			c0.87,0.471,1.939,0.948,2.693,0.948c0.178,0,0.341-0.025,0.486-0.075c0.475,0.136,1.048,0.205,1.709,0.205
			c1.139,0,3.658-0.3,4.178-1.226c0.099-0.175,0.156-0.383,0.175-0.623c0.008-0.007,0.017-0.015,0.025-0.022
			c0.697-0.662,1.022-1.345,0.995-2.088c-0.032-0.862-1.235-2.018-2.422-2.018c-0.124,0-0.246,0.013-0.364,0.037
			c-0.087,0.019-0.166,0.055-0.235,0.104c-0.537-0.345-1.049-0.477-1.413-0.524c-0.113-0.218-0.313-0.442-0.618-0.689
			c-0.032-0.542-0.424-0.933-1.108-1.616l-0.202-0.202c-0.686-0.686-1.075-1.077-1.617-1.109c-0.248-0.306-0.473-0.507-0.691-0.62
			c-0.049-0.367-0.182-0.877-0.522-1.411c0.049-0.069,0.085-0.148,0.104-0.235C67.854,225.924,67.657,225.236,67.186,224.635z
			 M65.716,224.675c0.154,0.006,0.463,0.196,0.73,0.538c0.23,0.295,0.364,0.614,0.379,0.894l-0.192,0.017
			c-0.507-0.377-1.32-0.774-2.071-0.957C64.95,224.822,65.329,224.66,65.716,224.675z M63.476,225.751
			c0.081-0.046,0.196-0.066,0.333-0.066c0.75,0,2.185,0.615,2.682,1.141c0.558,0.589,0.702,1.186,0.737,1.521
			c-1.352,0.067-3.414,0.953-4.411,1.873C62.482,228.499,63.108,225.959,63.476,225.751z M74.451,233.731
			c0.279,0.016,0.599,0.149,0.893,0.38c0.342,0.268,0.532,0.576,0.538,0.73c0.015,0.386-0.146,0.766-0.49,1.153
			c-0.183-0.75-0.581-1.564-0.958-2.07L74.451,233.731z M72.212,233.33c0.335,0.034,0.932,0.181,1.52,0.736
			c0.623,0.589,1.37,2.489,1.075,3.016c-0.208,0.367-2.748,0.992-4.468,0.659C71.258,236.744,72.145,234.682,72.212,233.33z
			 M71.562,232.858c0.249,1.203-1.104,4.3-2.099,4.802c-0.339,0.172-1.402-0.228-2.43-0.779c0.767-0.75,1.956-2.052,2.129-2.24
			c1.075-1.181,1.646-1.852,1.95-2.244C71.364,232.594,71.54,232.769,71.562,232.858z M68.817,229.732
			c0.197,0.051,0.515,0.368,0.975,0.83l0.095,0.094c0.001,0.001,0.001,0.001,0.002,0.002l0.012,0.012l0.095,0.095
			c0.461,0.461,0.779,0.778,0.829,0.976c-0.404,0.647-4.223,4.817-4.685,5.108c-0.004,0.001-0.312,0.068-1.405-1.025
			c-1.088-1.088-1.027-1.4-1.029-1.4C63.999,233.956,68.169,230.137,68.817,229.732z M67.698,228.995
			c0.091,0.022,0.266,0.197,0.463,0.449c-0.394,0.304-1.064,0.875-2.244,1.95c-0.189,0.173-1.49,1.362-2.24,2.129
			c-0.552-1.028-0.951-2.091-0.78-2.43c0.461-0.913,3.108-2.129,4.47-2.129C67.488,228.965,67.6,228.975,67.698,228.995z"/>
	</g>
</g>
<g id="nyt_x5F_exporter_x5F_info" display="none">
</g>
</svg>
