<?xml version="1.0" encoding="iso-8859-1"?>
<!-- Generator: Adobe Illustrator 16.0.0, SVG Export Plug-In . SVG Version: 6.00 Build 0)  -->
<!DOCTYPE svg PUBLIC "-//W3C//DTD SVG 1.1//EN" "http://www.w3.org/Graphics/SVG/1.1/DTD/svg11.dtd">
<svg version="1.1" id="Layer_1" xmlns="http://www.w3.org/2000/svg" xmlns:xlink="http://www.w3.org/1999/xlink" x="0px" y="0px"
	 width="33.477px" height="47.259px" viewBox="0 0 33.477 47.259" style="enable-background:new 0 0 33.477 47.259;"
	 xml:space="preserve">
<g>
	<g>
		<path style="fill:#1D4381;" d="M16.738,0C7.509,0,0,7.508,0,16.737C0,32.92,15.437,46.451,16.094,47.019
			c0.186,0.159,0.414,0.24,0.645,0.24s0.459-0.081,0.645-0.24c0.654-0.569,16.094-14.101,16.094-30.281
			C33.477,7.508,25.967,0,16.738,0z"/>
	</g>
	<g>
		<path style="fill:#FFFFFF;" d="M13.345,9.15c1.417,0,2.661,0.771,3.332,1.891c0.447-0.398,1.044-0.622,1.691-0.622
			c0.473,0,0.92,0.124,1.293,0.349c0.572-0.722,1.467-1.169,2.461-1.169c1.742,0,3.158,1.417,3.158,3.158
			c0,1.74-1.416,3.157-3.158,3.157c-0.895,0-1.715-0.373-2.287-0.969c-0.422,0.298-0.92,0.447-1.467,0.447
			c-0.646,0-1.244-0.249-1.691-0.622c-0.671,1.144-1.915,1.89-3.332,1.89s-2.661-0.771-3.332-1.89
			c-0.423,0.349-0.944,0.597-1.542,0.622c0,0.148-0.024,0.323,0,0.473c0,0.174,0,0.348,0.025,0.497
			c0.024,0.348,0.074,0.671,0.124,0.994c0.024,0.149,0.05,0.323,0.1,0.448c0.024,0.074,0.024,0.148,0.05,0.224
			c0.025,0.074,0.025,0.124,0.05,0.198c0.024,0.075,0.024,0.125,0.05,0.175c0.024,0.05,0.024,0.124,0.049,0.174
			c0.025,0.1,0.075,0.198,0.1,0.273c0.051,0.149,0.1,0.224,0.1,0.224c0.349,0.646,0.1,1.442-0.547,1.766
			c-0.199,0.1-0.397,0.149-0.621,0.149c-0.473,0-0.92-0.249-1.169-0.696c-0.199-0.398-0.199-0.846,0-1.219c0,0,0.05-0.074,0.1-0.224
			c0.024-0.075,0.074-0.174,0.099-0.273c0.025-0.05,0.025-0.1,0.051-0.175c0.024-0.049,0.024-0.123,0.049-0.174
			c0.025-0.074,0.025-0.124,0.051-0.198c0.024-0.075,0.024-0.149,0.049-0.224c0.025-0.149,0.075-0.299,0.1-0.448
			c0.05-0.323,0.1-0.646,0.125-0.994c0-0.175,0.024-0.349,0.024-0.497c0-0.175,0-0.324,0-0.498c0-0.049,0-0.1,0-0.148
			c-0.944-0.373-1.616-1.269-1.616-2.312c0-1.368,1.144-2.487,2.536-2.487c0.646,0,1.243,0.249,1.69,0.622
			C10.684,9.896,11.928,9.15,13.345,9.15 M13.345,8.306c-1.368,0-2.661,0.597-3.556,1.591c-0.447-0.223-0.97-0.322-1.467-0.322
			c-1.865,0-3.383,1.491-3.383,3.332c0,1.193,0.622,2.262,1.642,2.834c0,0.025,0,0.074,0,0.1c0,0.125,0,0.273-0.024,0.447
			c-0.025,0.299-0.05,0.622-0.1,0.92c-0.025,0.125-0.05,0.273-0.074,0.424v0.024c0,0.05-0.025,0.099-0.025,0.124v0.05
			c-0.025,0.075-0.025,0.124-0.05,0.174c-0.024,0.075-0.024,0.1-0.05,0.149v0.025c-0.025,0.049-0.025,0.1-0.05,0.124
			c-0.024,0.074-0.05,0.149-0.074,0.224c-0.05,0.1-0.075,0.149-0.075,0.174c-0.322,0.622-0.322,1.367,0,1.989
			c0.373,0.722,1.095,1.144,1.915,1.144c0.349,0,0.696-0.074,0.995-0.248c0.497-0.273,0.895-0.721,1.044-1.269
			c0.174-0.547,0.124-1.144-0.149-1.641l0,0c0,0-0.024-0.05-0.074-0.149c-0.025-0.074-0.05-0.149-0.074-0.224
			c-0.025-0.05-0.025-0.1-0.051-0.149v-0.025c-0.024-0.049-0.024-0.099-0.049-0.148c-0.025-0.074-0.025-0.125-0.051-0.174v-0.051
			c0-0.049-0.024-0.099-0.024-0.148V17.58c-0.024-0.148-0.05-0.273-0.074-0.422c-0.05-0.299-0.075-0.598-0.1-0.92
			c0-0.075,0-0.149-0.024-0.225c0.174-0.049,0.322-0.124,0.497-0.199c0.87,0.995,2.163,1.617,3.556,1.617
			c1.367,0,2.66-0.598,3.556-1.592c0.449,0.224,0.97,0.323,1.468,0.323c0.471,0,0.92-0.1,1.342-0.273
			c0.695,0.522,1.518,0.796,2.412,0.796c2.213,0,4.004-1.791,4.004-4.004s-1.791-4.003-4.004-4.003c-0.994,0-1.939,0.373-2.66,1.02
			c-0.35-0.124-0.721-0.175-1.094-0.175c-0.523,0-1.02,0.125-1.468,0.324C16.006,8.902,14.713,8.306,13.345,8.306L13.345,8.306z"/>
		<g>
			<path style="fill:#FFFFFF;" d="M7.451,14.497c-0.024,0-0.049,0-0.1-0.024c-0.721-0.273-1.168-0.945-1.168-1.691
				c0-0.994,0.82-1.814,1.84-1.814c0.125,0,0.248,0.099,0.248,0.248s-0.099,0.248-0.248,0.248c-0.746,0-1.343,0.598-1.343,1.318
				c0,0.547,0.323,1.02,0.846,1.219c0.124,0.05,0.198,0.199,0.149,0.323C7.65,14.447,7.551,14.497,7.451,14.497z"/>
		</g>
		<g>
			<path style="fill:#FFFFFF;" d="M7.427,20.564c-0.075,0-0.124-0.025-0.175-0.074c-0.024-0.025-0.422-0.473-0.372-1.045
				c0-0.124,0.124-0.248,0.273-0.224c0.124,0,0.249,0.124,0.224,0.273c-0.025,0.349,0.248,0.671,0.248,0.671
				c0.1,0.1,0.075,0.249-0.024,0.349C7.551,20.539,7.502,20.564,7.427,20.564z"/>
		</g>
		<path style="fill:#FFFFFF;" d="M19.786,15.442c-0.424,0.224-0.92,0.348-1.418,0.348c-0.572,0-1.119-0.149-1.567-0.447
			c-0.795,1.069-2.063,1.716-3.432,1.716c-0.969,0-1.914-0.349-2.66-0.92v10.717c0,0.97,0.796,1.74,1.74,1.74h7.411
			c0.969,0,1.74-0.795,1.74-1.74V16.263C20.928,16.188,20.282,15.914,19.786,15.442z M12.524,25.736
			c0,0.199-0.149,0.348-0.349,0.348s-0.348-0.148-0.348-0.348v-7.459c0-0.199,0.148-0.349,0.348-0.349s0.349,0.149,0.349,0.349
			V25.736z"/>
		<path style="fill:#FFFFFF;" d="M23.043,26.408c0.049,0.024,0.123,0.024,0.197,0.024c0.15,0,0.299-0.075,0.424-0.198
			c1.691-1.99,2.512-4.377,2.014-5.795c-0.199-0.596-0.795-1.342-2.387-1.467c-0.15-0.024-0.299,0.05-0.424,0.149
			c-0.1,0.1-0.174,0.249-0.174,0.397v6.391C22.694,26.135,22.819,26.333,23.043,26.408z M23.764,20.142
			c0.473,0.124,0.746,0.349,0.869,0.646c0.225,0.671-0.023,1.989-0.869,3.407V20.142z"/>
		<path style="fill:#FFFFFF;" d="M28.016,19.645c-0.348-1.045-1.393-2.785-4.252-3.108v-0.597c-0.324,0.174-0.697,0.299-1.094,0.348
			v0.746c0,0.299,0.223,0.522,0.521,0.547c2.486,0.149,3.432,1.393,3.779,2.438c0.971,2.785-1.318,6.738-4.104,8.927
			c-0.123,0.099-0.197,0.249-0.197,0.423v0.198c0,0.672-0.549,1.194-1.195,1.194H10.759c-0.671,0-1.194-0.547-1.194-1.194v-9.249
			c-0.148,0.372-0.422,0.721-0.82,0.92c-0.1,0.049-0.174,0.074-0.273,0.124v8.205c0,1.269,1.02,2.288,2.288,2.288h10.716
			c1.244,0,2.264-0.994,2.289-2.238C26.698,27.179,29.159,22.927,28.016,19.645z"/>
	</g>
</g>
</svg>
