<?xml version="1.0" encoding="utf-8"?>
<!-- Generator: Adobe Illustrator 16.0.0, SVG Export Plug-In . SVG Version: 6.00 Build 0)  -->
<!DOCTYPE svg PUBLIC "-//W3C//DTD SVG 1.1//EN" "http://www.w3.org/Graphics/SVG/1.1/DTD/svg11.dtd">
<svg version="1.1" xmlns="http://www.w3.org/2000/svg" xmlns:xlink="http://www.w3.org/1999/xlink" x="0px" y="0px"
	 width="23.362px" height="23.547px" viewBox="-114.12 224.838 23.362 23.547"
	 enable-background="new -114.12 224.838 23.362 23.547" xml:space="preserve">
<g id="Layer_1">
	<path fill="#FFFFFF" d="M-91.044,236.176c-0.348-1.044-1.393-2.784-4.252-3.107v-0.184c1.419-0.615,2.412-2.024,2.412-3.671
		c0-2.213-1.791-4.003-4.004-4.003c-0.994,0-1.939,0.373-2.66,1.02c-0.348-0.125-0.721-0.174-1.094-0.174
		c-0.522,0-1.02,0.123-1.467,0.322c-0.945-0.944-2.238-1.541-3.606-1.541c-1.367,0-2.66,0.597-3.556,1.591
		c-0.447-0.224-0.97-0.323-1.467-0.323c-1.865,0-3.382,1.492-3.382,3.332c0,1.193,0.622,2.263,1.642,2.835c0,0.024,0,0.075,0,0.1
		c0,0.124,0,0.273-0.025,0.447c-0.025,0.298-0.05,0.622-0.1,0.92c-0.025,0.124-0.05,0.273-0.074,0.423v0.025
		c0,0.049-0.025,0.1-0.025,0.124v0.05c-0.024,0.074-0.024,0.124-0.049,0.174c-0.025,0.074-0.025,0.1-0.051,0.149v0.024
		c-0.024,0.05-0.024,0.1-0.049,0.125c-0.025,0.074-0.051,0.148-0.075,0.223c-0.05,0.1-0.074,0.15-0.074,0.175
		c-0.323,0.622-0.323,1.368,0,1.989c0.372,0.721,1.094,1.144,1.915,1.144c0.167,0,0.334-0.02,0.496-0.057v7.79
		c0,1.268,1.02,2.287,2.288,2.287h10.718c1.242,0,2.262-0.994,2.287-2.237C-92.363,243.711-89.9,239.459-91.044,236.176z"/>
	<g>
		<path fill="#231F20" d="M-105.715,225.684c1.417,0,2.661,0.771,3.332,1.889c0.448-0.397,1.044-0.621,1.69-0.621
			c0.473,0,0.921,0.124,1.293,0.348c0.572-0.721,1.468-1.168,2.463-1.168c1.74,0,3.157,1.417,3.157,3.158
			c0,1.74-1.417,3.157-3.157,3.157c-0.896,0-1.717-0.373-2.288-0.97c-0.423,0.299-0.92,0.447-1.468,0.447
			c-0.646,0-1.242-0.248-1.69-0.621c-0.671,1.144-1.915,1.89-3.332,1.89s-2.66-0.771-3.332-1.89
			c-0.423,0.348-0.944,0.597-1.542,0.621c0,0.149-0.024,0.324,0,0.473c0,0.174,0,0.349,0.025,0.498
			c0.025,0.348,0.074,0.671,0.125,0.994c0.024,0.149,0.049,0.323,0.099,0.447c0.024,0.075,0.024,0.149,0.05,0.225
			c0.025,0.074,0.025,0.124,0.05,0.198c0.024,0.075,0.024,0.124,0.05,0.175c0.025,0.049,0.025,0.124,0.05,0.174
			c0.024,0.1,0.075,0.199,0.1,0.273c0.05,0.148,0.099,0.224,0.099,0.224c0.349,0.646,0.1,1.442-0.547,1.766
			c-0.198,0.099-0.397,0.149-0.621,0.149c-0.473,0-0.92-0.249-1.169-0.697c-0.198-0.397-0.198-0.845,0-1.218
			c0,0,0.05-0.075,0.1-0.224c0.024-0.075,0.075-0.174,0.1-0.273c0.024-0.051,0.024-0.1,0.05-0.174
			c0.024-0.051,0.024-0.125,0.05-0.175c0.024-0.074,0.024-0.124,0.05-0.198c0.024-0.075,0.024-0.15,0.049-0.225
			c0.025-0.148,0.075-0.298,0.1-0.447c0.051-0.323,0.1-0.646,0.125-0.994c0-0.175,0.024-0.349,0.024-0.498c0-0.174,0-0.323,0-0.497
			c0-0.05,0-0.1,0-0.149c-0.944-0.373-1.616-1.268-1.616-2.312c0-1.367,1.145-2.486,2.537-2.486c0.646,0,1.242,0.248,1.69,0.621
			C-108.375,226.429-107.132,225.684-105.715,225.684 M-105.715,224.838c-1.367,0-2.66,0.597-3.556,1.591
			c-0.447-0.224-0.97-0.323-1.467-0.323c-1.865,0-3.382,1.492-3.382,3.332c0,1.193,0.622,2.263,1.642,2.835c0,0.024,0,0.075,0,0.1
			c0,0.124,0,0.273-0.025,0.447c-0.025,0.298-0.05,0.622-0.1,0.92c-0.025,0.124-0.05,0.273-0.074,0.423v0.025
			c0,0.049-0.025,0.1-0.025,0.124v0.05c-0.024,0.074-0.024,0.124-0.049,0.174c-0.025,0.074-0.025,0.1-0.051,0.149v0.024
			c-0.024,0.05-0.024,0.1-0.049,0.125c-0.025,0.074-0.051,0.148-0.075,0.223c-0.05,0.1-0.074,0.15-0.074,0.175
			c-0.323,0.622-0.323,1.368,0,1.989c0.372,0.721,1.094,1.144,1.915,1.144c0.348,0,0.695-0.074,0.994-0.249
			c0.497-0.273,0.895-0.721,1.044-1.268c0.175-0.547,0.124-1.144-0.149-1.641l0,0c0,0-0.024-0.051-0.074-0.15
			c-0.025-0.074-0.05-0.148-0.074-0.223c-0.025-0.051-0.025-0.1-0.05-0.149v-0.025c-0.024-0.05-0.024-0.099-0.05-0.149
			c-0.025-0.074-0.025-0.124-0.05-0.174v-0.049c0-0.051-0.024-0.1-0.024-0.15v-0.024c-0.025-0.149-0.051-0.273-0.075-0.423
			c-0.05-0.298-0.074-0.597-0.1-0.92c0-0.074,0-0.148-0.024-0.224c0.174-0.05,0.323-0.124,0.497-0.198
			c0.87,0.994,2.163,1.615,3.556,1.615c1.367,0,2.66-0.597,3.556-1.591c0.448,0.224,0.97,0.323,1.468,0.323
			c0.473,0,0.92-0.1,1.342-0.273c0.697,0.521,1.518,0.795,2.412,0.795c2.213,0,4.004-1.79,4.004-4.003s-1.791-4.003-4.004-4.003
			c-0.994,0-1.939,0.373-2.66,1.02c-0.348-0.125-0.721-0.174-1.094-0.174c-0.522,0-1.02,0.123-1.467,0.322
			C-103.054,225.435-104.347,224.838-105.715,224.838L-105.715,224.838z"/>
		<g>
			<path fill="#231F20" d="M-111.609,231.029c-0.024,0-0.049,0-0.099-0.025c-0.722-0.273-1.169-0.944-1.169-1.69
				c0-0.995,0.82-1.815,1.84-1.815c0.125,0,0.249,0.1,0.249,0.249s-0.1,0.249-0.249,0.249c-0.746,0-1.342,0.596-1.342,1.317
				c0,0.547,0.322,1.02,0.845,1.218c0.124,0.051,0.198,0.199,0.149,0.324C-111.41,230.979-111.509,231.029-111.609,231.029z"/>
		</g>
		<g>
			<path fill="#231F20" d="M-111.633,237.096c-0.074,0-0.124-0.024-0.174-0.074c-0.024-0.024-0.423-0.473-0.373-1.044
				c0-0.124,0.124-0.249,0.273-0.224c0.124,0,0.249,0.124,0.224,0.273c-0.024,0.348,0.249,0.671,0.249,0.671
				c0.099,0.1,0.074,0.249-0.024,0.349C-111.509,237.071-111.558,237.096-111.633,237.096z"/>
		</g>
		<path fill="#231F20" d="M-99.275,231.975c-0.423,0.223-0.92,0.348-1.418,0.348c-0.571,0-1.118-0.149-1.566-0.447
			c-0.795,1.068-2.063,1.715-3.432,1.715c-0.969,0-1.914-0.348-2.66-0.92v10.717c0,0.971,0.796,1.741,1.74,1.741h7.41
			c0.971,0,1.741-0.796,1.741-1.741v-10.592C-98.131,232.72-98.778,232.446-99.275,231.975z M-106.536,242.269
			c0,0.198-0.149,0.348-0.349,0.348c-0.198,0-0.348-0.149-0.348-0.348v-7.46c0-0.199,0.149-0.348,0.348-0.348
			c0.199,0,0.349,0.148,0.349,0.348V242.269z"/>
		<path fill="#231F20" d="M-96.017,242.939c0.049,0.025,0.124,0.025,0.198,0.025c0.149,0,0.299-0.074,0.423-0.199
			c1.691-1.989,2.512-4.377,2.014-5.794c-0.198-0.597-0.795-1.343-2.387-1.467c-0.148-0.024-0.299,0.05-0.422,0.149
			c-0.1,0.1-0.175,0.248-0.175,0.397v6.391C-96.366,242.666-96.242,242.865-96.017,242.939z M-95.296,236.674
			c0.473,0.124,0.746,0.348,0.87,0.646c0.224,0.671-0.024,1.989-0.87,3.406V236.674z"/>
		<path fill="#231F20" d="M-91.044,236.176c-0.348-1.044-1.393-2.784-4.252-3.107v-0.598c-0.323,0.175-0.696,0.299-1.094,0.349
			v0.746c0,0.298,0.224,0.522,0.521,0.547c2.486,0.149,3.432,1.393,3.779,2.437c0.971,2.785-1.317,6.739-4.102,8.928
			c-0.125,0.1-0.199,0.248-0.199,0.422v0.199c0,0.672-0.547,1.193-1.193,1.193h-10.718c-0.671,0-1.193-0.547-1.193-1.193v-9.25
			c-0.149,0.373-0.423,0.721-0.821,0.92c-0.099,0.05-0.174,0.074-0.273,0.125v8.205c0,1.268,1.02,2.287,2.288,2.287h10.718
			c1.242,0,2.262-0.994,2.287-2.237C-92.363,243.711-89.9,239.459-91.044,236.176z"/>
	</g>
</g>
<g id="nyt_x5F_exporter_x5F_info" display="none">
</g>
</svg>
