<?xml version="1.0" encoding="utf-8"?>
<!-- Generator: Adobe Illustrator 16.0.0, SVG Export Plug-In . SVG Version: 6.00 Build 0)  -->
<!DOCTYPE svg PUBLIC "-//W3C//DTD SVG 1.1//EN" "http://www.w3.org/Graphics/SVG/1.1/DTD/svg11.dtd">
<svg version="1.1" xmlns="http://www.w3.org/2000/svg" xmlns:xlink="http://www.w3.org/1999/xlink" x="0px" y="0px"
	 width="21.071px" height="21.071px" viewBox="98.471 217.197 21.071 21.071" enable-background="new 98.471 217.197 21.071 21.071"
	 xml:space="preserve">
<g id="Layer_1">
	<g>
		<path fill="#FFFFFF" d="M116.032,221.269h-13.48l-2.247,2.247v0.562v2.247c0,1.24,1.008,2.246,2.247,2.246v5.617
			c-1.239,0-2.247,1.006-2.247,2.247h17.975c0-1.241-1.005-2.247-2.247-2.247v-5.617c1.242,0,2.247-1.006,2.247-2.246v-2.247v-0.562
			L116.032,221.269z"/>
		<rect x="100.417" y="217.865" fill="#FFFFFF" width="17.74" height="2.956"/>
	</g>
	<g>
		<path d="M116.032,221.269h-13.48l-2.247,2.247v0.562v2.247c0,1.24,1.008,2.246,2.247,2.246v5.617
			c-1.239,0-2.247,1.006-2.247,2.247h17.975c0-1.241-1.005-2.247-2.247-2.247v-5.617c1.242,0,2.247-1.006,2.247-2.246v-2.247v-0.562
			L116.032,221.269z M113.786,226.324c0,0.619-0.505,1.123-1.124,1.123c-0.618,0-1.123-0.504-1.123-1.123v-2.247h2.247V226.324z
			 M107.045,226.324c0,0.619-0.503,1.123-1.123,1.123c-0.619,0-1.124-0.504-1.124-1.123v-2.247h2.247V226.324z M108.169,224.077
			h2.246v2.247c0,0.619-0.503,1.123-1.123,1.123c-0.619,0-1.123-0.504-1.123-1.123V224.077z M101.428,226.324v-2.247h2.247v2.247
			c0,0.619-0.503,1.123-1.123,1.123C101.934,227.447,101.428,226.943,101.428,226.324z M103.675,234.188v-5.929
			c0.214-0.123,0.402-0.278,0.562-0.462c0.413,0.47,1.013,0.773,1.686,0.773c0.676,0,1.274-0.304,1.685-0.773
			c0.413,0.47,1.013,0.773,1.686,0.773c0.412,0,0.793-0.118,1.123-0.312v5.929H103.675z M114.909,234.188h-3.37v-5.929
			c0.331,0.193,0.713,0.312,1.123,0.312c0.676,0,1.275-0.304,1.686-0.773c0.162,0.184,0.349,0.339,0.562,0.462V234.188z
			 M117.156,226.324c0,0.619-0.505,1.123-1.124,1.123c-0.618,0-1.123-0.504-1.123-1.123v-2.247h2.247V226.324z M118.157,220.821
			h-17.74v-2.956h17.74V220.821z M113.224,230.817c0,0.311-0.25,0.562-0.562,0.562c-0.309,0-0.562-0.251-0.562-0.562
			s0.253-0.562,0.562-0.562C112.974,230.256,113.224,230.507,113.224,230.817z"/>
		<g>
			<path fill="#FFFFFF" d="M102.126,220.238v-1.812h0.59c0.19,0,0.339,0.039,0.444,0.121c0.107,0.082,0.16,0.205,0.16,0.368
				c0,0.08-0.026,0.151-0.076,0.215c-0.052,0.063-0.12,0.111-0.203,0.142c0.108,0.023,0.195,0.078,0.259,0.161
				c0.062,0.084,0.094,0.18,0.094,0.292c0,0.167-0.054,0.293-0.162,0.381c-0.107,0.089-0.253,0.132-0.437,0.132H102.126z
				 M102.37,219.195h0.398c0.09,0,0.164-0.025,0.222-0.074c0.056-0.052,0.087-0.121,0.087-0.211c0-0.098-0.034-0.17-0.094-0.22
				c-0.062-0.048-0.151-0.072-0.268-0.072h-0.346V219.195z M102.37,219.389v0.657h0.425c0.111,0,0.197-0.027,0.26-0.085
				c0.062-0.053,0.093-0.131,0.093-0.231c0-0.107-0.025-0.19-0.077-0.25c-0.053-0.06-0.131-0.091-0.239-0.091H102.37z"/>
			<path fill="#FFFFFF" d="M105.126,219.493c0,0.223-0.068,0.405-0.206,0.553c-0.138,0.145-0.316,0.218-0.534,0.218
				c-0.212,0-0.386-0.073-0.517-0.218c-0.131-0.147-0.2-0.33-0.2-0.553v-0.323c0-0.22,0.069-0.403,0.2-0.549
				c0.131-0.147,0.305-0.223,0.517-0.223c0.218,0,0.396,0.075,0.534,0.22c0.138,0.147,0.206,0.331,0.206,0.552V219.493z
				 M104.881,219.169c0-0.166-0.045-0.302-0.135-0.408c-0.089-0.106-0.209-0.159-0.36-0.159c-0.144,0-0.256,0.053-0.342,0.159
				s-0.127,0.242-0.127,0.408v0.324c0,0.168,0.041,0.304,0.127,0.412c0.086,0.105,0.198,0.157,0.342,0.157
				c0.151,0,0.272-0.052,0.361-0.157c0.089-0.106,0.134-0.244,0.134-0.412V219.169z"/>
			<path fill="#FFFFFF" d="M106.863,219.493c0,0.223-0.068,0.405-0.206,0.553c-0.138,0.145-0.315,0.218-0.535,0.218
				c-0.212,0-0.384-0.073-0.515-0.218c-0.134-0.147-0.199-0.33-0.199-0.553v-0.323c0-0.22,0.065-0.403,0.199-0.549
				c0.131-0.147,0.303-0.223,0.515-0.223c0.22,0,0.397,0.075,0.535,0.22c0.138,0.147,0.206,0.331,0.206,0.552V219.493z
				 M106.618,219.169c0-0.166-0.045-0.302-0.135-0.408c-0.089-0.106-0.21-0.159-0.361-0.159c-0.141,0-0.255,0.053-0.342,0.159
				c-0.084,0.106-0.125,0.242-0.125,0.408v0.324c0,0.168,0.041,0.304,0.125,0.412c0.087,0.105,0.201,0.157,0.342,0.157
				c0.153,0,0.274-0.052,0.361-0.157c0.09-0.106,0.135-0.244,0.135-0.412V219.169z"/>
			<path fill="#FFFFFF" d="M107.687,219.42h-0.213v0.818h-0.245v-1.812h0.245v0.802h0.188l0.65-0.802h0.271l0.003,0.005
				l-0.703,0.869l0.754,0.932l-0.003,0.006h-0.291L107.687,219.42z"/>
			<path fill="#FFFFFF" d="M110.488,219.782c0-0.085-0.032-0.152-0.092-0.209c-0.063-0.055-0.174-0.103-0.332-0.14
				c-0.19-0.047-0.341-0.113-0.45-0.201c-0.105-0.09-0.161-0.201-0.161-0.336c0-0.142,0.06-0.261,0.175-0.354
				c0.114-0.096,0.267-0.144,0.451-0.144c0.196,0,0.354,0.055,0.472,0.163c0.118,0.109,0.174,0.236,0.171,0.38l-0.003,0.007h-0.233
				c0-0.106-0.035-0.192-0.105-0.258s-0.171-0.099-0.301-0.099c-0.124,0-0.216,0.029-0.281,0.083
				c-0.067,0.056-0.098,0.129-0.098,0.217c0,0.078,0.036,0.145,0.106,0.198c0.069,0.051,0.184,0.098,0.341,0.139
				c0.191,0.045,0.338,0.115,0.437,0.207c0.101,0.094,0.15,0.207,0.15,0.344c0,0.146-0.061,0.262-0.182,0.351
				c-0.118,0.091-0.273,0.134-0.467,0.134c-0.181,0-0.34-0.05-0.479-0.146c-0.141-0.099-0.207-0.23-0.203-0.395l0.002-0.007h0.234
				c0,0.117,0.044,0.204,0.127,0.265c0.086,0.06,0.192,0.091,0.318,0.091c0.124,0,0.222-0.025,0.295-0.078
				C110.452,219.942,110.488,219.871,110.488,219.782z"/>
			<path fill="#FFFFFF" d="M112.316,218.618h-0.581v1.62h-0.244v-1.62h-0.582v-0.191h1.407V218.618z"/>
			<path fill="#FFFFFF" d="M113.921,219.493c0,0.223-0.068,0.405-0.206,0.553c-0.137,0.145-0.315,0.218-0.534,0.218
				c-0.212,0-0.383-0.073-0.517-0.218c-0.132-0.147-0.198-0.33-0.198-0.553v-0.323c0-0.22,0.066-0.403,0.198-0.549
				c0.134-0.147,0.305-0.223,0.517-0.223c0.219,0,0.397,0.075,0.534,0.22c0.138,0.147,0.206,0.331,0.206,0.552V219.493z
				 M113.676,219.169c0-0.166-0.045-0.302-0.134-0.408c-0.09-0.106-0.211-0.159-0.361-0.159c-0.142,0-0.256,0.053-0.341,0.159
				c-0.086,0.106-0.128,0.242-0.128,0.408v0.324c0,0.168,0.042,0.304,0.128,0.412c0.085,0.105,0.199,0.157,0.341,0.157
				c0.151,0,0.273-0.052,0.361-0.157c0.089-0.106,0.134-0.244,0.134-0.412V219.169z"/>
			<path fill="#FFFFFF" d="M114.531,219.454v0.784h-0.243v-1.812h0.655c0.199,0,0.35,0.045,0.453,0.132
				c0.105,0.088,0.156,0.216,0.156,0.385c0,0.09-0.021,0.172-0.071,0.24c-0.049,0.07-0.119,0.124-0.212,0.165
				c0.101,0.032,0.171,0.085,0.214,0.158c0.045,0.074,0.066,0.162,0.066,0.269v0.171c0,0.057,0.005,0.107,0.018,0.151
				c0.014,0.045,0.034,0.081,0.065,0.111v0.029h-0.253c-0.032-0.029-0.054-0.071-0.062-0.126c-0.01-0.053-0.013-0.109-0.013-0.168
				v-0.165c0-0.099-0.029-0.176-0.087-0.237c-0.057-0.06-0.134-0.088-0.229-0.088H114.531z M114.531,219.26h0.386
				c0.14,0,0.239-0.027,0.301-0.079s0.091-0.133,0.091-0.24c0-0.101-0.028-0.18-0.088-0.238c-0.06-0.055-0.152-0.081-0.277-0.081
				h-0.412V219.26z"/>
			<path fill="#FFFFFF" d="M117.051,219.397h-0.83v0.648h0.957v0.192h-1.201v-1.812h1.188v0.191h-0.943v0.587h0.83V219.397z"/>
		</g>
	</g>
	<g>
		<path fill="#FFFFFF" d="M108.65,233.496c-0.014-0.053-0.056-0.095-0.109-0.105l-0.065-0.013v-0.914l0.106-0.091
			c0.042-0.036,0.06-0.094,0.045-0.146c-0.014-0.054-0.059-0.094-0.112-0.104l-0.599-0.108v-0.77v-0.016l0.109-0.094
			c0.042-0.036,0.061-0.094,0.046-0.146c-0.015-0.054-0.059-0.094-0.113-0.104l-4.838-0.874c-0.038-0.007-0.076,0.002-0.108,0.023
			l-3.749,2.615c-0.07,0.039-0.33,0.218-0.325,0.713c0.006,0.537,0.324,0.78,0.337,0.791c0.002,0.001,0.005,0.002,0.007,0.004
			c0.003,0.002,0.006,0.004,0.01,0.006c0.003,0.002,0.006,0.004,0.011,0.006c0.003,0.001,0.007,0.003,0.01,0.004
			c0.005,0.002,0.009,0.003,0.013,0.004c0.003,0.001,0.005,0.002,0.007,0.002l0.222,0.047c-0.036,0.098-0.061,0.22-0.059,0.374
			c0.002,0.266,0.082,0.46,0.163,0.589l-0.172,0.12c-0.071,0.039-0.33,0.218-0.325,0.713c0.006,0.537,0.324,0.781,0.338,0.791
			c0.012,0.008,0.036,0.021,0.056,0.025l5.076,1.065c0,0,0.001,0,0.002,0l0.181,0.038c0.01,0.002,0.02,0.003,0.03,0.003
			c0.033,0,0.065-0.012,0.092-0.034l3.337-2.85c0.041-0.036,0.059-0.092,0.045-0.145c-0.013-0.053-0.056-0.094-0.109-0.104
			l-0.06-0.013v-0.77l0.457-0.391C108.646,233.604,108.664,233.548,108.65,233.496z"/>
		<path d="M108.65,233.496c-0.014-0.053-0.056-0.095-0.109-0.105l-0.065-0.013v-0.914l0.106-0.091
			c0.042-0.036,0.06-0.094,0.045-0.146c-0.014-0.054-0.059-0.094-0.112-0.104l-0.599-0.108v-0.77v-0.016l0.109-0.094
			c0.042-0.036,0.061-0.094,0.046-0.146c-0.015-0.054-0.059-0.094-0.113-0.104l-4.838-0.874c-0.038-0.007-0.076,0.002-0.108,0.023
			l-3.749,2.615c-0.07,0.039-0.33,0.218-0.325,0.713c0.006,0.537,0.324,0.78,0.337,0.791c0.002,0.001,0.005,0.002,0.007,0.004
			c0.003,0.002,0.006,0.004,0.01,0.006c0.003,0.002,0.006,0.004,0.011,0.006c0.003,0.001,0.007,0.003,0.01,0.004
			c0.005,0.002,0.009,0.003,0.013,0.004c0.003,0.001,0.005,0.002,0.007,0.002l0.222,0.047c-0.036,0.098-0.061,0.22-0.059,0.374
			c0.002,0.266,0.082,0.46,0.163,0.589l-0.172,0.12c-0.071,0.039-0.33,0.218-0.325,0.713c0.006,0.537,0.324,0.781,0.338,0.791
			c0.012,0.008,0.036,0.021,0.056,0.025l5.076,1.065c0,0,0.001,0,0.002,0l0.181,0.038c0.01,0.002,0.02,0.003,0.03,0.003
			c0.033,0,0.065-0.012,0.092-0.034l3.337-2.85c0.041-0.036,0.059-0.092,0.045-0.145c-0.013-0.053-0.056-0.094-0.109-0.104
			l-0.06-0.013v-0.77l0.457-0.391C108.646,233.604,108.664,233.548,108.65,233.496z M104.597,234.02
			c0.034,0,0.067-0.013,0.093-0.035l2.942-2.512v0.91l-3.062,2.603v-0.97C104.579,234.019,104.588,234.02,104.597,234.02z
			 M99.484,232.95l4.8,1.007v0.968l-4.8-1.004V232.95z M99.707,236.578v-0.97l4.8,1.008v0.969L99.707,236.578z M100.043,235.158
			v-0.829l4.364,0.916c0,0,0.001,0,0.002,0l0.181,0.038c0.01,0.002,0.021,0.003,0.029,0.003c0.034,0,0.066-0.012,0.093-0.034
			l0.08-0.067l0.048,0.01v0.97L100.043,235.158z M107.861,235.034l-3.067,2.611l-0.001-0.97c0.009,0.001,0.018,0.003,0.026,0.003
			c0.034,0,0.067-0.013,0.093-0.035l0.162-0.138l0.071,0.016c0.01,0.001,0.021,0.003,0.029,0.003c0.034,0,0.067-0.013,0.094-0.035
			l2.593-2.216V235.034z M108.194,233.613l-3.066,2.611l-0.002-0.971c0.01,0.002,0.019,0.003,0.027,0.003
			c0.033,0,0.066-0.012,0.093-0.034l2.948-2.519V233.613z"/>
	</g>
</g>
<g id="nyt_x5F_exporter_x5F_info" display="none">
</g>
</svg>
