<?xml version="1.0" encoding="iso-8859-1"?>
<!-- Generator: Adobe Illustrator 16.0.0, SVG Export Plug-In . SVG Version: 6.00 Build 0)  -->
<!DOCTYPE svg PUBLIC "-//W3C//DTD SVG 1.1//EN" "http://www.w3.org/Graphics/SVG/1.1/DTD/svg11.dtd">
<svg version="1.1" xmlns="http://www.w3.org/2000/svg" xmlns:xlink="http://www.w3.org/1999/xlink" x="0px" y="0px"
	 width="33.475px" height="47.259px" viewBox="0 0 33.475 47.259" style="enable-background:new 0 0 33.475 47.259;"
	 xml:space="preserve">
<g id="Layer_1">
	<g>
		<g>
			<path style="fill:#1D4381;" d="M16.735,0C7.507,0-0.001,7.508-0.001,16.737c0,16.183,15.436,29.714,16.094,30.281
				c0.184,0.159,0.412,0.24,0.643,0.24s0.459-0.081,0.645-0.24c0.656-0.569,16.094-14.101,16.094-30.281
				C33.474,7.508,25.966,0,16.735,0z"/>
		</g>
		<path style="fill:#FFFFFF;" d="M26.378,13.135c-0.908,0-1.816,0.909-3.633,0.909c-1.818,0-2.727-0.909-3.635-0.909
			c-0.428,0-0.908,0.455-0.908,0.909v6.36c0,2.014,0.908,4.543,4.543,4.543c3.633,0,4.541-2.529,4.541-4.543v-6.36
			C27.286,13.59,26.808,13.135,26.378,13.135z M19.563,17.451c0-0.627,0.51-1.136,1.137-1.136s1.135,0.509,1.135,1.136
			s-0.508,1.136-1.135,1.136S19.563,18.078,19.563,17.451z M22.745,23.13c-2.271,0-2.727-1.817-2.727-1.817h5.451
			C25.47,21.312,25.017,23.13,22.745,23.13z M24.788,18.587c-0.627,0-1.135-0.509-1.135-1.136s0.508-1.136,1.135-1.136
			s1.137,0.509,1.137,1.136S25.415,18.587,24.788,18.587z"/>
		<path style="fill:#FFFFFF;" d="M15.673,20.368c0.225,0.023,0.461,0.036,0.711,0.036c0.326,0,0.623-0.016,0.908-0.057v-2.669
			h-3.633c0,0,0.453-1.817,2.725-1.817c0.455,0,0.633,0.067,0.908,0.171v-1.987c0-0.833,0.332-1.529,0.91-1.817
			c0.908-0.454,1.273-0.271,1.816,0c0.908,0.454,0.908,0.454,0.908,0.454v-3.18c0-0.455-0.48-0.909-0.908-0.909
			c-0.908,0-1.816,0.909-3.635,0.909c-1.816,0-2.725-0.909-3.635-0.909l0,0c-0.428,0-0.908,0.454-0.908,0.908v6.36
			c0,0.808,0.152,1.696,0.562,2.474c0.16,0.067,0.32,0.139,0.479,0.22C13.981,19.115,14.911,19.723,15.673,20.368z M14.339,11.772
			c0.629,0,1.137,0.509,1.137,1.136s-0.508,1.136-1.137,1.136c-0.627,0-1.135-0.509-1.135-1.136S13.712,11.772,14.339,11.772z"/>
		<path style="fill:#FFFFFF;" d="M9.831,18.468c-1.996,0-3.633,0.999-4.07,1.858c-0.629,1.235-0.484,2.476,0.75,3.104
			c1.236,0.629,1.695,1.251,1.225,2.178c-0.629,1.234-0.174,2.632,1.061,3.261c1.441,0.734,2.746,1.047,3.877,1.047
			c2.018,0,3.482-0.996,4.188-2.381c1.887-3.705-0.57-6.512-4.275-8.397C11.646,18.659,10.704,18.468,9.831,18.468z M8.46,21.895
			c-0.152,0.301-0.457,0.475-0.773,0.475c-0.131,0-0.266-0.031-0.393-0.096c-0.426-0.217-0.596-0.737-0.377-1.164
			c0.152-0.301,0.455-0.473,0.771-0.473c0.133,0,0.266,0.03,0.393,0.095C8.507,20.948,8.677,21.469,8.46,21.895z M10.821,27.18
			c-0.184,0.361-0.549,0.568-0.926,0.568c-0.16,0-0.32-0.036-0.471-0.113c-0.512-0.26-0.715-0.887-0.455-1.398
			c0.184-0.359,0.549-0.567,0.928-0.567c0.158,0,0.318,0.036,0.471,0.113C10.878,26.043,11.083,26.669,10.821,27.18z M11.563,21.144
			c-0.152,0.301-0.457,0.474-0.771,0.474c-0.133,0-0.268-0.03-0.393-0.095c-0.426-0.218-0.596-0.738-0.379-1.165
			c0.152-0.3,0.457-0.473,0.771-0.473c0.133,0,0.268,0.03,0.393,0.095C11.61,20.196,11.78,20.718,11.563,21.144z M14.331,24.107
			c0.152-0.301,0.455-0.473,0.771-0.474c0.133,0,0.268,0.031,0.393,0.095c0.426,0.217,0.596,0.739,0.379,1.165
			c-0.152,0.3-0.457,0.473-0.773,0.473c-0.131,0-0.266-0.03-0.391-0.095C14.282,25.055,14.112,24.534,14.331,24.107z M13.261,21.143
			c0.133,0,0.268,0.03,0.393,0.095c0.428,0.216,0.596,0.737,0.379,1.164c-0.152,0.3-0.457,0.474-0.771,0.474
			c-0.133,0-0.266-0.031-0.393-0.095c-0.426-0.218-0.596-0.739-0.379-1.165C12.642,21.314,12.946,21.143,13.261,21.143z"/>
	</g>
</g>
<g id="nyt_x5F_exporter_x5F_info" style="display:none;">
</g>
</svg>
