<?xml version="1.0" encoding="utf-8"?>
<!-- Generator: Adobe Illustrator 16.0.0, SVG Export Plug-In . SVG Version: 6.00 Build 0)  -->
<!DOCTYPE svg PUBLIC "-//W3C//DTD SVG 1.1//EN" "http://www.w3.org/Graphics/SVG/1.1/DTD/svg11.dtd">
<svg version="1.1" xmlns="http://www.w3.org/2000/svg" xmlns:xlink="http://www.w3.org/1999/xlink" x="0px" y="0px"
	 width="24.083px" height="21.895px" viewBox="97.461 225.125 24.083 21.895" enable-background="new 97.461 225.125 24.083 21.895"
	 xml:space="preserve">
<g id="Layer_1">
	<g>
		<path fill="#FFFFFF" d="M119.527,229.668c-0.91,0-1.818,0.908-3.635,0.908c-1.818,0-2.727-0.908-3.635-0.908
			c-0.428,0-0.908,0.453-0.908,0.908v6.359c0,2.014,0.908,4.543,4.543,4.543s4.543-2.529,4.543-4.543v-6.359
			C120.436,230.121,119.955,229.668,119.527,229.668z"/>
		<path fill="#FFFFFF" d="M110.441,232.564v-1.988c0-0.832,0.332-1.528,0.908-1.816c0.908-0.455,1.275-0.271,1.816,0
			c0.908,0.454,0.908,0.454,0.908,0.454v-3.181c0-0.454-0.48-0.908-0.908-0.908c-0.908,0-1.816,0.908-3.635,0.908
			c-1.816,0-2.725-0.908-3.633-0.908c-0.43,0-0.91,0.453-0.91,0.908v6.359c0,0.809,0.152,1.697,0.562,2.475
			c0.162,0.067,0.32,0.139,0.479,0.219c1.1,0.561,2.031,1.168,2.791,1.814c0.225,0.023,0.461,0.035,0.711,0.035
			c0.326,0,0.625-0.016,0.91-0.056v-2.669"/>
		<path fill="#FFFFFF" d="M105.732,235.67c-0.939-0.479-1.881-0.67-2.754-0.67c-1.996,0-3.633,0.999-4.07,1.858
			c-0.629,1.235-0.484,2.476,0.752,3.104c1.234,0.629,1.693,1.251,1.223,2.178c-0.629,1.234-0.174,2.632,1.061,3.261
			c1.441,0.733,2.746,1.048,3.877,1.048c2.018,0,3.484-0.998,4.188-2.383C111.895,240.362,109.438,237.556,105.732,235.67z"/>
	</g>
	<path fill="#231F20" d="M119.537,229.668c-0.91,0-1.818,0.908-3.635,0.908c-1.818,0-2.727-0.908-3.635-0.908
		c-0.428,0-0.908,0.453-0.908,0.908v6.359c0,2.014,0.908,4.543,4.543,4.543s4.543-2.529,4.543-4.543v-6.359
		C120.445,230.121,119.965,229.668,119.537,229.668z M112.723,233.983c0-0.628,0.508-1.136,1.135-1.136s1.137,0.508,1.137,1.136
		c0,0.627-0.51,1.136-1.137,1.136S112.723,234.61,112.723,233.983z M115.902,239.662c-2.271,0-2.727-1.817-2.727-1.817h5.451
		C118.627,237.845,118.174,239.662,115.902,239.662z M117.945,235.119c-0.627,0-1.135-0.509-1.135-1.136
		c0-0.628,0.508-1.136,1.135-1.136s1.137,0.508,1.137,1.136C119.082,234.61,118.572,235.119,117.945,235.119z"/>
	<path fill="#231F20" d="M108.83,236.9c0.225,0.023,0.461,0.035,0.711,0.035c0.326,0,0.625-0.016,0.91-0.056v-2.669h-3.635
		c0,0,0.453-1.817,2.725-1.817c0.455,0,0.633,0.067,0.91,0.171v-1.988c0-0.832,0.332-1.528,0.908-1.816
		c0.908-0.455,1.275-0.271,1.816,0c0.908,0.454,0.908,0.454,0.908,0.454v-3.181c0-0.454-0.48-0.908-0.908-0.908
		c-0.908,0-1.816,0.908-3.635,0.908c-1.816,0-2.725-0.908-3.633-0.908l0,0c-0.43,0-0.91,0.453-0.91,0.908v6.359
		c0,0.809,0.152,1.697,0.562,2.475c0.162,0.067,0.32,0.139,0.479,0.219C107.139,235.646,108.07,236.254,108.83,236.9z
		 M107.498,228.305c0.627,0,1.135,0.508,1.135,1.136c0,0.627-0.508,1.136-1.135,1.136c-0.629,0-1.137-0.509-1.137-1.136
		C106.361,228.812,106.869,228.305,107.498,228.305z"/>
	<path fill="#231F20" d="M102.988,235c-1.996,0-3.633,0.999-4.07,1.858c-0.629,1.235-0.484,2.476,0.752,3.104
		c1.234,0.629,1.693,1.251,1.223,2.178c-0.629,1.234-0.174,2.632,1.061,3.261c1.441,0.733,2.746,1.048,3.877,1.048
		c2.018,0,3.484-0.998,4.188-2.383c1.887-3.704-0.57-6.511-4.275-8.396C104.803,235.191,103.861,235,102.988,235z M101.617,238.427
		c-0.152,0.302-0.457,0.474-0.773,0.474c-0.131,0-0.266-0.03-0.391-0.094c-0.428-0.218-0.596-0.738-0.379-1.165
		c0.152-0.3,0.455-0.474,0.771-0.474c0.133,0,0.266,0.031,0.393,0.096C101.664,237.48,101.834,238.001,101.617,238.427z
		 M103.98,243.712c-0.184,0.36-0.549,0.568-0.928,0.568c-0.16,0-0.32-0.036-0.471-0.114c-0.512-0.26-0.715-0.885-0.455-1.397
		c0.184-0.36,0.549-0.567,0.928-0.567c0.158,0,0.32,0.036,0.471,0.113C104.037,242.575,104.24,243.201,103.98,243.712z
		 M104.721,237.676c-0.152,0.301-0.457,0.473-0.771,0.473c-0.133,0-0.268-0.029-0.393-0.094c-0.426-0.218-0.596-0.738-0.379-1.165
		c0.152-0.3,0.457-0.473,0.771-0.473c0.133,0,0.268,0.03,0.393,0.095C104.768,236.729,104.938,237.25,104.721,237.676z
		 M107.488,240.64c0.152-0.301,0.457-0.474,0.771-0.474c0.133,0,0.268,0.031,0.393,0.095c0.426,0.217,0.596,0.739,0.379,1.165
		c-0.152,0.3-0.457,0.473-0.771,0.473c-0.133,0-0.268-0.03-0.393-0.095C107.439,241.587,107.27,241.066,107.488,240.64z
		 M106.42,237.674c0.131,0,0.266,0.031,0.393,0.096c0.426,0.216,0.596,0.738,0.377,1.164c-0.152,0.3-0.457,0.473-0.771,0.473
		c-0.133,0-0.266-0.03-0.393-0.094c-0.426-0.218-0.596-0.739-0.379-1.166C105.801,237.847,106.104,237.674,106.42,237.674z"/>
</g>
<g id="nyt_x5F_exporter_x5F_info" display="none">
</g>
</svg>
