<?xml version="1.0" encoding="utf-8"?>
<!-- Generator: Adobe Illustrator 16.0.0, SVG Export Plug-In . SVG Version: 6.00 Build 0)  -->
<!DOCTYPE svg PUBLIC "-//W3C//DTD SVG 1.1//EN" "http://www.w3.org/Graphics/SVG/1.1/DTD/svg11.dtd">
<svg version="1.1" xmlns="http://www.w3.org/2000/svg" xmlns:xlink="http://www.w3.org/1999/xlink" x="0px" y="0px"
	 width="28.833px" height="21px" viewBox="-81.625 216.768 28.833 21" enable-background="new -81.625 216.768 28.833 21"
	 xml:space="preserve">
<g id="Layer_1">
	<g>
		<path fill="#FFFFFF" d="M-70.225,219.365c-4.603,0-8.348,3.744-8.348,8.348c0,1.836,0.587,3.579,1.699,5.041
			c0.909,1.194,2.138,2.131,3.518,2.694h-5.581c-0.169,0-0.306,0.138-0.306,0.307c0,0.168,0.137,0.306,0.306,0.306h8.711
			c4.603,0,8.348-3.745,8.348-8.348C-61.877,223.109-65.622,219.365-70.225,219.365z"/>
		<g>
			<g>
				<g>
					<path d="M-70.225,219.504c-4.526,0-8.209,3.683-8.209,8.209c0,3.722,2.491,6.871,5.892,7.874h-6.395
						c-0.093,0-0.168,0.075-0.168,0.168c0,0.092,0.075,0.167,0.168,0.167h8.711c4.527,0,8.209-3.683,8.209-8.209
						S-65.698,219.504-70.225,219.504z M-70.225,235.587c-4.342,0-7.874-3.532-7.874-7.874s3.532-7.874,7.874-7.874
						s7.874,3.532,7.874,7.874S-65.883,235.587-70.225,235.587z"/>
					<path d="M-70.225,236.061h-8.711c-0.169,0-0.306-0.138-0.306-0.306c0-0.169,0.137-0.307,0.306-0.307h5.581
						c-1.38-0.563-2.609-1.5-3.518-2.694c-1.111-1.462-1.699-3.205-1.699-5.041c0-4.604,3.745-8.348,8.348-8.348
						s8.348,3.744,8.348,8.348C-61.877,232.315-65.622,236.061-70.225,236.061z M-78.936,235.726c-0.016,0-0.029,0.013-0.029,0.029
						c0,0.016,0.013,0.028,0.029,0.028h8.711c4.45,0,8.071-3.62,8.071-8.07s-3.621-8.07-8.071-8.07s-8.07,3.62-8.07,8.07
						c0,1.775,0.568,3.46,1.642,4.873c1.04,1.367,2.514,2.386,4.15,2.868l0.922,0.271H-78.936z M-70.225,235.726
						c-4.418,0-8.013-3.595-8.013-8.013s3.595-8.013,8.013-8.013c4.418,0,8.013,3.595,8.013,8.013S-65.806,235.726-70.225,235.726z
						 M-70.225,219.978c-4.265,0-7.735,3.47-7.735,7.735s3.47,7.735,7.735,7.735s7.735-3.47,7.735-7.735
						S-65.959,219.978-70.225,219.978z"/>
				</g>
				<g>
					<path d="M-68.717,227.713c0-0.831-0.676-1.508-1.508-1.508c-0.831,0-1.508,0.677-1.508,1.508s0.677,1.508,1.508,1.508
						C-69.393,229.221-68.717,228.544-68.717,227.713z M-71.397,227.713c0-0.646,0.526-1.173,1.173-1.173
						c0.647,0,1.173,0.526,1.173,1.173s-0.526,1.173-1.173,1.173C-70.871,228.886-71.397,228.359-71.397,227.713z"/>
					<path d="M-70.225,229.267c-0.857,0-1.554-0.697-1.554-1.554c0-0.857,0.697-1.554,1.554-1.554s1.554,0.696,1.554,1.554
						C-68.67,228.569-69.368,229.267-70.225,229.267z M-70.225,226.251c-0.806,0-1.461,0.656-1.461,1.462s0.656,1.462,1.461,1.462
						c0.806,0,1.462-0.656,1.462-1.462S-69.418,226.251-70.225,226.251z M-70.225,228.932c-0.672,0-1.219-0.547-1.219-1.219
						s0.547-1.219,1.219-1.219c0.672,0,1.219,0.547,1.219,1.219S-69.552,228.932-70.225,228.932z M-70.225,226.586
						c-0.621,0-1.126,0.506-1.126,1.127s0.505,1.127,1.126,1.127s1.126-0.506,1.126-1.127S-69.604,226.586-70.225,226.586z"/>
				</g>
				<g>
					<path d="M-70.225,220.844c-1.201,0-2.178,0.978-2.178,2.178c0,1.201,0.977,2.179,2.178,2.179c1.201,0,2.178-0.978,2.178-2.179
						C-68.046,221.821-69.023,220.844-70.225,220.844z M-68.587,223.863c-1.04-0.442-2.235-0.441-3.275,0
						c-0.051-0.099-0.094-0.202-0.127-0.311c1.12-0.475,2.409-0.478,3.529-0.002C-68.492,223.659-68.536,223.764-68.587,223.863z
						 M-70.225,224.865c-0.591,0-1.117-0.281-1.454-0.715c0.926-0.378,1.981-0.378,2.908,0
						C-69.108,224.584-69.633,224.865-70.225,224.865z M-68.393,223.218c-1.167-0.476-2.497-0.474-3.664,0.001
						c-0.007-0.064-0.011-0.13-0.011-0.197c0-1.016,0.827-1.843,1.843-1.843s1.843,0.827,1.843,1.843
						C-68.382,223.088-68.386,223.153-68.393,223.218z"/>
					<path d="M-70.225,225.246c-1.226,0-2.224-0.998-2.224-2.225c0-1.226,0.998-2.224,2.224-2.224c1.227,0,2.224,0.998,2.224,2.224
						C-68,224.248-68.998,225.246-70.225,225.246z M-70.225,220.89c-1.175,0-2.131,0.957-2.131,2.132
						c0,1.176,0.956,2.132,2.131,2.132c1.176,0,2.132-0.956,2.132-2.132C-68.093,221.847-69.049,220.89-70.225,220.89z
						 M-70.225,224.911c-0.585,0-1.128-0.267-1.49-0.732l-0.038-0.049l0.057-0.022c0.466-0.19,0.961-0.287,1.471-0.287
						c0.51,0,1.005,0.097,1.472,0.287l0.057,0.022l-0.038,0.049C-69.096,224.645-69.639,224.911-70.225,224.911z M-71.603,224.17
						c0.343,0.413,0.842,0.648,1.378,0.648s1.035-0.235,1.379-0.648c-0.439-0.171-0.902-0.257-1.379-0.257
						C-70.702,223.913-71.165,223.999-71.603,224.17z M-71.883,223.923l-0.02-0.038c-0.055-0.106-0.099-0.214-0.13-0.319
						l-0.012-0.039l0.038-0.017c0.558-0.236,1.176-0.36,1.788-0.36c0.619,0,1.217,0.12,1.778,0.358l0.038,0.017l-0.012,0.039
						c-0.032,0.106-0.076,0.215-0.13,0.321l-0.02,0.038l-0.04-0.018c-0.511-0.217-1.056-0.327-1.619-0.327
						c-0.563,0-1.108,0.11-1.62,0.328L-71.883,223.923z M-71.932,223.579c0.025,0.074,0.056,0.15,0.092,0.226
						c0.512-0.212,1.055-0.319,1.616-0.319c0.561,0,1.104,0.107,1.615,0.318c0.037-0.075,0.068-0.151,0.092-0.228
						c-0.538-0.222-1.11-0.335-1.703-0.335C-70.805,223.241-71.396,223.358-71.932,223.579z M-72.096,223.285l-0.006-0.062
						c-0.008-0.069-0.012-0.136-0.012-0.202c0-1.041,0.848-1.889,1.889-1.889c1.042,0,1.889,0.848,1.889,1.889
						c0,0.065-0.003,0.131-0.011,0.201l-0.007,0.061l-0.057-0.022c-0.574-0.234-1.184-0.353-1.811-0.353
						c-0.629,0-1.241,0.119-1.818,0.354L-72.096,223.285z M-70.225,221.226c-0.991,0-1.796,0.806-1.796,1.796
						c0,0.044,0.001,0.087,0.005,0.132c0.571-0.224,1.175-0.338,1.795-0.338c0.619,0,1.22,0.113,1.788,0.336
						c0.003-0.044,0.005-0.087,0.005-0.13C-68.428,222.031-69.234,221.226-70.225,221.226z"/>
				</g>
				<g>
					<path d="M-70.225,230.226c-1.201,0-2.178,0.978-2.178,2.179c0,1.2,0.977,2.178,2.178,2.178c1.201,0,2.178-0.978,2.178-2.178
						C-68.046,231.203-69.023,230.226-70.225,230.226z M-70.225,230.561c0.591,0,1.116,0.281,1.454,0.715
						c-0.929,0.377-1.98,0.378-2.907,0C-71.341,230.842-70.815,230.561-70.225,230.561z M-68.459,231.875
						c-1.12,0.475-2.409,0.471-3.529-0.003c0.033-0.108,0.076-0.212,0.126-0.311c0.518,0.221,1.066,0.34,1.637,0.34
						c0.571,0,1.119-0.119,1.637-0.34C-68.536,231.661-68.493,231.766-68.459,231.875z M-70.225,234.247
						c-1.016,0-1.843-0.827-1.843-1.843c0-0.067,0.004-0.133,0.011-0.198c0.581,0.237,1.194,0.365,1.832,0.365
						c0.636,0,1.25-0.126,1.832-0.364c0.007,0.065,0.011,0.13,0.011,0.197C-68.382,233.42-69.208,234.247-70.225,234.247z"/>
					<path d="M-70.225,234.628c-1.226,0-2.224-0.998-2.224-2.224c0-1.227,0.998-2.225,2.224-2.225c1.227,0,2.224,0.998,2.224,2.225
						C-68,233.63-68.998,234.628-70.225,234.628z M-70.225,230.271c-1.175,0-2.131,0.957-2.131,2.133
						c0,1.175,0.956,2.131,2.131,2.131c1.176,0,2.132-0.956,2.132-2.131C-68.093,231.229-69.049,230.271-70.225,230.271z
						 M-70.225,234.293c-1.042,0-1.889-0.848-1.889-1.889c0-0.065,0.004-0.134,0.012-0.203l0.006-0.061l0.057,0.022
						c0.587,0.24,1.198,0.362,1.814,0.362c0.619,0,1.229-0.121,1.815-0.36l0.057-0.023l0.006,0.061
						c0.007,0.071,0.011,0.138,0.011,0.202C-68.335,233.445-69.183,234.293-70.225,234.293z M-72.016,232.272
						c-0.003,0.045-0.005,0.089-0.005,0.132c0,0.99,0.806,1.796,1.796,1.796s1.797-0.806,1.797-1.796
						c0-0.043-0.002-0.086-0.005-0.131c-0.578,0.229-1.181,0.344-1.792,0.344C-70.833,232.617-71.435,232.501-72.016,232.272z
						 M-70.218,232.275c-0.621,0-1.223-0.121-1.789-0.361l-0.038-0.016l0.012-0.04c0.033-0.107,0.077-0.215,0.13-0.318l0.02-0.038
						l0.04,0.017c0.522,0.224,1.066,0.337,1.619,0.337s1.097-0.113,1.619-0.337l0.04-0.017l0.02,0.038
						c0.054,0.104,0.098,0.213,0.131,0.321l0.012,0.04l-0.039,0.016C-69.002,232.155-69.6,232.275-70.218,232.275z M-71.931,231.846
						c0.543,0.224,1.119,0.337,1.713,0.337c0.591,0,1.164-0.112,1.701-0.334c-0.025-0.077-0.056-0.153-0.093-0.228
						c-0.521,0.217-1.065,0.326-1.615,0.326c-0.551,0-1.094-0.109-1.615-0.326C-71.875,231.694-71.906,231.77-71.931,231.846z
						 M-70.226,231.604c-0.509,0-1.003-0.096-1.47-0.286l-0.057-0.023l0.038-0.048c0.362-0.466,0.905-0.732,1.49-0.732
						s1.128,0.267,1.49,0.732l0.038,0.048l-0.057,0.023C-69.222,231.508-69.717,231.604-70.226,231.604z M-71.603,231.256
						c0.438,0.17,0.901,0.257,1.377,0.257s0.939-0.087,1.379-0.257c-0.344-0.413-0.843-0.648-1.378-0.648
						S-71.259,230.843-71.603,231.256z"/>
				</g>
				<g>
					<path d="M-65.534,225.535c-1.201,0-2.178,0.977-2.178,2.178s0.977,2.178,2.178,2.178c1.201,0,2.178-0.977,2.178-2.178
						S-64.333,225.535-65.534,225.535z M-66.371,229.353c0.221-0.519,0.335-1.07,0.335-1.64c0-0.57-0.118-1.119-0.339-1.638
						c0.099-0.051,0.203-0.095,0.312-0.127c0.237,0.559,0.362,1.15,0.362,1.765c0,0.612-0.121,1.207-0.358,1.766
						C-66.168,229.445-66.271,229.403-66.371,229.353z M-67.376,227.713c0-0.592,0.281-1.117,0.715-1.454
						c0.189,0.461,0.29,0.948,0.29,1.454c0,0.505-0.099,0.993-0.288,1.455C-67.095,228.831-67.376,228.305-67.376,227.713z
						 M-65.534,229.556c-0.065,0-0.13-0.004-0.193-0.011c0.237-0.582,0.361-1.197,0.361-1.832c0-0.637-0.127-1.251-0.364-1.832
						c0.064-0.007,0.13-0.011,0.197-0.011c1.016,0,1.843,0.826,1.843,1.843C-63.691,228.729-64.518,229.556-65.534,229.556z"/>
					<path d="M-65.534,229.937c-1.226,0-2.224-0.997-2.224-2.224s0.998-2.225,2.224-2.225c1.227,0,2.224,0.998,2.224,2.225
						S-64.307,229.937-65.534,229.937z M-65.534,225.581c-1.175,0-2.131,0.956-2.131,2.132s0.956,2.132,2.131,2.132
						c1.176,0,2.132-0.956,2.132-2.132S-64.358,225.581-65.534,225.581z M-65.534,229.602c-0.064,0-0.131-0.003-0.198-0.01
						l-0.062-0.007l0.023-0.057c0.237-0.583,0.358-1.194,0.358-1.815c0-0.617-0.122-1.229-0.361-1.814l-0.023-0.058l0.062-0.006
						c0.07-0.008,0.138-0.011,0.202-0.011c1.042,0,1.889,0.847,1.889,1.889C-63.645,228.754-64.492,229.602-65.534,229.602z
						 M-65.661,229.505c0.043,0.003,0.086,0.005,0.127,0.005c0.991,0,1.797-0.807,1.797-1.797c0-0.991-0.806-1.797-1.797-1.797
						c-0.042,0-0.085,0.002-0.131,0.005c0.229,0.58,0.345,1.183,0.345,1.792C-65.32,228.326-65.435,228.929-65.661,229.505z
						 M-66.033,229.534l-0.04-0.012c-0.107-0.032-0.215-0.075-0.32-0.129l-0.038-0.02l0.017-0.039
						c0.22-0.516,0.331-1.062,0.331-1.622c0-0.553-0.113-1.098-0.335-1.62l-0.017-0.039l0.038-0.02
						c0.106-0.055,0.213-0.099,0.319-0.13l0.04-0.012l0.016,0.038c0.243,0.571,0.366,1.171,0.366,1.782
						c0,0.617-0.122,1.218-0.362,1.783L-66.033,229.534z M-66.312,229.33c0.075,0.036,0.15,0.067,0.226,0.092
						c0.224-0.543,0.338-1.118,0.338-1.709c0-0.585-0.116-1.159-0.343-1.708c-0.075,0.024-0.15,0.056-0.226,0.092
						c0.216,0.521,0.326,1.065,0.326,1.616C-65.99,228.271-66.098,228.815-66.312,229.33z M-66.64,229.242l-0.048-0.037
						c-0.467-0.362-0.735-0.906-0.735-1.492c0-0.585,0.267-1.129,0.733-1.49l0.048-0.038l0.023,0.057
						c0.194,0.476,0.293,0.971,0.293,1.472c0,0.504-0.099,1-0.292,1.473L-66.64,229.242z M-66.681,226.334
						c-0.414,0.344-0.649,0.843-0.649,1.379c0,0.537,0.236,1.037,0.651,1.381c0.174-0.445,0.262-0.909,0.262-1.381
						C-66.417,227.244-66.506,226.781-66.681,226.334z"/>
				</g>
				<g>
					<path d="M-74.916,225.535c-1.201,0-2.178,0.977-2.178,2.178s0.977,2.178,2.178,2.178c1.201,0,2.178-0.977,2.178-2.178
						S-73.714,225.535-74.916,225.535z M-74.09,229.328c0.004,0.009,0.012,0.014,0.018,0.021c-0.1,0.052-0.206,0.095-0.315,0.128
						c-0.238-0.559-0.361-1.152-0.361-1.765c0-0.614,0.126-1.206,0.363-1.765c0.108,0.033,0.212,0.076,0.311,0.127
						c-0.221,0.519-0.338,1.067-0.338,1.638C-74.413,228.272-74.304,228.816-74.09,229.328z M-76.758,227.713
						c0-1.017,0.827-1.843,1.843-1.843c0.067,0,0.133,0.004,0.197,0.011c-0.237,0.581-0.365,1.195-0.365,1.832
						c0,0.636,0.125,1.25,0.363,1.832c-0.064,0.007-0.129,0.011-0.195,0.011C-75.932,229.556-76.758,228.729-76.758,227.713z
						 M-73.792,229.17c-0.189-0.463-0.286-0.952-0.286-1.457c0-0.506,0.101-0.993,0.29-1.454c0.434,0.337,0.715,0.863,0.715,1.454
						C-73.073,228.306-73.355,228.833-73.792,229.17z"/>
					<path d="M-74.916,229.937c-1.227,0-2.224-0.997-2.224-2.224s0.998-2.225,2.224-2.225s2.224,0.998,2.224,2.225
						S-73.689,229.937-74.916,229.937z M-74.916,225.581c-1.175,0-2.132,0.956-2.132,2.132s0.957,2.132,2.132,2.132
						c1.176,0,2.132-0.956,2.132-2.132S-73.74,225.581-74.916,225.581z M-74.916,229.602c-1.042,0-1.889-0.848-1.889-1.889
						c0-1.042,0.848-1.889,1.889-1.889c0.065,0,0.133,0.003,0.203,0.011l0.061,0.007l-0.023,0.057
						c-0.24,0.587-0.361,1.197-0.361,1.814c0,0.619,0.121,1.229,0.359,1.815l0.023,0.057l-0.062,0.007
						C-74.787,229.599-74.853,229.602-74.916,229.602z M-74.916,225.916c-0.991,0-1.796,0.806-1.796,1.797
						c0,0.99,0.806,1.797,1.796,1.797c0.042,0,0.084-0.002,0.129-0.005c-0.228-0.578-0.343-1.181-0.343-1.792
						c0-0.608,0.116-1.211,0.345-1.792C-74.829,225.918-74.873,225.916-74.916,225.916z M-74.414,229.534l-0.017-0.038
						c-0.241-0.569-0.364-1.169-0.364-1.783c0-0.61,0.124-1.21,0.367-1.782l0.016-0.038l0.04,0.012
						c0.105,0.032,0.213,0.075,0.318,0.13l0.039,0.02l-0.017,0.039c-0.222,0.521-0.335,1.066-0.335,1.62
						c0,0.553,0.107,1.089,0.318,1.594c0.005,0.005,0.011,0.011,0.015,0.018l0.028,0.043l-0.045,0.023
						c-0.104,0.054-0.212,0.098-0.323,0.131L-74.414,229.534z M-74.358,226.006c-0.228,0.549-0.343,1.123-0.343,1.707
						c0,0.588,0.115,1.162,0.34,1.708c0.076-0.025,0.15-0.055,0.222-0.09c-0.212-0.514-0.32-1.058-0.32-1.618
						c0-0.552,0.109-1.095,0.326-1.616C-74.208,226.061-74.284,226.03-74.358,226.006z M-73.811,229.243l-0.023-0.056
						c-0.192-0.471-0.29-0.967-0.29-1.475c0-0.501,0.099-0.996,0.293-1.472l0.023-0.057l0.048,0.038
						c0.466,0.361,0.733,0.905,0.733,1.49c0,0.587-0.269,1.132-0.737,1.493L-73.811,229.243z M-73.768,226.334
						c-0.175,0.446-0.264,0.91-0.264,1.379c0,0.475,0.088,0.939,0.26,1.382c0.416-0.344,0.653-0.844,0.653-1.382
						C-73.119,227.177-73.354,226.678-73.768,226.334z"/>
				</g>
			</g>
		</g>
		<g>
			<path fill="#FFFFFF" d="M-55.63,224.315c-0.011-0.009-0.024-0.016-0.035-0.023c0.236-0.442,0.335-0.963,0.26-1.395
				c-0.045-0.259-0.15-0.482-0.3-0.66c0.195-0.355,0.216-0.74,0.142-1.06c-0.178-0.755-0.905-1.345-1.656-1.345
				c-0.257,0-0.501,0.066-0.72,0.191c-0.292-0.272-0.688-0.439-1.126-0.439c-0.09,0-0.178,0.008-0.264,0.023
				c-0.041-0.073-0.086-0.138-0.131-0.191c-0.292-0.355-0.749-0.551-1.287-0.551c-0.365,0-0.742,0.092-1.057,0.255
				c-0.422-0.611-1-0.945-1.66-0.945c-0.309,0-0.62,0.077-0.924,0.229c-0.991,0.495-1.24,1.345-1.201,2.086
				c-0.405,0.105-0.766,0.382-0.969,0.764c-0.161,0.303-0.216,0.642-0.171,0.988c-0.588,0.188-1.055,0.638-1.141,1.16
				c-0.051,0.313,0.037,0.688,0.365,0.984c-0.202,0.208-0.288,0.466-0.219,0.751l1.345,5.636c-0.807,0.429-1.274,1.059-1.274,1.81
				c0,0.062,0.004,0.142,0.008,0.197c-0.278,0.195-0.508,0.484-0.645,0.817c-0.251,0.606-0.135,1.261,0.302,1.7
				c0.304,0.305,0.75,0.477,1.259,0.477c0.396,0,0.787-0.105,1.132-0.292c0.126,0.324,0.358,0.568,0.675,0.699
				c0.354,0.146,0.778,0.135,1.12-0.011c0.167,0.203,0.429,0.382,0.727,0.472c0.105,0.032,0.262,0.066,0.448,0.066
				c0.395,0,0.922-0.156,1.368-0.821c0.054-0.081,0.092-0.174,0.125-0.272l3.422-1.711c0.228-0.114,0.393-0.322,0.45-0.57
				l1.93-8.149C-55.257,224.859-55.373,224.523-55.63,224.315z"/>
			<path d="M-55.63,224.315c-0.011-0.009-0.024-0.016-0.035-0.023c0.236-0.442,0.335-0.963,0.26-1.395
				c-0.045-0.259-0.15-0.482-0.3-0.66c0.195-0.355,0.216-0.74,0.142-1.06c-0.178-0.755-0.905-1.345-1.656-1.345
				c-0.257,0-0.501,0.066-0.72,0.191c-0.292-0.272-0.688-0.439-1.126-0.439l0,0c-0.09,0-0.178,0.008-0.264,0.023
				c-0.041-0.073-0.086-0.138-0.131-0.191c-0.292-0.355-0.749-0.551-1.287-0.551l0,0c-0.365,0-0.742,0.092-1.057,0.255
				c-0.422-0.611-1-0.945-1.66-0.945c-0.309,0-0.62,0.077-0.924,0.229c-0.991,0.495-1.24,1.345-1.201,2.086
				c-0.405,0.105-0.766,0.382-0.969,0.764c-0.161,0.303-0.216,0.642-0.171,0.988c-0.588,0.188-1.055,0.638-1.141,1.16
				c-0.051,0.313,0.037,0.688,0.365,0.984c-0.202,0.208-0.288,0.466-0.219,0.751l1.345,5.636l0,0
				c-0.807,0.429-1.274,1.059-1.274,1.81c0,0.062,0.004,0.142,0.008,0.197c-0.278,0.195-0.508,0.484-0.645,0.817
				c-0.251,0.606-0.135,1.261,0.302,1.7c0.304,0.305,0.75,0.477,1.259,0.477c0.396,0,0.787-0.105,1.132-0.292
				c0.126,0.324,0.358,0.568,0.675,0.699c0.354,0.146,0.778,0.135,1.12-0.011c0.167,0.203,0.429,0.382,0.727,0.472
				c0.105,0.032,0.262,0.066,0.448,0.066c0.395,0,0.922-0.156,1.368-0.821c0.054-0.081,0.092-0.174,0.125-0.272l3.422-1.711
				c0.228-0.114,0.393-0.322,0.45-0.57l1.93-8.149C-55.257,224.859-55.373,224.523-55.63,224.315z M-66.89,224.984l1.376,0.66
				l1.162,5.808c-0.313-0.341-0.714-0.575-1.16-0.648l0,0L-66.89,224.984z M-61.797,235.528c-0.271,0.403-0.607,0.586-0.976,0.525
				c-0.328-0.054-0.56-0.281-0.579-0.348c0-0.131-0.079-0.246-0.2-0.298c-0.12-0.049-0.259-0.021-0.349,0.071
				c-0.144,0.144-0.498,0.223-0.776,0.106c-0.26-0.106-0.391-0.355-0.391-0.737c0-0.178-0.144-0.322-0.321-0.322
				c-0.178,0-0.322,0.145-0.322,0.322c0-0.018,0.002-0.036,0.004-0.054c-0.311,0.228-0.684,0.337-1.025,0.337
				c-0.321,0-0.615-0.097-0.804-0.285c-0.606-0.607,0-1.716,0.858-1.716c-0.607,0-0.429-1.716,0.858-1.716
				c0.459,0,0.854,0.247,1.124,0.624c-0.375,0.423-0.558,0.952-0.57,0.989c-0.056,0.169,0.034,0.352,0.204,0.407
				s0.352-0.034,0.408-0.204c0.092-0.276,0.469-1.065,0.982-1.065c0.538,0,0.815,0.266,0.952,0.486
				c0.212,0.346,0.231,0.824,0.047,1.192c-0.049,0.099-0.045,0.219,0.015,0.313c0.058,0.097,0.161,0.154,0.272,0.154
				c0.277,0,0.442,0.199,0.532,0.367C-61.69,234.99-61.69,235.37-61.797,235.528z M-61.958,232.846
				c-0.045-0.187-0.116-0.366-0.216-0.529c-0.204-0.33-0.498-0.562-0.856-0.687l-0.416-4.992l1.488,0.714V232.846z M-60.243,234.205
				l-0.858,0.429v-7.282l1.488-0.714L-60.243,234.205z M-58.098,233.133l-1.047,0.523l1.69-8.028l-0.322,0.128l1.608-0.771
				L-58.098,233.133z M-56.332,224.144c-0.071,0.013-0.142,0.034-0.208,0.066l-2.385,1.146l-2.605,0.986l-5.147-2.215
				c-1.147-0.382-0.334-1.332,0.539-1.332c0.107,0,0.214,0.015,0.319,0.045c-0.671-1.008-0.028-1.752,0.588-1.752
				c0.169,0,0.338,0.058,0.476,0.18c0,0-0.731-1.598,0.652-2.288c0.214-0.106,0.429-0.16,0.637-0.16
				c0.624,0,1.186,0.482,1.507,1.447c0-0.432,0.626-0.757,1.208-0.757c0.577,0,1.109,0.321,0.937,1.186
				c0.163-0.328,0.453-0.468,0.749-0.468c0.476,0,0.967,0.367,0.967,0.896c0.233-0.465,0.56-0.647,0.879-0.647
				c0.858,0,1.658,1.309,0.408,1.935C-55.823,222.411-55.892,223.507-56.332,224.144z M-58.231,222.396
				c-0.392-0.147-0.817-0.117-1.207,0.073c-0.071-0.529-0.397-0.866-0.753-1.019c-0.369-0.158-0.789-0.146-1.124,0.002
				c-0.266-0.682-0.967-1.081-1.501-1.081c-0.659,0-1.608,0.573-1.608,1.608c0,0.052,0.013,0.102,0.037,0.144
				c-0.513,0.129-0.895,0.593-0.895,1.144c0,0.178,0.144,0.321,0.322,0.321s0.322-0.144,0.322-0.321c0-0.296,0.24-0.536,0.536-0.536
				s0.536,0.24,0.536,0.536c0,0.023-0.004,0.045-0.009,0.081c-0.017,0.123,0.037,0.245,0.142,0.313
				c0.103,0.068,0.238,0.07,0.343,0.007c0.088-0.054,0.18-0.08,0.274-0.08c0.296,0,0.536,0.24,0.536,0.536
				c0,0.179,0.144,0.322,0.321,0.322c0.178,0,0.322-0.144,0.322-0.322c0-0.649-0.529-1.179-1.179-1.179
				c-0.049,0-0.099,0.004-0.148,0.01c-0.112-0.409-0.44-0.725-0.854-0.827c0.023-0.045,0.036-0.092,0.036-0.146
				c0-0.688,0.682-0.966,0.965-0.966c0.328,0,0.965,0.36,0.965,1.02c0,0.144,0.097,0.27,0.234,0.309
				c0.139,0.038,0.285-0.02,0.362-0.142c0.131-0.21,0.517-0.288,0.811-0.161c0.345,0.148,0.459,0.517,0.319,1.036
				c-0.039,0.144,0.028,0.296,0.159,0.366c0.13,0.071,0.293,0.041,0.392-0.068c0.393-0.441,0.832-0.484,1.115-0.378
				c0.294,0.112,0.467,0.393,0.467,0.753c0,0.178,0.144,0.322,0.322,0.322c0.178,0,0.322-0.145,0.322-0.322
				C-57.348,223.123-57.687,222.604-58.231,222.396z"/>
		</g>
	</g>
</g>
<g id="nyt_x5F_exporter_x5F_info" display="none">
</g>
</svg>
