<?xml version="1.0" encoding="utf-8"?>
<!-- Generator: Adobe Illustrator 16.0.0, SVG Export Plug-In . SVG Version: 6.00 Build 0)  -->
<!DOCTYPE svg PUBLIC "-//W3C//DTD SVG 1.1//EN" "http://www.w3.org/Graphics/SVG/1.1/DTD/svg11.dtd">
<svg version="1.1" xmlns="http://www.w3.org/2000/svg" xmlns:xlink="http://www.w3.org/1999/xlink" x="0px" y="0px"
	 width="19.333px" height="17.167px" viewBox="30.874 220.603 19.333 17.167" enable-background="new 30.874 220.603 19.333 17.167"
	 xml:space="preserve">
<g id="Layer_1">
	<g>
		<path fill="#FFFFFF" d="M32.006,235.094c0,0.677,0.544,1.225,1.217,1.225h14.235c0.671,0,1.216-0.548,1.216-1.225H32.006z"/>
		<path fill="#FFFFFF" d="M38.219,225.23l0.007-0.009c0,0,1.421-0.44,0.872-2.091c-0.396-1.188-0.066-1.767-0.053-1.79l-0.006,0.01
			c0,0-1.422,0.439-0.871,2.09C38.563,224.629,38.233,225.207,38.219,225.23z"/>
		<path fill="#FFFFFF" d="M39.927,225.23l0.007-0.009c0,0,1.421-0.44,0.871-2.091c-0.396-1.188-0.066-1.767-0.052-1.79l-0.007,0.01
			c0,0-1.422,0.439-0.871,2.09C40.271,224.629,39.941,225.207,39.927,225.23z"/>
		<path fill="#FFFFFF" d="M41.635,225.23l0.006-0.009c0,0,1.422-0.44,0.871-2.091c-0.396-1.188-0.066-1.767-0.051-1.79l-0.008,0.01
			c0,0-1.421,0.439-0.871,2.09C41.979,224.629,41.648,225.207,41.635,225.23z"/>
		<path fill="#FFFFFF" d="M37.645,234.314h5.391c1.083,0,1.96-0.876,1.96-1.96v-5.145h1.013c0.404,0,0.734,0.33,0.734,0.734v1.96
			c0,0.405-0.33,0.735-0.734,0.735l-0.07-0.002c-0.26,0-0.469,0.209-0.469,0.469l0.002,0.513h0.537c0.945,0,1.715-0.769,1.715-1.715
			v-1.96c0-0.945-0.77-1.715-1.715-1.715l-9.874-0.002c-0.248,0-0.45,0.2-0.45,0.449v5.678
			C35.684,233.438,36.561,234.314,37.645,234.314z"/>
	</g>
	<g>
		<path d="M32.006,235.094c0,0.677,0.544,1.225,1.217,1.225h14.235c0.671,0,1.216-0.548,1.216-1.225H32.006z"/>
		<path d="M38.219,225.23l0.007-0.009c0,0,1.421-0.44,0.872-2.091c-0.396-1.188-0.066-1.767-0.053-1.79l-0.006,0.01
			c0,0-1.422,0.439-0.871,2.09C38.563,224.629,38.233,225.207,38.219,225.23z"/>
		<path d="M39.927,225.23l0.007-0.009c0,0,1.421-0.44,0.871-2.091c-0.396-1.188-0.066-1.767-0.052-1.79l-0.007,0.01
			c0,0-1.422,0.439-0.871,2.09C40.271,224.629,39.941,225.207,39.927,225.23z"/>
		<path d="M41.635,225.23l0.006-0.009c0,0,1.422-0.44,0.871-2.091c-0.396-1.188-0.066-1.767-0.051-1.79l-0.008,0.01
			c0,0-1.421,0.439-0.871,2.09C41.979,224.629,41.648,225.207,41.635,225.23z"/>
		<path d="M36.134,226.228c-0.248,0-0.45,0.2-0.45,0.449v5.678c0,1.084,0.877,1.96,1.961,1.96h5.391c1.083,0,1.96-0.876,1.96-1.96
			v-5.145h1.013c0.404,0,0.734,0.33,0.734,0.734v1.96c0,0.405-0.33,0.735-0.734,0.735l-0.07-0.002c-0.26,0-0.469,0.209-0.469,0.469
			l0.002,0.513h0.537c0.945,0,1.715-0.769,1.715-1.715v-1.96c0-0.945-0.77-1.715-1.715-1.715L36.134,226.228z M43.035,227.43
			c0-0.136,0.109-0.245,0.244-0.245c0.137,0,0.246,0.109,0.246,0.245v4.681c0,0.134-0.109,0.244-0.246,0.244
			c-0.135,0-0.244-0.11-0.244-0.244V227.43z"/>
	</g>
</g>
<g id="nyt_x5F_exporter_x5F_info" display="none">
</g>
</svg>
