<?xml version="1.0" encoding="utf-8"?>
<!-- Generator: Adobe Illustrator 16.0.0, SVG Export Plug-In . SVG Version: 6.00 Build 0)  -->
<!DOCTYPE svg PUBLIC "-//W3C//DTD SVG 1.1//EN" "http://www.w3.org/Graphics/SVG/1.1/DTD/svg11.dtd">
<svg version="1.1" id="Layer_1" xmlns="http://www.w3.org/2000/svg" xmlns:xlink="http://www.w3.org/1999/xlink" x="0px" y="0px"
	 width="66.75px" height="56.635px" viewBox="70.666 0 66.75 56.635" enable-background="new 70.666 0 66.75 56.635"
	 xml:space="preserve">
<rect x="76.716" y="42.135" fill="none" width="55.334" height="14.5"/>
<g enable-background="new    ">
	<path fill="#0AFD8D" d="M83.832,48.4h-4.539v4.402h-1.347V42.85h6.583v1.06h-5.236v3.432h4.539V48.4z"/>
	<path fill="#0AFD8D" d="M90.162,52.803c-0.045-0.224-0.081-0.42-0.105-0.592c-0.025-0.17-0.041-0.343-0.045-0.516
		c-0.25,0.355-0.578,0.652-0.98,0.893c-0.404,0.238-0.838,0.358-1.303,0.358c-0.77,0-1.357-0.197-1.76-0.591
		c-0.404-0.395-0.605-0.938-0.605-1.631c0-0.706,0.286-1.259,0.857-1.658c0.572-0.398,1.348-0.598,2.328-0.598h1.463v-0.731
		c0-0.433-0.133-0.776-0.396-1.028c-0.264-0.254-0.639-0.38-1.121-0.38c-0.434,0-0.785,0.11-1.057,0.331
		c-0.271,0.222-0.406,0.487-0.406,0.797h-1.285l-0.014-0.041c-0.027-0.538,0.227-1.03,0.762-1.477
		c0.536-0.446,1.228-0.67,2.075-0.67c0.839,0,1.513,0.213,2.023,0.639c0.511,0.427,0.766,1.041,0.766,1.843v3.562
		c0,0.265,0.014,0.52,0.041,0.766s0.077,0.487,0.15,0.725H90.162z M87.927,51.812c0.487,0,0.927-0.125,1.319-0.375
		s0.646-0.536,0.766-0.858v-1.2h-1.511c-0.542,0-0.977,0.137-1.302,0.409c-0.326,0.272-0.489,0.593-0.489,0.961
		c0,0.327,0.103,0.586,0.308,0.777C87.223,51.716,87.525,51.812,87.927,51.812z"/>
	<path fill="#0AFD8D" d="M95.679,50.622l0.116,0.52h0.041l0.13-0.52l1.702-5.216h1.374l-2.721,7.396h-1.019l-2.755-7.396h1.381
		L95.679,50.622z"/>
	<path fill="#0AFD8D" d="M99.835,49.036c0-1.094,0.296-1.995,0.889-2.704c0.593-0.708,1.397-1.062,2.413-1.062
		c1.025,0,1.836,0.354,2.43,1.06c0.596,0.706,0.893,1.608,0.893,2.707v0.15c0,1.103-0.297,2.005-0.889,2.707
		s-1.398,1.053-2.42,1.053s-1.828-0.353-2.424-1.056c-0.594-0.705-0.892-1.605-0.892-2.704V49.036z M101.182,49.183
		c0,0.783,0.165,1.43,0.496,1.939c0.33,0.51,0.82,0.765,1.473,0.765c0.643,0,1.131-0.255,1.463-0.765s0.499-1.156,0.499-1.939
		v-0.149c0-0.774-0.167-1.418-0.503-1.933c-0.334-0.515-0.826-0.771-1.473-0.771c-0.643,0-1.129,0.257-1.459,0.771
		c-0.331,0.515-0.496,1.158-0.496,1.933V49.183z"/>
	<path fill="#0AFD8D" d="M111.606,46.596l-0.69-0.041c-0.355,0-0.655,0.084-0.898,0.253c-0.244,0.169-0.432,0.405-0.564,0.711v5.284
		h-1.347v-7.396h1.203l0.13,1.08c0.209-0.383,0.469-0.682,0.775-0.896c0.309-0.214,0.662-0.321,1.063-0.321
		c0.101,0,0.196,0.008,0.287,0.023c0.091,0.017,0.167,0.033,0.226,0.052L111.606,46.596z"/>
	<path fill="#0AFD8D" d="M114.361,43.513h-1.347v-1.374h1.347V43.513z M114.361,52.803h-1.347v-7.396h1.347V52.803z"/>
	<path fill="#0AFD8D" d="M118.21,43.622v1.784h1.401v0.998h-1.401v4.491c0,0.347,0.071,0.59,0.216,0.731
		c0.143,0.142,0.334,0.212,0.57,0.212c0.078,0,0.163-0.009,0.256-0.027c0.094-0.019,0.178-0.041,0.25-0.068l0.178,0.923
		c-0.1,0.082-0.247,0.149-0.441,0.201c-0.193,0.053-0.389,0.079-0.584,0.079c-0.547,0-0.982-0.165-1.306-0.495
		c-0.323-0.331-0.485-0.85-0.485-1.556v-4.491h-1.176v-0.998h1.176v-1.784H118.21z"/>
	<path fill="#0AFD8D" d="M124.342,52.946c-1.029,0-1.85-0.343-2.457-1.028c-0.609-0.687-0.913-1.576-0.913-2.67v-0.301
		c0-1.053,0.313-1.929,0.94-2.629c0.626-0.699,1.367-1.049,2.225-1.049c0.998,0,1.752,0.301,2.263,0.902s0.766,1.403,0.766,2.406
		v0.841h-4.799l-0.021,0.034c0.014,0.709,0.193,1.292,0.54,1.748c0.347,0.457,0.831,0.686,1.456,0.686
		c0.455,0,0.855-0.064,1.199-0.195c0.345-0.129,0.643-0.309,0.893-0.536l0.526,0.876c-0.265,0.262-0.612,0.479-1.046,0.653
		C125.48,52.859,124.957,52.946,124.342,52.946z M124.137,46.329c-0.451,0-0.836,0.189-1.155,0.569
		c-0.319,0.379-0.515,0.854-0.588,1.427l0.014,0.034h3.411v-0.177c0-0.527-0.141-0.968-0.424-1.322S124.693,46.329,124.137,46.329z"
		/>
</g>
<path fill="#0AFD8D" d="M114.003,37.756l-11.43-8.304l-11.431,8.304l4.367-13.435l-11.429-8.305h14.127l4.365-13.437l4.365,13.437
	h14.127l-11.429,8.305L114.003,37.756L114.003,37.756z"/>
</svg>
