<?xml version="1.0" encoding="iso-8859-1"?>
<!-- Generator: Adobe Illustrator 16.0.0, SVG Export Plug-In . SVG Version: 6.00 Build 0)  -->
<!DOCTYPE svg PUBLIC "-//W3C//DTD SVG 1.1//EN" "http://www.w3.org/Graphics/SVG/1.1/DTD/svg11.dtd">
<svg version="1.1" xmlns="http://www.w3.org/2000/svg" xmlns:xlink="http://www.w3.org/1999/xlink" x="0px" y="0px"
	 width="33.477px" height="47.259px" viewBox="0 0 33.477 47.259" style="enable-background:new 0 0 33.477 47.259;"
	 xml:space="preserve">
<g id="Layer_1">
	<g>
		<g>
			<path style="fill:#1D4381;" d="M16.737,0C7.509,0,0,7.508,0,16.737C0,32.92,15.437,46.451,16.093,47.019
				c0.186,0.159,0.414,0.24,0.645,0.24s0.459-0.081,0.645-0.24c0.654-0.569,16.094-14.101,16.094-30.281
				C33.476,7.508,25.966,0,16.737,0z"/>
		</g>
		<g>
			<path style="fill:#FFFFFF;" d="M15.624,16.28c-0.004,0.716-0.66,1.486-1.508,1.486v12.132c0,1.729-2.35,1.729-2.354,0V17.767
				c-0.824,0-1.542-0.638-1.541-1.587V9.494c-0.001-0.581,0.838-0.604,0.844,0.021v4.941h0.697V9.471
				c0-0.533,0.809-0.567,0.811,0.023v4.963h0.721V9.482c0.006-0.562,0.791-0.585,0.787,0.022v4.952h0.721V9.482
				C14.8,8.926,15.62,8.903,15.624,9.505V16.28L15.624,16.28z"/>
			<path style="fill:#FFFFFF;" d="M21.882,11.047v18.852c0.002,1.685-2.35,1.66-2.352,0v-7.484h-1.25V11.047
				C18.278,8.4,21.884,8.4,21.882,11.047L21.882,11.047z"/>
		</g>
	</g>
</g>
<g id="nyt_x5F_exporter_x5F_info" style="display:none;">
</g>
</svg>
