<?xml version="1.0" encoding="utf-8"?>
<!-- Generator: Adobe Illustrator 16.0.0, SVG Export Plug-In . SVG Version: 6.00 Build 0)  -->
<!DOCTYPE svg PUBLIC "-//W3C//DTD SVG 1.1//EN" "http://www.w3.org/Graphics/SVG/1.1/DTD/svg11.dtd">
<svg version="1.1" xmlns="http://www.w3.org/2000/svg" xmlns:xlink="http://www.w3.org/1999/xlink" x="0px" y="0px" width="11.66px"
	 height="22.142px" viewBox="32.997 224.585 11.66 22.142" enable-background="new 32.997 224.585 11.66 22.142"
	 xml:space="preserve">
<g id="Layer_1">
	<g>
		<path fill="#231F20" d="M38.398,231.812c-0.004,0.716-0.658,1.486-1.508,1.486v12.133c0,1.727-2.35,1.727-2.352,0v-12.133
			c-0.825,0-1.544-0.639-1.542-1.588v-6.686c-0.002-0.58,0.838-0.603,0.844,0.023v4.939h0.699v-4.985
			c0-0.533,0.809-0.567,0.811,0.022v4.963h0.719v-4.975c0.006-0.562,0.791-0.584,0.787,0.023v4.951h0.721v-4.975
			c-0.002-0.557,0.818-0.578,0.822,0.023V231.812L38.398,231.812z"/>
		<path fill="#231F20" d="M44.656,226.578v18.854c0.002,1.684-2.35,1.658-2.352,0v-7.485h-1.25v-11.368
			C41.053,223.932,44.658,223.932,44.656,226.578L44.656,226.578z"/>
	</g>
</g>
<g id="nyt_x5F_exporter_x5F_info" display="none">
</g>
</svg>
