<?xml version="1.0" encoding="utf-8"?>
<!-- Generator: Adobe Illustrator 16.0.0, SVG Export Plug-In . SVG Version: 6.00 Build 0)  -->
<!DOCTYPE svg PUBLIC "-//W3C//DTD SVG 1.1//EN" "http://www.w3.org/Graphics/SVG/1.1/DTD/svg11.dtd">
<svg version="1.1" id="Layer_1" xmlns="http://www.w3.org/2000/svg" xmlns:xlink="http://www.w3.org/1999/xlink" x="0px" y="0px"
	 width="66.75px" height="56.635px" viewBox="80.5 0 66.75 56.635" enable-background="new 80.5 0 66.75 56.635"
	 xml:space="preserve">
<g>
	<g>
		<rect x="87" y="37.26" fill="none" width="66.75" height="19.375"/>
		<text transform="matrix(1 0 0 1 90.6523 54.8066)" fill="#0AFD8D" font-family="'Roboto-Regular'" font-size="14">  Home</text>
	</g>
</g>
<g id="Layer_1_2_">
	<g>
		<path fill="#0AFD8D" d="M129.402,36.258H118.76h-10.645H97.473V20.293c-1.471,0-2.661-1.19-2.661-2.66l18.625-15.965l7.981,6.842
			V4.328h5.321v8.742l5.321,4.562c0,1.469-1.189,2.658-2.66,2.658L129.402,36.258z"/>
	</g>
	<circle fill="#FFFFFF" cx="107.228" cy="18.502" r="2"/>
	<circle fill="#FFFFFF" cx="119.895" cy="18.502" r="2"/>
	<path fill="none" stroke="#FFFFFF" stroke-miterlimit="10" d="M101.471,25.074c0,0,2.822,7.373,10.98,7.373
		s12.864-6.902,12.864-6.902"/>
</g>
</svg>
