<?xml version="1.0" encoding="utf-8"?>
<!-- Generator: Adobe Illustrator 16.0.0, SVG Export Plug-In . SVG Version: 6.00 Build 0)  -->
<!DOCTYPE svg PUBLIC "-//W3C//DTD SVG 1.1//EN" "http://www.w3.org/Graphics/SVG/1.1/DTD/svg11.dtd">
<svg version="1.1" xmlns="http://www.w3.org/2000/svg" xmlns:xlink="http://www.w3.org/1999/xlink" x="0px" y="0px"
	 width="19.167px" height="21.667px" viewBox="131.041 216.602 19.167 21.667"
	 enable-background="new 131.041 216.602 19.167 21.667" xml:space="preserve">
<g id="Layer_1">
	<path fill="#FFFFFF" d="M147.782,233.306l-3.397-4.714c0,0-0.443-0.854-1.496-0.891h-4.577c-1.049,0.037-1.495,0.891-1.495,0.891
		l-3.396,4.714c-0.146,0.209-0.229,0.465-0.229,0.741c0,0.733,0.587,1.328,1.312,1.328c0.176,0,0.338-0.039,0.482-0.096l2.052-0.579
		v2.069h7.122v-2.07l2.052,0.58c0.149,0.057,0.308,0.096,0.48,0.096c0.726,0,1.313-0.595,1.313-1.328
		C148.006,233.771,147.924,233.515,147.782,233.306z"/>
	<path d="M140.65,227.134c1.273,0,2.301-1.046,2.301-2.331c0-1.287-1.027-2.327-2.301-2.327s-2.302,1.04-2.302,2.327
		C138.349,226.088,139.377,227.134,140.65,227.134z"/>
	<path d="M142.889,227.701c1.053,0.037,1.496,0.891,1.496,0.891l3.397,4.714c0.142,0.209,0.224,0.465,0.224,0.741
		c0,0.733-0.588,1.328-1.313,1.328c-0.173,0-0.331-0.039-0.48-0.096l-2.052-0.58v2.07h-7.122V234.7l-2.052,0.579
		c-0.145,0.057-0.307,0.096-0.482,0.096c-0.725,0-1.312-0.595-1.312-1.328c0-0.276,0.082-0.532,0.229-0.741l3.396-4.714
		c0,0,0.446-0.854,1.495-0.891H142.889L142.889,227.701z M140.6,235.324L140.6,235.324l2.658-0.893l-0.059-0.012
		c-1.835-0.544-1.122-2.995,0.709-2.448l0.252,0.089v-2.766l-3.561,1.175l-3.562-1.176v2.767l0.251-0.089
		c1.834-0.547,2.549,1.903,0.714,2.447l-0.06,0.012L140.6,235.324L140.6,235.324z"/>
	<path fill="none" d="M131.625,228.601c0,0,1.375-6.75,9-6.75s8.625,5.75,8.625,5.75"/>
	<text transform="matrix(0.8246 -0.5657 0.5657 0.8246 134.0703 224.1621)"><tspan x="0" y="0" font-family="'Roboto-Regular'" font-size="5">L</tspan><tspan x="2.528" y="0.062" font-family="'Roboto-Regular'" font-size="5" rotate="12.435">i</tspan><tspan x="3.614" y="0.208" font-family="'Roboto-Regular'" font-size="5" rotate="24.003">b</tspan><tspan x="6.049" y="1.331" font-family="'Roboto-Regular'" font-size="5" rotate="35.315">r</tspan><tspan x="7.41" y="2.21" font-family="'Roboto-Regular'" font-size="5" rotate="44.045">a</tspan><tspan x="9.244" y="4.024" font-family="'Roboto-Regular'" font-size="5" rotate="56.138">r</tspan><tspan x="10.169" y="5.263" font-family="'Roboto-Regular'" font-size="5" rotate="70.12">y</tspan></text>
</g>
<g id="nyt_x5F_exporter_x5F_info" display="none">
</g>
</svg>
