<?xml version="1.0" encoding="utf-8"?>
<!-- Generator: Adobe Illustrator 16.0.0, SVG Export Plug-In . SVG Version: 6.00 Build 0)  -->
<!DOCTYPE svg PUBLIC "-//W3C//DTD SVG 1.1//EN" "http://www.w3.org/Graphics/SVG/1.1/DTD/svg11.dtd">
<svg version="1.1" xmlns="http://www.w3.org/2000/svg" xmlns:xlink="http://www.w3.org/1999/xlink" x="0px" y="0px" width="66.75px"
	 height="56.635px" viewBox="-82.957 55.268 66.75 56.635" enable-background="new -82.957 55.268 66.75 56.635"
	 xml:space="preserve">
<g id="Layer_1">
	<g>
		<path fill="#004084" d="M-42.79,70.268c0.185-3.99-3.03-7.203-7.167-7.203c-4.139,0-7.353,3.213-7.168,7.203
			c0.148,3.989,3.362,7.205,7.168,7.205C-46.152,77.473-42.938,74.257-42.79,70.268z M-39.169,84.417v-0.628
			c0-2.844-2.291-5.135-5.136-5.135h-11.267c-2.846,0-5.137,2.291-5.137,5.135v0.629c2.734,2.771,6.54,4.508,10.752,4.508
			C-45.746,88.925-41.939,87.191-39.169,84.417z M-49.957,88.925c-8.35,0-15.148-6.799-15.148-15.147
			c0-8.35,6.799-15.146,15.148-15.146c8.35,0,15.146,6.797,15.146,15.146C-34.811,82.126-41.607,88.925-49.957,88.925z
			 M-49.957,90.402c9.199,0,16.625-7.426,16.625-16.625s-7.425-16.625-16.625-16.625s-16.625,7.426-16.625,16.625
			S-59.156,90.402-49.957,90.402z"/>
		<g>
			<rect x="-72.457" y="91.402" fill="none" width="46.5" height="15.5"/>
			<text transform="matrix(1 0 0 1 -69.5581 103.9482)" fill="#004084" font-family="'PlayfairDisplay-Regular'" font-size="16">Login</text>
		</g>
	</g>
</g>
<g id="nyt_x5F_exporter_x5F_info" display="none">
</g>
</svg>
