<?xml version="1.0" encoding="utf-8"?>
<!-- Generator: Adobe Illustrator 16.0.0, SVG Export Plug-In . SVG Version: 6.00 Build 0)  -->
<!DOCTYPE svg PUBLIC "-//W3C//DTD SVG 1.1//EN" "http://www.w3.org/Graphics/SVG/1.1/DTD/svg11.dtd">
<svg version="1.1" id="Layer_1" xmlns="http://www.w3.org/2000/svg" xmlns:xlink="http://www.w3.org/1999/xlink" x="0px" y="0px"
	 width="66.75px" height="56.635px" viewBox="0 61.333 66.75 56.635" enable-background="new 0 61.333 66.75 56.635"
	 xml:space="preserve">
<g id="Layer_1_1_">
	<g id="Layer_1_4_">
		<g>
			<path fill="#0AFD8D" d="M39.657,78.766c0.185-3.99-3.03-7.203-7.167-7.203c-4.139,0-7.354,3.213-7.168,7.203
				c0.148,3.988,3.361,7.205,7.168,7.205C36.295,85.971,39.51,82.754,39.657,78.766z M43.278,92.914v-0.628
				c0-2.845-2.291-5.136-5.136-5.136H26.875c-2.846,0-5.137,2.291-5.137,5.136v0.629c2.734,2.771,6.54,4.508,10.752,4.508
				C36.701,97.422,40.508,95.688,43.278,92.914z M32.49,97.422c-8.35,0-15.148-6.799-15.148-15.146
				c0-8.35,6.799-15.146,15.148-15.146s15.146,6.797,15.146,15.146C47.637,90.623,40.84,97.422,32.49,97.422z M32.49,98.898
				c9.199,0,16.625-7.426,16.625-16.625c0-9.198-7.425-16.625-16.625-16.625s-16.625,7.427-16.625,16.625
				C15.865,91.473,23.291,98.898,32.49,98.898z"/>
			<g>
				<rect x="11.99" y="99.898" fill="none" width="46.5" height="15.5"/>
				<text transform="matrix(1 0 0 1 14.8887 112.4453)" fill="#0AFD8D" font-family="'Roboto-Regular'" font-size="14">Login</text>
			</g>
		</g>
	</g>
</g>
</svg>
