<?xml version="1.0" encoding="utf-8"?>
<!-- Generator: Adobe Illustrator 16.0.0, SVG Export Plug-In . SVG Version: 6.00 Build 0)  -->
<!DOCTYPE svg PUBLIC "-//W3C//DTD SVG 1.1//EN" "http://www.w3.org/Graphics/SVG/1.1/DTD/svg11.dtd">
<svg version="1.1" xmlns="http://www.w3.org/2000/svg" xmlns:xlink="http://www.w3.org/1999/xlink" x="0px" y="0px" width="66.75px"
	 height="56.635px" viewBox="45.043 84.768 66.75 56.635" enable-background="new 45.043 84.768 66.75 56.635" xml:space="preserve"
	>
<g id="Layer_1">
	<g>
		<path fill="#001DAA" d="M85.21,99.768c0.185-3.99-3.03-7.203-7.167-7.203c-4.139,0-7.354,3.213-7.168,7.203
			c0.148,3.989,3.361,7.205,7.168,7.205C81.848,106.973,85.062,103.757,85.21,99.768z M88.831,113.917v-0.628
			c0-2.844-2.291-5.135-5.136-5.135H72.428c-2.846,0-5.137,2.291-5.137,5.135v0.629c2.734,2.771,6.54,4.508,10.752,4.508
			C82.254,118.425,86.061,116.691,88.831,113.917z M78.043,118.425c-8.35,0-15.148-6.799-15.148-15.147
			c0-8.35,6.799-15.146,15.148-15.146s15.146,6.797,15.146,15.146C93.189,111.626,86.393,118.425,78.043,118.425z M78.043,119.902
			c9.199,0,16.625-7.426,16.625-16.625s-7.425-16.625-16.625-16.625s-16.625,7.426-16.625,16.625S68.844,119.902,78.043,119.902z"/>
		<g>
			<rect x="55.543" y="120.902" fill="none" width="46.5" height="15.5"/>
			<text transform="matrix(1 0 0 1 58.4414 133.4482)" fill="#001DAA" font-family="'Roboto-Regular'" font-size="16">Login</text>
		</g>
	</g>
</g>
<g id="nyt_x5F_exporter_x5F_info" display="none">
</g>
</svg>
