<?xml version="1.0" encoding="utf-8"?>
<!-- Generator: Adobe Illustrator 16.0.0, SVG Export Plug-In . SVG Version: 6.00 Build 0)  -->
<!DOCTYPE svg PUBLIC "-//W3C//DTD SVG 1.1//EN" "http://www.w3.org/Graphics/SVG/1.1/DTD/svg11.dtd">
<svg version="1.1" id="Layer_1" xmlns="http://www.w3.org/2000/svg" xmlns:xlink="http://www.w3.org/1999/xlink" x="0px" y="0px"
	 width="66.75px" height="56.635px" viewBox="0 0 66.75 56.635" enable-background="new 0 0 66.75 56.635" xml:space="preserve">
<g id="Layer_1_1_">
	<g>
		<path fill="#001DAA" d="M39.656,17.434c0.186-3.99-3.029-7.203-7.166-7.203c-4.139,0-7.354,3.213-7.168,7.203
			c0.148,3.988,3.361,7.205,7.168,7.205C36.295,24.639,39.51,21.422,39.656,17.434z M43.277,31.582v-0.629
			c0-2.844-2.291-5.135-5.135-5.135H26.875c-2.846,0-5.138,2.291-5.138,5.135v0.629c2.735,2.771,6.54,4.508,10.753,4.508
			C36.701,36.09,40.508,34.355,43.277,31.582z M32.49,36.09c-8.35,0-15.148-6.799-15.148-15.146c0-8.35,6.799-15.146,15.148-15.146
			s15.146,6.797,15.146,15.146C47.637,29.291,40.84,36.09,32.49,36.09z M32.49,37.566c9.199,0,16.625-7.426,16.625-16.625
			S41.689,4.316,32.49,4.316c-9.2,0-16.625,7.426-16.625,16.625S23.29,37.566,32.49,37.566z"/>
		<g>
			<rect x="11.99" y="38.566" fill="none" width="46.5" height="15.5"/>
			<text transform="matrix(1 0 0 1 14.8887 51.1123)" fill="#001DAA" font-family="'Roboto-Regular'" font-size="14">Login</text>
		</g>
	</g>
</g>
</svg>
