<?xml version="1.0" encoding="utf-8"?>
<!-- Generator: Adobe Illustrator 16.0.0, SVG Export Plug-In . SVG Version: 6.00 Build 0)  -->
<!DOCTYPE svg PUBLIC "-//W3C//DTD SVG 1.1//EN" "http://www.w3.org/Graphics/SVG/1.1/DTD/svg11.dtd">
<svg version="1.1" xmlns="http://www.w3.org/2000/svg" xmlns:xlink="http://www.w3.org/1999/xlink" x="0px" y="0px" width="66.75px"
	 height="56.635px" viewBox="116.043 83.768 66.75 56.635" enable-background="new 116.043 83.768 66.75 56.635"
	 xml:space="preserve">
<g id="Layer_1">
	<path fill="#001DAA" d="M123.79,88.873v30.839h3.467l3.587-3.588v-3.778v-3.467V91.257h16.731v9.749v2.359v12.712l-3.611,3.586
		h31.286v-30.79H123.79z M158.068,92.37c1.215,0,2.197,0.983,2.197,2.196c0,1.214-0.982,2.197-2.197,2.197
		c-1.213,0-2.195-0.983-2.195-2.197C155.873,93.354,156.855,92.37,158.068,92.37z M163.877,111.809c-0.58,0-1.086-0.437-1.109-1.015
		l-0.531-4.976l-4.25,8.813c-0.241,0.509-0.772,0.847-1.4,0.847h-2.053l5.216-10.793l-1.618-4.058l-1.545,1.884
		c-0.375,0.491-0.999,0.822-1.675,0.844v0.004l-3.413-0.002c-0.141,0.009-0.291-0.018-0.462-0.107
		c-0.47-0.248-0.683-0.88-0.423-1.37c0.203-0.384,0.511-0.551,0.898-0.562l3.006,0.025l0,0l2.768-3.49
		c0.507-0.58,1.279-0.968,2.125-0.968h5.359c0.847,0,1.594,0.459,1.98,1.208l1.594,3.02c0.072,0.119,0.12,0.266,0.12,0.457
		c0,0.531-0.458,1.016-1.014,1.016c-0.435,0-0.726-0.193-0.918-0.531l-1.72-3.048h-2.318l2.082,4.737l0.531,5.675h4.588
		c0.725,0,1.304,0.459,1.593,1.086l0.508,1.304H163.877L163.877,111.809z"/>
	<polygon fill="#FFFFFF" points="130.844,116.125 130.844,91.257 147.575,91.257 147.575,116.078 143.964,119.664 127.257,119.664 	
		"/>
	<g>
		<text transform="matrix(1 0 0 1 124.9414 132.5811)" fill="#001DAA" font-family="'Roboto-Regular'" font-size="16">Logout</text>
	</g>
	<circle fill="#FFFFFF" cx="158.068" cy="94.567" r="2.197"/>
	<path fill="#FFFFFF" d="M163.877,111.809c-0.58,0-1.086-0.437-1.109-1.015l-0.531-4.976l-4.25,8.812
		c-0.241,0.508-0.772,0.846-1.4,0.846h-2.053l5.216-10.793l-1.618-4.057l-1.545,1.884c-0.375,0.491-0.999,0.822-1.675,0.843v0.006
		l-3.413-0.002c-0.141,0.008-0.291-0.019-0.462-0.108c-0.47-0.248-0.683-0.88-0.423-1.37c0.203-0.384,0.511-0.551,0.898-0.562
		l3.006,0.026l0,0l2.768-3.491c0.507-0.58,1.279-0.967,2.125-0.967h5.359c0.847,0,1.594,0.459,1.98,1.208l1.594,3.019
		c0.072,0.121,0.12,0.267,0.12,0.459c0,0.531-0.458,1.015-1.014,1.015c-0.435,0-0.726-0.192-0.918-0.53l-1.72-3.049h-2.318
		l2.082,4.737l0.531,5.675h4.588c0.725,0,1.304,0.459,1.593,1.086l0.508,1.303h-7.919V111.809z"/>
</g>
<g id="nyt_x5F_exporter_x5F_info" display="none">
</g>
</svg>
