<?xml version="1.0" encoding="utf-8"?>
<!-- Generator: Adobe Illustrator 16.0.0, SVG Export Plug-In . SVG Version: 6.00 Build 0)  -->
<!DOCTYPE svg PUBLIC "-//W3C//DTD SVG 1.1//EN" "http://www.w3.org/Graphics/SVG/1.1/DTD/svg11.dtd">
<svg version="1.1" id="Layer_1" xmlns="http://www.w3.org/2000/svg" xmlns:xlink="http://www.w3.org/1999/xlink" x="0px" y="0px"
	 width="66.75px" height="56.635px" viewBox="0 0 66.75 56.635" enable-background="new 0 0 66.75 56.635" xml:space="preserve">
<defs>
	 <style type="text/css">@import url('https://fonts.googleapis.com/css?family=Roboto:100,200,300,400,700,900');</style>
</defs>
<g id="Layer_1_1_">
	<path fill="#001DAA" d="M7.79,4.873v30.839h3.467l3.587-3.588v-3.777v-3.468V7.257h16.731v9.749v2.359v12.712l-3.611,3.586H59.25
		V4.873H7.79z M42.068,8.37c1.215,0,2.197,0.982,2.197,2.195c0,1.215-0.982,2.197-2.197,2.197c-1.213,0-2.195-0.982-2.195-2.197
		C39.873,9.354,40.855,8.37,42.068,8.37z M47.877,27.81c-0.58,0-1.086-0.438-1.109-1.016l-0.531-4.977l-4.25,8.813
		c-0.24,0.509-0.771,0.847-1.399,0.847h-2.053l5.216-10.793l-1.618-4.058l-1.545,1.884c-0.375,0.491-0.999,0.822-1.675,0.844v0.004
		l-3.413-0.002c-0.142,0.01-0.291-0.018-0.462-0.106c-0.471-0.248-0.684-0.88-0.423-1.37c0.202-0.384,0.511-0.551,0.897-0.562
		l3.006,0.025l0,0l2.769-3.49c0.507-0.58,1.278-0.968,2.125-0.968h5.358c0.848,0,1.594,0.459,1.98,1.208l1.594,3.02
		c0.072,0.119,0.12,0.267,0.12,0.457c0,0.531-0.458,1.017-1.014,1.017c-0.435,0-0.726-0.192-0.918-0.53l-1.72-3.049h-2.318
		l2.082,4.737l0.531,5.675h4.588c0.725,0,1.304,0.459,1.593,1.086l0.508,1.305H47.877L47.877,27.81z"/>
	<polygon fill="#C9CACC" points="14.844,32.125 14.844,7.257 31.575,7.257 31.575,32.078 27.964,35.664 11.257,35.664 	"/>
	<g>
		<text transform="matrix(1 0 0 1 12.9414 53.5811)" fill="#001DAA" font-family="'Roboto-Regular'" font-size="14">Logout</text>
	</g>
	<circle fill="#FFFFFF" cx="42.068" cy="10.567" r="2.197"/>
	<path fill="#FFFFFF" d="M47.877,27.81c-0.58,0-1.086-0.438-1.109-1.016l-0.531-4.977l-4.25,8.812
		c-0.24,0.508-0.771,0.846-1.399,0.846h-2.053l5.216-10.793l-1.618-4.057l-1.545,1.884c-0.375,0.491-0.999,0.822-1.675,0.843v0.006
		l-3.413-0.002c-0.142,0.009-0.291-0.019-0.462-0.107c-0.471-0.248-0.684-0.88-0.423-1.37c0.202-0.384,0.511-0.551,0.897-0.562
		l3.006,0.025l0,0l2.769-3.49c0.507-0.58,1.278-0.968,2.125-0.968h5.358c0.848,0,1.594,0.459,1.98,1.208l1.594,3.02
		c0.072,0.121,0.12,0.267,0.12,0.459c0,0.531-0.458,1.015-1.014,1.015c-0.435,0-0.726-0.192-0.918-0.53l-1.72-3.049h-2.318
		l2.082,4.737l0.531,5.675h4.588c0.725,0,1.304,0.459,1.593,1.086l0.508,1.303h-7.919V27.81L47.877,27.81z"/>
</g>
</svg>
