<?xml version="1.0" encoding="utf-8"?>
<!-- Generator: Adobe Illustrator 16.0.0, SVG Export Plug-In . SVG Version: 6.00 Build 0)  -->
<!DOCTYPE svg PUBLIC "-//W3C//DTD SVG 1.1//EN" "http://www.w3.org/Graphics/SVG/1.1/DTD/svg11.dtd">
<svg version="1.1" id="Layer_1" xmlns="http://www.w3.org/2000/svg" xmlns:xlink="http://www.w3.org/1999/xlink" x="0px" y="0px"
	 width="66.75px" height="56.635px" viewBox="0 0 66.75 56.635" enable-background="new 0 0 66.75 56.635" xml:space="preserve">
<defs>
	 <style type="text/css">@import url('https://fonts.googleapis.com/css?family=Roboto:100,200,300,400,700,900');</style>
</defs>
<g id="Layer_1_1_">
	<path fill="#001DAA" d="M7.79,4.873v30.839h3.467l3.587-3.588v-3.777v-3.468V7.257h16.731v9.749v2.359v12.712l-3.611,3.586H59.25
		V4.873H7.79z M42.068,8.37c1.215,0,2.197,0.982,2.197,2.195c0,1.215-0.982,2.197-2.197,2.197c-1.213,0-2.195-0.982-2.195-2.197
		C39.873,9.354,40.855,8.37,42.068,8.37z M47.877,27.81c-0.58,0-1.086-0.438-1.109-1.016l-0.531-4.977l-4.25,8.813
		c-0.239,0.51-0.771,0.848-1.398,0.848h-2.053l5.216-10.793l-1.618-4.058l-1.545,1.884c-0.375,0.491-0.999,0.822-1.675,0.844v0.004
		L35.5,19.356c-0.143,0.01-0.291-0.018-0.462-0.106c-0.472-0.248-0.685-0.88-0.423-1.37c0.201-0.384,0.511-0.551,0.896-0.562
		l3.006,0.025l0,0l2.77-3.49c0.507-0.58,1.277-0.968,2.125-0.968h5.357c0.849,0,1.594,0.459,1.98,1.208l1.594,3.02
		c0.072,0.119,0.12,0.267,0.12,0.457c0,0.531-0.458,1.017-1.014,1.017c-0.435,0-0.726-0.192-0.918-0.53l-1.72-3.049h-2.318
		l2.082,4.737l0.531,5.675h4.588c0.725,0,1.304,0.459,1.593,1.086l0.508,1.305L47.877,27.81L47.877,27.81z"/>
	<polygon fill="#C9CACC" points="14.844,32.125 14.844,7.257 31.575,7.257 31.575,32.078 27.964,35.664 11.257,35.664 	"/>
	<g>
		<g enable-background="new    ">
			<path fill="#001DAA" d="M15.519,52.521h4.71v1.06h-6.057v-9.953h1.347V52.521z"/>
			<path fill="#001DAA" d="M21.165,49.814c0-1.094,0.296-1.995,0.889-2.704c0.592-0.708,1.397-1.062,2.413-1.062
				c1.025,0,1.835,0.354,2.43,1.06s0.892,1.608,0.892,2.707v0.15c0,1.103-0.296,2.005-0.889,2.707s-1.399,1.053-2.42,1.053
				s-1.829-0.353-2.423-1.056c-0.595-0.705-0.892-1.605-0.892-2.704V49.814z M22.512,49.961c0,0.783,0.165,1.43,0.496,1.939
				s0.821,0.765,1.473,0.765c0.643,0,1.13-0.255,1.463-0.765s0.499-1.156,0.499-1.939v-0.149c0-0.774-0.167-1.418-0.502-1.933
				s-0.826-0.771-1.473-0.771c-0.643,0-1.129,0.257-1.459,0.771s-0.496,1.158-0.496,1.933V49.961z"/>
			<path fill="#001DAA" d="M29.143,50.02c0-1.189,0.26-2.148,0.779-2.878s1.237-1.094,2.153-1.094c0.469,0,0.882,0.095,1.237,0.283
				c0.355,0.189,0.652,0.462,0.889,0.817l0.164-0.964h1.073v7.438c0,0.948-0.276,1.676-0.827,2.184
				c-0.551,0.509-1.347,0.763-2.386,0.763c-0.355,0-0.739-0.049-1.152-0.147c-0.413-0.098-0.776-0.23-1.09-0.399l0.342-1.046
				c0.242,0.137,0.533,0.247,0.875,0.332c0.342,0.084,0.679,0.126,1.012,0.126c0.656,0,1.134-0.149,1.432-0.448
				c0.298-0.298,0.448-0.753,0.448-1.363v-0.834c-0.242,0.31-0.531,0.543-0.868,0.701c-0.337,0.156-0.725,0.235-1.162,0.235
				c-0.907,0-1.62-0.328-2.14-0.984s-0.779-1.516-0.779-2.577V50.02z M30.489,50.163c0,0.743,0.157,1.34,0.472,1.791
				s0.793,0.677,1.436,0.677c0.406,0,0.745-0.093,1.019-0.276c0.273-0.186,0.499-0.446,0.677-0.783v-3.404
				c-0.174-0.314-0.399-0.564-0.677-0.748c-0.278-0.186-0.613-0.277-1.005-0.277c-0.643,0-1.124,0.269-1.442,0.807
				s-0.479,1.229-0.479,2.071V50.163z"/>
			<path fill="#001DAA" d="M37.079,49.814c0-1.094,0.296-1.995,0.889-2.704c0.593-0.708,1.397-1.062,2.413-1.062
				c1.025,0,1.836,0.354,2.43,1.06c0.596,0.706,0.893,1.608,0.893,2.707v0.15c0,1.103-0.297,2.005-0.889,2.707
				s-1.398,1.053-2.42,1.053s-1.828-0.353-2.424-1.056c-0.594-0.705-0.892-1.605-0.892-2.704V49.814z M38.426,49.961
				c0,0.783,0.165,1.43,0.496,1.939c0.33,0.51,0.82,0.765,1.473,0.765c0.643,0,1.131-0.255,1.463-0.765s0.499-1.156,0.499-1.939
				v-0.149c0-0.774-0.167-1.418-0.503-1.933c-0.334-0.515-0.826-0.771-1.473-0.771c-0.643,0-1.129,0.257-1.459,0.771
				c-0.331,0.515-0.496,1.158-0.496,1.933V49.961z"/>
			<path fill="#001DAA" d="M50.047,52.487c-0.232,0.396-0.531,0.702-0.896,0.916s-0.786,0.321-1.265,0.321
				c-0.807,0-1.436-0.258-1.887-0.772s-0.677-1.317-0.677-2.406v-4.361h1.347v4.375c0,0.788,0.116,1.331,0.349,1.627
				s0.595,0.444,1.087,0.444c0.479,0,0.874-0.097,1.186-0.29c0.312-0.194,0.549-0.469,0.708-0.824v-5.332h1.347v7.396h-1.21
				L50.047,52.487z"/>
			<path fill="#001DAA" d="M55.085,44.4v1.784h1.401v0.998h-1.401v4.491c0,0.347,0.071,0.59,0.216,0.731
				c0.143,0.142,0.334,0.212,0.57,0.212c0.078,0,0.163-0.009,0.256-0.027c0.094-0.019,0.178-0.041,0.25-0.068l0.178,0.923
				c-0.1,0.082-0.247,0.149-0.441,0.201c-0.193,0.053-0.389,0.079-0.584,0.079c-0.547,0-0.982-0.165-1.306-0.495
				c-0.323-0.331-0.485-0.85-0.485-1.556v-4.491h-1.176v-0.998h1.176V44.4H55.085z"/>
		</g>
	</g>
	<circle fill="#FFFFFF" cx="42.068" cy="10.567" r="2.197"/>
	<path fill="#FFFFFF" d="M47.877,27.81c-0.58,0-1.086-0.438-1.109-1.016l-0.531-4.977l-4.25,8.812
		c-0.239,0.509-0.771,0.847-1.398,0.847h-2.053l5.216-10.793l-1.618-4.057l-1.545,1.884c-0.375,0.491-0.999,0.822-1.675,0.843v0.006
		L35.5,19.356c-0.143,0.009-0.291-0.019-0.462-0.107c-0.472-0.248-0.685-0.88-0.423-1.37c0.201-0.384,0.511-0.551,0.896-0.562
		l3.006,0.025l0,0l2.77-3.49c0.507-0.58,1.277-0.968,2.125-0.968h5.357c0.849,0,1.594,0.459,1.98,1.208l1.594,3.02
		c0.072,0.121,0.12,0.267,0.12,0.459c0,0.531-0.458,1.015-1.014,1.015c-0.435,0-0.726-0.192-0.918-0.53l-1.72-3.049h-2.318
		l2.082,4.737l0.531,5.675h4.588c0.725,0,1.304,0.459,1.593,1.086l0.508,1.303h-7.919V27.81L47.877,27.81z"/>
</g>
</svg>
