<?xml version="1.0" encoding="iso-8859-1"?>
<!-- Generator: Adobe Illustrator 16.0.0, SVG Export Plug-In . SVG Version: 6.00 Build 0)  -->
<!DOCTYPE svg PUBLIC "-//W3C//DTD SVG 1.1//EN" "http://www.w3.org/Graphics/SVG/1.1/DTD/svg11.dtd">
<svg version="1.1" xmlns="http://www.w3.org/2000/svg" xmlns:xlink="http://www.w3.org/1999/xlink" x="0px" y="0px"
	 width="33.476px" height="47.259px" viewBox="0 0 33.476 47.259" style="enable-background:new 0 0 33.476 47.259;"
	 xml:space="preserve">
<g id="Layer_1">
	<g>
		<g>
			<path style="fill:#1D4381;" d="M16.738,0C7.509,0,0,7.508,0,16.737C0,32.92,15.437,46.451,16.094,47.019
				c0.186,0.159,0.414,0.24,0.645,0.24s0.459-0.081,0.644-0.24c0.655-0.569,16.094-14.101,16.094-30.281
				C33.476,7.508,25.967,0,16.738,0z"/>
		</g>
		<path style="fill:#FFFFFF;" d="M22.531,8.47c0-0.238-0.179-0.417-0.417-0.417h-2.327c-0.148,0-0.268,0.059-0.328,0.179
			c-3.549,1.372-4.623,4.414-4.802,5.011c-1.671,1.7-4.802,0.955-6.114,0.537c-0.03-0.06-0.09-0.119-0.18-0.149
			c-0.06-0.03-0.447-0.209-0.865-0.209c-0.477,0-0.686,0.239-0.775,0.388c-0.268,0.418-0.148,1.074,0.358,2.059l7.367,13.87
			c0,0,0,0,0,0.029v2.565c0,0.238,0.179,0.418,0.418,0.418h7.278c0.238,0,0.417-0.18,0.417-0.418v-2.595
			c0-0.239-0.179-0.418-0.417-0.418h-0.15v-1.641c0-0.208-0.148-0.357-0.327-0.417l0.327-15.242l0.479-0.716l0,0
			c0.029-0.03,0.029-0.06,0.029-0.09v-0.03c0-0.029,0-0.059,0-0.059v-0.03l0,0V8.47H22.531z M20.205,8.887h1.521v1.79h-1.521V8.887z
			 M20.832,27.262h-0.09V12.317h0.418L20.832,27.262z M19.52,29.319V11.423l0.417,0.626v15.272c-0.149,0.06-0.269,0.208-0.269,0.388
			v1.641H19.52V29.319z M9.885,15.867c0.06,0,0.119,0.029,0.179,0.029v0.239L9.885,15.867z M10.332,15.927
			c0.18,0.03,0.357,0.06,0.537,0.089v1.402l-0.537-0.865V15.927z M11.168,16.046c0.178,0.03,0.357,0.03,0.536,0.03v2.625
			l-0.536-0.865V16.046z M11.973,16.105c0.09,0,0.179,0,0.269,0c0.089,0,0.209,0,0.298,0v3.878l-0.537-0.865v-3.013H11.973z
			 M12.808,16.076c0.239,0,0.448-0.03,0.687-0.061v5.489L12.808,20.4V16.076z M13.762,15.957c0.239-0.061,0.479-0.119,0.687-0.18
			v7.219l-0.687-1.104V15.957z M14.717,15.658c0.238-0.119,0.478-0.238,0.686-0.418v9.217l-0.686-1.073V15.658z M15.672,15.002
			c0.298-0.298,0.506-0.626,0.656-1.074c0,0,0-0.029,0.029-0.059v12.109l-0.686-1.073V15.002z M16.656,13.271
			c0.148-0.268,0.328-0.626,0.536-0.984v14.975l-0.536-0.865V13.271z M17.461,11.9c0.209-0.27,0.418-0.567,0.686-0.836v17.688
			l-0.686-1.074V11.9z M18.505,29.319L18.416,29.2V10.826c0.238-0.209,0.506-0.418,0.775-0.597v19.09H18.505z M11.645,15.002
			c1.283,0,2.625-0.328,3.58-1.342c0.029-0.03,0.059-0.09,0.089-0.149c0-0.03,0.835-3.072,4.087-4.504v0.358
			c-2.477,1.073-3.64,4.205-3.699,4.354c-0.835,2.416-5.131,1.61-6.324,1.342l-0.268-0.417C9.825,14.823,10.72,15.002,11.645,15.002
			z M7.439,14.256c0,0,0.029,0,0.089,0c0.149,0,0.298,0.061,0.417,0.09l9.605,15.004h-2.356l-7.368-13.87
			C7.35,14.525,7.439,14.256,7.439,14.256z M21.727,31.944h-6.443v-1.79h3.013h1.79h1.521h0.148v1.79H21.727z M20.474,29.319v-1.223
			h0.687v1.223H20.474z"/>
	</g>
</g>
<g id="nyt_x5F_exporter_x5F_info" style="display:none;">
</g>
</svg>
