<?xml version="1.0" encoding="utf-8"?>
<!-- Generator: Adobe Illustrator 16.0.0, SVG Export Plug-In . SVG Version: 6.00 Build 0)  -->
<!DOCTYPE svg PUBLIC "-//W3C//DTD SVG 1.1//EN" "http://www.w3.org/Graphics/SVG/1.1/DTD/svg11.dtd">
<svg version="1.1" xmlns="http://www.w3.org/2000/svg" xmlns:xlink="http://www.w3.org/1999/xlink" x="0px" y="0px"
	 width="15.979px" height="24.697px" viewBox="-6.904 222.584 15.979 24.697" enable-background="new -6.904 222.584 15.979 24.697"
	 xml:space="preserve">
<g id="Layer_1">
	<path fill="#FFFFFF" d="M8.657,243.852H8.507v-1.641c0-0.209-0.149-0.357-0.328-0.418l0.328-15.242l0.478-0.715
		c0.029-0.03,0.029-0.061,0.029-0.09v-0.03c0-0.03,0-0.06,0-0.06v-0.029v-2.625h0.03c0-0.238-0.179-0.418-0.418-0.418H6.3
		c-0.149,0-0.269,0.06-0.328,0.18c-3.55,1.371-4.624,4.414-4.803,5.011c-1.67,1.7-4.802,0.954-6.114,0.536
		c-0.03-0.059-0.09-0.119-0.18-0.148c-0.059-0.03-0.447-0.209-0.865-0.209c-0.477,0-0.686,0.238-0.775,0.388
		c-0.268,0.418-0.148,1.073,0.358,2.058l7.368,13.871c0,0,0,0,0,0.029v2.565c0,0.238,0.178,0.417,0.417,0.417h7.278
		c0.238,0,0.418-0.179,0.418-0.417v-2.595C9.075,244.03,8.895,243.852,8.657,243.852z"/>
	<path fill="#231F20" d="M9.044,223.002c0-0.238-0.179-0.418-0.418-0.418H6.3c-0.149,0-0.269,0.06-0.328,0.18
		c-3.55,1.371-4.624,4.414-4.803,5.011c-1.67,1.7-4.802,0.954-6.114,0.536c-0.03-0.059-0.09-0.119-0.18-0.148
		c-0.059-0.03-0.447-0.209-0.865-0.209c-0.477,0-0.686,0.238-0.775,0.388c-0.268,0.418-0.148,1.073,0.358,2.058l7.368,13.871
		c0,0,0,0,0,0.029v2.565c0,0.238,0.178,0.417,0.417,0.417h7.278c0.238,0,0.418-0.179,0.418-0.417v-2.595
		c0-0.239-0.18-0.418-0.418-0.418H8.507v-1.641c0-0.209-0.149-0.357-0.328-0.418l0.328-15.242l0.478-0.715l0,0
		c0.029-0.03,0.029-0.061,0.029-0.09v-0.03c0-0.03,0-0.06,0-0.06v-0.029l0,0v-2.625H9.044z M6.717,223.42h1.521v1.789H6.717V223.42z
		 M7.344,241.793h-0.09V226.85h0.418L7.344,241.793z M6.032,243.852v-17.896l0.418,0.626v15.272c-0.149,0.059-0.27,0.208-0.27,0.387
		v1.641H6.032V243.852z M-3.603,230.398c0.061,0,0.119,0.03,0.18,0.03v0.239L-3.603,230.398z M-3.156,230.459
		c0.18,0.029,0.358,0.06,0.537,0.09v1.401l-0.537-0.865V230.459z M-2.32,230.578c0.179,0.029,0.357,0.029,0.537,0.029v2.625
		l-0.537-0.865V230.578z M-1.515,230.638c0.09,0,0.18,0,0.269,0c0.09,0,0.209,0,0.298,0v3.878l-0.536-0.865v-3.013H-1.515z
		 M-0.679,230.607c0.238,0,0.447-0.029,0.686-0.059v5.488l-0.686-1.104V230.607z M0.275,230.488c0.238-0.06,0.478-0.119,0.687-0.179
		v7.218l-0.687-1.104V230.488z M1.229,230.19c0.238-0.12,0.478-0.239,0.687-0.418v9.217l-0.687-1.073V230.19z M2.184,229.534
		c0.298-0.298,0.507-0.626,0.656-1.074c0,0,0-0.029,0.029-0.06v12.11l-0.686-1.073V229.534z M3.168,227.804
		c0.148-0.269,0.328-0.626,0.537-0.983v14.973l-0.537-0.865V227.804z M3.973,226.432c0.209-0.268,0.418-0.566,0.687-0.835v17.688
		l-0.687-1.074V226.432z M5.018,243.852l-0.09-0.119v-18.374c0.238-0.209,0.507-0.418,0.775-0.597v19.09H5.018z M-1.843,229.534
		c1.283,0,2.625-0.328,3.58-1.343c0.029-0.029,0.059-0.089,0.089-0.148c0-0.03,0.835-3.072,4.087-4.504v0.357
		c-2.477,1.074-3.639,4.206-3.699,4.355c-0.835,2.416-5.131,1.61-6.323,1.342l-0.269-0.418
		C-3.663,229.355-2.767,229.534-1.843,229.534z M-6.048,228.788c0,0,0.029,0,0.089,0c0.149,0,0.298,0.06,0.418,0.09l9.604,15.003
		H1.707l-7.368-13.869C-6.138,229.057-6.048,228.788-6.048,228.788z M8.239,246.477H1.795v-1.79h3.014h1.789H8.12h0.148v1.79H8.239z
		 M6.986,243.852v-1.223h0.687v1.223H6.986z"/>
</g>
<g id="nyt_x5F_exporter_x5F_info" display="none">
</g>
</svg>
