<?xml version="1.0" encoding="utf-8"?>
<!-- Generator: Adobe Illustrator 16.0.0, SVG Export Plug-In . SVG Version: 6.00 Build 0)  -->
<!DOCTYPE svg PUBLIC "-//W3C//DTD SVG 1.1//EN" "http://www.w3.org/Graphics/SVG/1.1/DTD/svg11.dtd">
<svg version="1.1" xmlns="http://www.w3.org/2000/svg" xmlns:xlink="http://www.w3.org/1999/xlink" x="0px" y="0px"
	 width="33.476px" height="47.259px" viewBox="-48.512 154.355 33.476 47.259"
	 enable-background="new -48.512 154.355 33.476 47.259" xml:space="preserve">
<g id="Layer_1">
	<g>
		<g>
			<path fill="#004083" d="M-31.775,154.355c-9.229,0-16.737,7.508-16.737,16.737c0,16.183,15.437,29.714,16.094,30.281
				c0.185,0.159,0.413,0.24,0.644,0.24s0.459-0.081,0.645-0.24c0.656-0.569,16.094-14.101,16.094-30.281
				C-15.037,161.863-22.545,154.355-31.775,154.355z"/>
		</g>
	</g>
	<path fill="#FFFFFF" d="M-28.843,161.331v1.555h-2.33v1.83l8.548,3.886v4.386h-0.777v6.993h1.554v1.554h-20.203v-1.554h1.554
		v-6.993h-0.776v-4.386l8.547-3.886v-3.385H-28.843z M-32.077,166.067l-4.834,2.258h9.922L-32.077,166.067z M-39.721,169.879v1.555
		h15.602v-1.555H-39.721z M-38.944,172.987v6.993h1.555v-6.993H-38.944z M-35.819,172.987v6.993h1.555v-6.993H-35.819z
		 M-32.694,172.987v6.993h1.555v-6.993H-32.694z M-29.569,172.987v6.993h1.555v-6.993H-29.569z M-26.444,172.987v6.993h1.555v-6.993
		H-26.444z"/>
</g>
<g id="nyt_x5F_exporter_x5F_info" display="none">
</g>
</svg>
