<?xml version="1.0" encoding="utf-8"?>
<!-- Generator: Adobe Illustrator 16.0.0, SVG Export Plug-In . SVG Version: 6.00 Build 0)  -->
<!DOCTYPE svg PUBLIC "-//W3C//DTD SVG 1.1//EN" "http://www.w3.org/Graphics/SVG/1.1/DTD/svg11.dtd">
<svg version="1.1" xmlns="http://www.w3.org/2000/svg" xmlns:xlink="http://www.w3.org/1999/xlink" x="0px" y="0px"
	 width="23.667px" height="27.667px" viewBox="-45.458 212.101 23.667 27.667"
	 enable-background="new -45.458 212.101 23.667 27.667" xml:space="preserve">
<g id="Layer_1">
	<g>
		<path fill="#FFFFFF" d="M-32.26,216.173v-0.668h-1.288v-2.82h-0.691v2.82h-1.289v0.668c-2.635,0.719-4.579,3.133-4.579,5.992
			c0,3.427,2.787,6.213,6.213,6.213c3.425,0,6.212-2.786,6.212-6.213C-27.681,219.306-29.625,216.892-32.26,216.173z"/>
		<path d="M-40.106,222.165c0,3.427,2.787,6.213,6.213,6.213c3.425,0,6.212-2.786,6.212-6.213c0-2.859-1.944-5.273-4.579-5.992
			v-0.668h-1.288v-2.82h-0.691v2.82h-1.289v0.668C-38.163,216.892-40.106,219.306-40.106,222.165z M-28.456,221.936h-2.034
			c-0.019-0.811-0.141-1.577-0.345-2.266h1.778C-28.703,220.354-28.49,221.121-28.456,221.936z M-39.332,222.396h2.035
			c0.02,0.81,0.141,1.576,0.345,2.265h-1.779C-39.085,223.978-39.298,223.211-39.332,222.396z M-36.836,222.396h2.712v2.265h-2.355
			C-36.689,223.983-36.816,223.214-36.836,222.396z M-34.125,225.123v2.238c-0.909-0.126-1.703-0.982-2.193-2.238H-34.125z
			 M-33.664,225.123h2.194c-0.491,1.256-1.285,2.113-2.194,2.238V225.123z M-33.664,224.661v-2.265h2.712
			c-0.021,0.817-0.147,1.587-0.357,2.265H-33.664z M-30.49,222.396h2.034c-0.034,0.814-0.247,1.581-0.601,2.265h-1.778
			C-30.632,223.973-30.51,223.206-30.49,222.396z M-30.951,221.936h-2.712v-2.266h2.355
			C-31.098,220.349-30.972,221.117-30.951,221.936z M-33.664,219.209v-2.238c0.909,0.125,1.703,0.981,2.194,2.238H-33.664z
			 M-34.125,219.209h-2.193c0.491-1.257,1.285-2.113,2.193-2.238V219.209z M-34.125,219.67v2.265h-2.712
			c0.021-0.817,0.147-1.586,0.357-2.265H-34.125z M-37.297,221.936h-2.035c0.034-0.814,0.247-1.582,0.601-2.266h1.779
			C-37.156,220.358-37.277,221.125-37.297,221.936z M-38.464,225.123h1.664c0.393,1.067,0.993,1.903,1.705,2.352
			C-36.502,227.158-37.703,226.297-38.464,225.123z M-32.693,227.475c0.713-0.448,1.312-1.284,1.705-2.352h1.664
			C-30.085,226.296-31.286,227.157-32.693,227.475z M-29.324,219.209h-1.664c-0.393-1.068-0.993-1.903-1.705-2.353
			C-31.286,217.174-30.085,218.035-29.324,219.209z M-35.095,216.856c-0.713,0.448-1.312,1.284-1.706,2.352h-1.663
			C-37.703,218.035-36.502,217.174-35.095,216.856z"/>
		<path d="M-41.667,222.195c0-0.212-0.172-0.384-0.384-0.384h-1.646c-0.212,0-0.384,0.172-0.384,0.384
			c0,0.213,0.172,0.385,0.384,0.385h1.646C-41.839,222.58-41.667,222.408-41.667,222.195z"/>
		<path d="M-24.091,221.812h-1.646c-0.212,0-0.384,0.172-0.384,0.384c0,0.213,0.172,0.385,0.384,0.385h1.646
			c0.213,0,0.384-0.172,0.384-0.385C-23.707,221.983-23.878,221.812-24.091,221.812z"/>
		<path d="M-39.934,216.699c0.075,0.075,0.173,0.112,0.272,0.112c0.098,0,0.197-0.037,0.272-0.112c0.15-0.15,0.15-0.394,0-0.544
			l-1.164-1.163c-0.15-0.15-0.394-0.15-0.544,0c-0.15,0.149-0.15,0.394,0,0.543L-39.934,216.699z"/>
		<path d="M-27.854,227.691c-0.151-0.15-0.394-0.15-0.543,0c-0.15,0.15-0.15,0.394,0,0.543l1.164,1.164
			c0.075,0.075,0.173,0.113,0.271,0.113c0.099,0,0.197-0.038,0.272-0.113c0.15-0.15,0.15-0.394,0-0.543L-27.854,227.691z"/>
		<path d="M-39.39,227.691c-0.15-0.15-0.394-0.15-0.543,0l-1.164,1.164c-0.15,0.15-0.15,0.394,0,0.543
			c0.075,0.076,0.173,0.113,0.271,0.113c0.099,0,0.197-0.037,0.272-0.113l1.164-1.163C-39.24,228.085-39.24,227.842-39.39,227.691z"
			/>
		<path d="M-28.126,216.812c0.099,0,0.197-0.037,0.272-0.112l1.164-1.164c0.15-0.15,0.15-0.394,0-0.544
			c-0.151-0.149-0.395-0.149-0.544,0l-1.164,1.164c-0.15,0.149-0.15,0.394,0,0.543C-28.323,216.774-28.224,216.812-28.126,216.812z"
			/>
		<path d="M-43.004,218.555l1.503,0.67c0.051,0.022,0.104,0.033,0.156,0.033c0.147,0,0.288-0.085,0.351-0.228
			c0.087-0.194,0-0.422-0.194-0.508l-1.503-0.67c-0.194-0.087-0.421,0.001-0.507,0.194
			C-43.285,218.241-43.198,218.469-43.004,218.555z"/>
		<path d="M-24.784,225.837l-1.503-0.67c-0.194-0.087-0.421,0-0.508,0.194c-0.086,0.194,0.001,0.421,0.195,0.508l1.503,0.67
			c0.051,0.022,0.104,0.033,0.157,0.033c0.147,0,0.287-0.085,0.351-0.228C-24.503,226.15-24.59,225.923-24.784,225.837z"/>
		<path d="M-41.113,225.076c-0.079-0.196-0.302-0.293-0.5-0.214l-1.529,0.609c-0.197,0.079-0.293,0.303-0.214,0.5
			c0.06,0.15,0.204,0.242,0.357,0.242c0.047,0,0.096-0.01,0.143-0.028l1.528-0.61C-41.131,225.497-41.035,225.273-41.113,225.076z"
			/>
		<path d="M-26.674,219.314c0.06,0.15,0.204,0.242,0.357,0.242c0.047,0,0.095-0.009,0.142-0.027l1.529-0.61
			c0.196-0.078,0.293-0.302,0.214-0.499c-0.079-0.197-0.302-0.293-0.5-0.215l-1.529,0.61
			C-26.657,218.894-26.754,219.117-26.674,219.314z"/>
		<path d="M-29.594,231.299c-0.061-0.047-0.14-0.064-0.215-0.046l-3.459,0.849c-0.113,0.028-0.192,0.128-0.192,0.244v0.88v0.361
			v2.373c-0.155-0.093-0.335-0.147-0.529-0.147c-0.57,0-1.034,0.464-1.034,1.033s0.464,1.033,1.034,1.033
			c0.569,0,1.033-0.464,1.033-1.033c0-0.028-0.001-0.056-0.004-0.084c0.003-0.014,0.004-0.027,0.004-0.042v-2.936l2.956-0.726v1.571
			c-0.155-0.093-0.335-0.147-0.53-0.147c-0.57,0-1.033,0.464-1.033,1.033s0.463,1.033,1.033,1.033c0.569,0,1.033-0.464,1.033-1.033
			c0-0.028-0.002-0.056-0.005-0.083c0.002-0.015,0.005-0.028,0.005-0.043v-2.652v-0.843v-0.397
			C-29.497,231.42-29.533,231.347-29.594,231.299z"/>
		<path d="M-35.371,229.673c-0.061-0.048-0.14-0.064-0.215-0.047l-2.734,0.671c-0.113,0.028-0.192,0.129-0.192,0.245v0.694v0.285
			v1.789c-0.111-0.053-0.234-0.082-0.365-0.082c-0.479,0-0.87,0.391-0.87,0.869c0,0.48,0.391,0.87,0.87,0.87
			c0.479,0,0.87-0.39,0.87-0.87c0-0.021-0.002-0.044-0.003-0.066c0.001-0.011,0.003-0.021,0.003-0.032v-2.279l2.229-0.547v1.087
			c-0.111-0.053-0.234-0.081-0.365-0.081c-0.479,0-0.869,0.39-0.869,0.869s0.39,0.869,0.869,0.869s0.87-0.39,0.87-0.869
			c0-0.022-0.001-0.045-0.003-0.066c0.001-0.012,0.003-0.022,0.003-0.034v-2.097v-0.665v-0.314
			C-35.274,229.794-35.31,229.721-35.371,229.673z"/>
	</g>
</g>
<g id="nyt_x5F_exporter_x5F_info" display="none">
</g>
</svg>
