<?xml version="1.0" encoding="iso-8859-1"?>
<!-- Generator: Adobe Illustrator 16.0.0, SVG Export Plug-In . SVG Version: 6.00 Build 0)  -->
<!DOCTYPE svg PUBLIC "-//W3C//DTD SVG 1.1//EN" "http://www.w3.org/Graphics/SVG/1.1/DTD/svg11.dtd">
<svg version="1.1" xmlns="http://www.w3.org/2000/svg" xmlns:xlink="http://www.w3.org/1999/xlink" x="0px" y="0px"
	 width="33.475px" height="47.259px" viewBox="0 0 33.475 47.259" style="enable-background:new 0 0 33.475 47.259;"
	 xml:space="preserve">
<g id="Layer_1">
	<g>
		<g>
			<path style="fill:#1D4381;" d="M16.737,0C7.508,0,0,7.508,0,16.737C0,32.92,15.436,46.451,16.094,47.019
				c0.186,0.159,0.414,0.24,0.644,0.24c0.23,0,0.459-0.081,0.644-0.24c0.656-0.569,16.094-14.101,16.094-30.281
				C33.475,7.508,25.967,0,16.737,0z"/>
		</g>
		<g>
			<path style="fill:#FFFFFF;" d="M24.112,13.376c0,1.191-0.964,2.155-2.155,2.155s-2.154-0.964-2.154-2.155
				c0-1.19,0.963-2.155,2.154-2.155S24.112,12.186,24.112,13.376L24.112,13.376z"/>
			<path style="fill:#FFFFFF;" d="M26.987,22.577c-0.421-0.189-3.198-1.569-3.198-1.569s-0.985-2.101-1.495-3.25
				c-0.479-1.082-0.825-1.363-1.507-1.363h-1.053c-0.551,0-0.752,0.202-1.09,0.392l-2.845,2.42
				c-0.249,0.144-0.409,0.357-0.505,0.661l-0.611,4.095c-0.088,0.653,0.258,0.931,0.648,1.011c0.316,0.067,0.791-0.093,0.889-0.552
				c0.076-0.379,0.652-3.729,0.652-3.729l1.855-1.427c-0.307,1.423-0.618,2.979-0.719,3.511c-0.178,0.905,0.273,1.591,0.631,2.129
				c0.324,0.488,4.525,7.11,5.076,7.83c0.556,0.72,1.061,1.077,1.831,0.647c0.647-0.362,0.538-1.187,0.181-1.798
				c-0.357-0.61-4.596-7.504-4.596-7.504l0.711-3.072c0,0,0.492,0.703,0.745,1.098c0.122,0.186,0.249,0.262,0.581,0.442
				c0.391,0.215,2.289,1.077,2.866,1.339c0.513,0.227,1.149,0.315,1.401-0.139C27.694,23.297,27.371,22.754,26.987,22.577
				L26.987,22.577z"/>
			<path style="fill:#FFFFFF;" d="M17.609,25.363l-0.858,3.027c0,0-1.793,2.593-2.29,3.316c-0.375,0.547-0.656,1.213-0.017,1.696
				c0.72,0.543,1.296-0.164,1.667-0.585c0.341-0.383,1.729-2.324,2.121-2.816c0.261-0.332,0.404-0.609,0.518-0.888
				c0.072-0.185,0.354-0.951,0.535-1.448L17.609,25.363z"/>
		</g>
		<g>
			<path style="fill:#FFFFFF;" d="M10.28,5.297h0.479v1.824H10.28V5.297z"/>
			<path style="fill:#FFFFFF;" d="M10.252,14.166h0.48v1.824h-0.48V14.166z"/>
			<path style="fill:#FFFFFF;" d="M14.057,10.291h1.824v0.479h-1.824V10.291z"/>
			<path style="fill:#FFFFFF;" d="M5.152,10.262h1.824v0.479H5.152V10.262z"/>
			<path style="fill:#FFFFFF;" d="M5.847,8.022L6.08,7.604l1.593,0.883L7.439,8.907L5.847,8.022z"/>
			<path style="fill:#FFFFFF;" d="M7.76,6.072l0.406-0.255l0.967,1.547L8.727,7.617L7.76,6.072z"/>
			<path style="fill:#FFFFFF;" d="M12.097,13.764l0.413-0.238l0.912,1.58l-0.414,0.238L12.097,13.764z"/>
			<path style="fill:#FFFFFF;" d="M13.49,12.488l0.233-0.419l1.596,0.884l-0.233,0.42L13.49,12.488z"/>
			<path style="fill:#FFFFFF;" d="M8.06,15.366l-0.419-0.232l0.883-1.597l0.421,0.232L8.06,15.366z"/>
			<path style="fill:#FFFFFF;" d="M5.939,13.34l-0.252-0.406l1.546-0.968l0.253,0.406L5.939,13.34z"/>
			<path style="fill:#FFFFFF;" d="M13.662,9.06l-0.24-0.416l1.579-0.912l0.241,0.417L13.662,9.06z"/>
			<path style="fill:#FFFFFF;" d="M12.443,7.693l-0.421-0.234l0.885-1.594l0.419,0.232L12.443,7.693z"/>
			<path style="fill:#FFFFFF;" d="M7.559,10.638c0-1.636,1.328-2.963,2.964-2.963c1.635,0,2.96,1.327,2.96,2.963
				s-1.325,2.962-2.96,2.962C8.887,13.6,7.559,12.273,7.559,10.638"/>
		</g>
	</g>
</g>
<g id="nyt_x5F_exporter_x5F_info" style="display:none;">
</g>
</svg>
