<?xml version="1.0" encoding="utf-8"?>
<!-- Generator: Adobe Illustrator 16.0.0, SVG Export Plug-In . SVG Version: 6.00 Build 0)  -->
<!DOCTYPE svg PUBLIC "-//W3C//DTD SVG 1.1//EN" "http://www.w3.org/Graphics/SVG/1.1/DTD/svg11.dtd">
<svg version="1.1" xmlns="http://www.w3.org/2000/svg" xmlns:xlink="http://www.w3.org/1999/xlink" x="0px" y="0px"
	 width="22.619px" height="28.363px" viewBox="-78.958 221.769 22.619 28.363"
	 enable-background="new -78.958 221.769 22.619 28.363" xml:space="preserve">
<g id="Layer_1">
	<g>
		<path fill="#231F20" d="M-59.755,229.908c0,1.191-0.965,2.155-2.156,2.155c-1.19,0-2.154-0.964-2.154-2.155
			s0.964-2.155,2.154-2.155C-60.72,227.753-59.755,228.717-59.755,229.908L-59.755,229.908z"/>
		<path fill="#231F20" d="M-56.88,239.109c-0.422-0.189-3.199-1.57-3.199-1.57s-0.985-2.1-1.494-3.249
			c-0.48-1.082-0.825-1.363-1.508-1.363h-1.052c-0.552,0-0.753,0.202-1.091,0.392l-2.845,2.42c-0.249,0.143-0.408,0.357-0.505,0.66
			l-0.61,4.096c-0.089,0.652,0.257,0.931,0.648,1.01c0.315,0.068,0.791-0.092,0.888-0.551c0.076-0.379,0.652-3.729,0.652-3.729
			l1.856-1.427c-0.308,1.423-0.618,2.979-0.72,3.51c-0.178,0.906,0.273,1.592,0.631,2.13c0.324,0.489,4.525,7.11,5.076,7.829
			c0.556,0.721,1.061,1.078,1.831,0.648c0.648-0.362,0.538-1.188,0.181-1.798s-4.596-7.504-4.596-7.504l0.711-3.073
			c0,0,0.492,0.703,0.745,1.099c0.122,0.186,0.249,0.261,0.581,0.442c0.392,0.215,2.29,1.077,2.866,1.338
			c0.514,0.228,1.149,0.316,1.401-0.139C-56.173,239.829-56.498,239.286-56.88,239.109L-56.88,239.109z"/>
		<path fill="#231F20" d="M-66.259,241.896l-0.858,3.026c0,0-1.793,2.594-2.29,3.317c-0.374,0.547-0.656,1.212-0.017,1.696
			c0.72,0.543,1.297-0.164,1.667-0.586c0.341-0.383,1.73-2.323,2.121-2.815c0.262-0.333,0.404-0.61,0.518-0.888
			c0.072-0.186,0.354-0.951,0.535-1.448L-66.259,241.896z"/>
	</g>
	<g>
		<path fill="#231F20" d="M-73.587,221.83h0.479v1.823h-0.479V221.83z"/>
		<path fill="#231F20" d="M-73.617,230.697h0.48v1.824h-0.48V230.697z"/>
		<path fill="#231F20" d="M-69.812,226.823h1.824v0.479h-1.824V226.823z"/>
		<path fill="#231F20" d="M-78.716,226.793h1.824v0.48h-1.824V226.793z"/>
		<path fill="#231F20" d="M-78.022,224.555l0.233-0.42l1.594,0.885l-0.233,0.42L-78.022,224.555z"/>
		<path fill="#231F20" d="M-76.109,222.604l0.406-0.255l0.967,1.547l-0.406,0.254L-76.109,222.604z"/>
		<path fill="#231F20" d="M-71.772,230.296l0.413-0.238l0.912,1.579l-0.414,0.239L-71.772,230.296z"/>
		<path fill="#231F20" d="M-70.378,229.021l0.233-0.419l1.596,0.883l-0.233,0.421L-70.378,229.021z"/>
		<path fill="#231F20" d="M-75.809,231.898l-0.419-0.232l0.884-1.597l0.421,0.231L-75.809,231.898z"/>
		<path fill="#231F20" d="M-77.929,229.871l-0.252-0.405l1.546-0.968l0.253,0.406L-77.929,229.871z"/>
		<path fill="#231F20" d="M-70.207,225.592l-0.24-0.416l1.58-0.912l0.24,0.416L-70.207,225.592z"/>
		<path fill="#231F20" d="M-71.425,224.225l-0.421-0.234l0.885-1.593l0.419,0.233L-71.425,224.225z"/>
		<path fill="#231F20" d="M-76.309,227.17c0-1.637,1.327-2.963,2.963-2.963c1.635,0,2.961,1.326,2.961,2.963
			c0,1.636-1.326,2.961-2.961,2.961C-74.982,230.132-76.309,228.806-76.309,227.17"/>
	</g>
</g>
<g id="nyt_x5F_exporter_x5F_info" display="none">
</g>
</svg>
