<?xml version="1.0" encoding="utf-8"?>
<!-- Generator: Adobe Illustrator 16.0.0, SVG Export Plug-In . SVG Version: 6.00 Build 0)  -->
<!DOCTYPE svg PUBLIC "-//W3C//DTD SVG 1.1//EN" "http://www.w3.org/Graphics/SVG/1.1/DTD/svg11.dtd">
<svg version="1.1" xmlns="http://www.w3.org/2000/svg" xmlns:xlink="http://www.w3.org/1999/xlink" x="0px" y="0px" width="66.75px"
	 height="56.635px" viewBox="-26.457 85.268 66.75 56.635" enable-background="new -26.457 85.268 66.75 56.635"
	 xml:space="preserve">
<g id="Layer_1">
	<g>
		<g>
			<g>
				<path fill="#001DAA" d="M22.948,90.369h-33.232c-1.527,0-2.771,1.238-2.771,2.768v7.074v4.615v13.166
					c0,1.531,1.238,2.768,2.77,2.768h33.234c1.527,0,2.77-1.234,2.77-2.768v-13.166v-4.616v-7.074
					C25.717,91.607,24.479,90.369,22.948,90.369z M22.946,97.966v20.025h-33.233v-13.165h0.002v-6.711h33.232v2.094L22.946,97.966z"
					/>
				<path fill="#001DAA" d="M-7.453,113.208H9.693c0.367,0,0.666-0.299,0.666-0.668s-0.299-0.668-0.666-0.668H-7.453
					c-0.371,0-0.668,0.299-0.668,0.668S-7.824,113.208-7.453,113.208z"/>
				<path fill="#001DAA" d="M-7.453,115.988H9.693c0.367,0,0.666-0.299,0.666-0.666c0-0.371-0.299-0.67-0.666-0.67H-7.453
					c-0.371,0-0.668,0.299-0.668,0.67C-8.121,115.691-7.824,115.988-7.453,115.988z"/>
				<rect x="-8.121" y="100.509" fill="#001DAA" width="18.48" height="5.81"/>
				<path fill="#001DAA" d="M-7.453,110.43H9.693c0.367,0,0.666-0.3,0.666-0.669c0-0.368-0.299-0.665-0.666-0.665H-7.453
					c-0.371,0-0.668,0.297-0.668,0.665C-8.121,110.13-7.824,110.43-7.453,110.43z"/>
				<path fill="#001DAA" d="M13.262,115.988h6.855c0.367,0,0.666-0.301,0.666-0.668c0-0.371-0.299-0.668-0.666-0.668h-6.855
					c-0.371,0-0.67,0.297-0.67,0.668C12.592,115.689,12.891,115.988,13.262,115.988z"/>
				<path fill="#001DAA" d="M13.262,113.208h6.855c0.367,0,0.666-0.299,0.666-0.668s-0.299-0.668-0.666-0.668h-6.855
					c-0.371,0-0.67,0.299-0.67,0.668S12.891,113.208,13.262,113.208z"/>
				<path fill="#001DAA" d="M13.262,110.333h6.855c0.367,0,0.666-0.299,0.666-0.668s-0.299-0.668-0.666-0.668h-6.855
					c-0.371,0-0.67,0.299-0.67,0.668S12.891,110.333,13.262,110.333z"/>
				<g>
					<path fill="#001DAA" d="M11.772,106.208l2.117-5.513h0.786l2.256,5.513H16.1l-0.643-1.67h-2.305l-0.605,1.67H11.772z
						 M13.363,103.945h1.868l-0.574-1.525c-0.176-0.465-0.307-0.846-0.392-1.145c-0.069,0.354-0.169,0.705-0.297,1.053
						L13.363,103.945z"/>
					<path fill="#001DAA" d="M18.051,106.208h-0.627v-5.513H18.1v1.968c0.286-0.358,0.65-0.539,1.095-0.539
						c0.245,0,0.478,0.051,0.697,0.147c0.22,0.101,0.399,0.238,0.542,0.418c0.141,0.181,0.252,0.396,0.332,0.648
						c0.08,0.254,0.121,0.523,0.121,0.812c0,0.685-0.17,1.213-0.508,1.586c-0.339,0.375-0.744,0.562-1.219,0.562
						c-0.471,0-0.841-0.194-1.109-0.59V106.208z M18.043,104.182c0,0.479,0.066,0.825,0.196,1.038
						c0.213,0.349,0.501,0.521,0.864,0.521c0.297,0,0.552-0.127,0.768-0.386c0.216-0.256,0.323-0.64,0.323-1.146
						c0-0.521-0.104-0.906-0.31-1.154c-0.207-0.248-0.457-0.373-0.75-0.373c-0.297,0-0.553,0.129-0.768,0.387
						C18.152,103.324,18.043,103.695,18.043,104.182z"/>
				</g>
			</g>
			<rect x="-26.457" y="122.527" fill="none" width="66.75" height="19.375"/>
			<text transform="matrix(1 0 0 1 -22.8042 135.0732)" fill="#001DAA" font-family="'Roboto-Regular'" font-size="16">Register</text>
		</g>
	</g>
</g>
<g id="nyt_x5F_exporter_x5F_info" display="none">
</g>
</svg>
