<?xml version="1.0" encoding="utf-8"?>
<!-- Generator: Adobe Illustrator 16.0.0, SVG Export Plug-In . SVG Version: 6.00 Build 0)  -->
<!DOCTYPE svg PUBLIC "-//W3C//DTD SVG 1.1//EN" "http://www.w3.org/Graphics/SVG/1.1/DTD/svg11.dtd">
<svg version="1.1" xmlns="http://www.w3.org/2000/svg" xmlns:xlink="http://www.w3.org/1999/xlink" x="0px" y="0px" width="66.75px"
	 height="56.635px" viewBox="-157.457 55.268 66.75 56.635" enable-background="new -157.457 55.268 66.75 56.635"
	 xml:space="preserve">
<g id="Layer_1">
	<g>
		<g>
			<g>
				<path fill="#004084" d="M-108.052,60.369h-33.232c-1.527,0-2.771,1.238-2.771,2.768v7.074v4.615v13.166
					c0,1.531,1.238,2.768,2.77,2.768h33.234c1.527,0,2.77-1.234,2.77-2.768V74.826V70.21v-7.074
					C-105.283,61.607-106.521,60.369-108.052,60.369z M-108.054,67.966v20.025h-33.233V74.826h0.002v-6.711h33.232v2.094
					L-108.054,67.966z"/>
				<path fill="#004084" d="M-138.453,83.208h17.146c0.367,0,0.666-0.299,0.666-0.668s-0.299-0.668-0.666-0.668h-17.146
					c-0.371,0-0.668,0.299-0.668,0.668S-138.824,83.208-138.453,83.208z"/>
				<path fill="#004084" d="M-138.453,85.988h17.146c0.367,0,0.666-0.299,0.666-0.666c0-0.371-0.299-0.67-0.666-0.67h-17.146
					c-0.371,0-0.668,0.299-0.668,0.67C-139.121,85.691-138.824,85.988-138.453,85.988z"/>
				<rect x="-139.121" y="70.509" fill="#004084" width="18.48" height="5.81"/>
				<path fill="#004084" d="M-138.453,80.43h17.146c0.367,0,0.666-0.3,0.666-0.669c0-0.368-0.299-0.665-0.666-0.665h-17.146
					c-0.371,0-0.668,0.297-0.668,0.665C-139.121,80.13-138.824,80.43-138.453,80.43z"/>
				<path fill="#004084" d="M-117.738,85.988h6.855c0.367,0,0.666-0.301,0.666-0.668c0-0.371-0.299-0.668-0.666-0.668h-6.855
					c-0.371,0-0.67,0.297-0.67,0.668C-118.408,85.689-118.109,85.988-117.738,85.988z"/>
				<path fill="#004084" d="M-117.738,83.208h6.855c0.367,0,0.666-0.299,0.666-0.668s-0.299-0.668-0.666-0.668h-6.855
					c-0.371,0-0.67,0.299-0.67,0.668S-118.109,83.208-117.738,83.208z"/>
				<path fill="#004084" d="M-117.738,80.333h6.855c0.367,0,0.666-0.299,0.666-0.668s-0.299-0.668-0.666-0.668h-6.855
					c-0.371,0-0.67,0.299-0.67,0.668S-118.109,80.333-117.738,80.333z"/>
				<g>
					<path fill="#004084" d="M-119.228,76.208l2.117-5.513h0.786l2.256,5.513h-0.831l-0.643-1.67h-2.305l-0.605,1.67H-119.228z
						 M-117.637,73.945h1.868l-0.574-1.525c-0.176-0.465-0.307-0.846-0.392-1.145c-0.069,0.354-0.169,0.705-0.297,1.053
						L-117.637,73.945z"/>
					<path fill="#004084" d="M-112.949,76.208h-0.627v-5.513h0.676v1.968c0.286-0.358,0.65-0.539,1.095-0.539
						c0.245,0,0.478,0.051,0.697,0.147c0.22,0.101,0.399,0.238,0.542,0.418c0.141,0.181,0.252,0.396,0.332,0.648
						c0.08,0.254,0.121,0.523,0.121,0.812c0,0.685-0.17,1.213-0.508,1.586c-0.339,0.375-0.744,0.562-1.219,0.562
						c-0.471,0-0.841-0.194-1.109-0.59V76.208z M-112.957,74.182c0,0.479,0.066,0.825,0.196,1.038
						c0.213,0.349,0.501,0.521,0.864,0.521c0.297,0,0.552-0.127,0.768-0.386c0.216-0.256,0.323-0.64,0.323-1.146
						c0-0.521-0.104-0.906-0.31-1.154c-0.207-0.248-0.457-0.373-0.75-0.373c-0.297,0-0.553,0.129-0.768,0.387
						C-112.848,73.324-112.957,73.695-112.957,74.182z"/>
				</g>
			</g>
			<rect x="-157.457" y="92.527" fill="none" width="66.75" height="19.375"/>
			<text transform="matrix(1 0 0 1 -153.8042 105.0732)" fill="#004084" font-family="'PlayfairDisplay-Regular'" font-size="16">Register</text>
		</g>
	</g>
</g>
<g id="nyt_x5F_exporter_x5F_info" display="none">
</g>
</svg>
