<?xml version="1.0" encoding="utf-8"?>
<!-- Generator: Adobe Illustrator 16.0.0, SVG Export Plug-In . SVG Version: 6.00 Build 0)  -->
<!DOCTYPE svg PUBLIC "-//W3C//DTD SVG 1.1//EN" "http://www.w3.org/Graphics/SVG/1.1/DTD/svg11.dtd">
<svg version="1.1" id="Layer_1" xmlns="http://www.w3.org/2000/svg" xmlns:xlink="http://www.w3.org/1999/xlink" x="0px" y="0px"
	 width="66.75px" height="56.635px" viewBox="70 0 66.75 56.635" enable-background="new 70 0 66.75 56.635" xml:space="preserve">
<g id="Layer_1_3_">
	<g>
		<g>
			<path fill="#0AFD8D" d="M119.404,5.103H86.173c-1.526,0-2.771,1.237-2.771,2.769v7.073v4.615v13.166c0,1.53,1.238,2.77,2.77,2.77
				h33.234c1.527,0,2.77-1.232,2.77-2.77V19.56v-4.616V7.869C122.174,6.34,120.936,5.103,119.404,5.103z M119.402,12.699v20.024
				H86.17V19.56h0.002v-6.711h33.232v2.094L119.402,12.699z"/>
			<path fill="#0AFD8D" d="M89.004,27.94h17.146c0.367,0,0.666-0.299,0.666-0.668s-0.299-0.668-0.666-0.668H89.004
				c-0.371,0-0.668,0.299-0.668,0.668S88.633,27.94,89.004,27.94z"/>
			<path fill="#0AFD8D" d="M89.004,30.722h17.146c0.367,0,0.666-0.3,0.666-0.666c0-0.371-0.299-0.671-0.666-0.671H89.004
				c-0.371,0-0.668,0.3-0.668,0.671C88.336,30.424,88.633,30.722,89.004,30.722z"/>
			<rect x="88.336" y="15.242" fill="#0AFD8D" width="18.48" height="5.811"/>
			<path fill="#0AFD8D" d="M89.004,25.164h17.146c0.367,0,0.666-0.301,0.666-0.67c0-0.367-0.299-0.664-0.666-0.664H89.004
				c-0.371,0-0.668,0.297-0.668,0.664C88.336,24.863,88.633,25.164,89.004,25.164z"/>
			<path fill="#0AFD8D" d="M109.719,30.722h6.855c0.367,0,0.666-0.302,0.666-0.669c0-0.37-0.299-0.668-0.666-0.668h-6.855
				c-0.371,0-0.67,0.298-0.67,0.668C109.049,30.422,109.348,30.722,109.719,30.722z"/>
			<path fill="#0AFD8D" d="M109.719,27.94h6.855c0.367,0,0.666-0.299,0.666-0.668s-0.299-0.668-0.666-0.668h-6.855
				c-0.371,0-0.67,0.299-0.67,0.668S109.348,27.94,109.719,27.94z"/>
			<path fill="#0AFD8D" d="M109.719,25.066h6.855c0.367,0,0.666-0.299,0.666-0.668s-0.299-0.668-0.666-0.668h-6.855
				c-0.371,0-0.67,0.299-0.67,0.668S109.348,25.066,109.719,25.066z"/>
			<g>
				<path fill="#0AFD8D" d="M108.229,20.941l2.117-5.514h0.786l2.257,5.514h-0.832l-0.643-1.67h-2.305l-0.605,1.67H108.229z
					 M109.82,18.678h1.867l-0.574-1.524c-0.176-0.465-0.307-0.846-0.391-1.146c-0.07,0.354-0.172,0.705-0.3,1.054L109.82,18.678z"/>
				<path fill="#0AFD8D" d="M114.508,20.941h-0.627v-5.514h0.676v1.969c0.287-0.357,0.65-0.539,1.096-0.539
					c0.244,0,0.479,0.051,0.697,0.146c0.219,0.102,0.398,0.238,0.541,0.418c0.144,0.182,0.252,0.396,0.332,0.648
					c0.08,0.254,0.121,0.523,0.121,0.812c0,0.685-0.17,1.213-0.508,1.586c-0.339,0.375-0.744,0.562-1.219,0.562
					c-0.471,0-0.842-0.194-1.109-0.59V20.941z M114.5,18.916c0,0.479,0.066,0.824,0.195,1.037c0.214,0.35,0.502,0.521,0.865,0.521
					c0.297,0,0.551-0.127,0.768-0.387c0.216-0.256,0.322-0.64,0.322-1.146c0-0.521-0.104-0.905-0.312-1.153s-0.457-0.373-0.75-0.373
					c-0.297,0-0.553,0.129-0.769,0.387C114.609,18.058,114.5,18.428,114.5,18.916z"/>
			</g>
		</g>
		<g enable-background="new    ">
			<path fill="#0AFD8D" d="M79.229,46.493v4.313h-1.347V40.86h3.603c1.089,0,1.921,0.241,2.495,0.725s0.861,1.185,0.861,2.105
				c0,0.511-0.133,0.955-0.4,1.333c-0.266,0.378-0.654,0.679-1.165,0.902c0.547,0.178,0.94,0.466,1.179,0.865
				c0.24,0.398,0.359,0.892,0.359,1.479v0.937c0,0.31,0.034,0.588,0.103,0.834s0.187,0.446,0.355,0.602v0.164h-1.388
				c-0.178-0.155-0.291-0.383-0.342-0.684s-0.075-0.61-0.075-0.93v-0.909c0-0.538-0.157-0.971-0.472-1.299s-0.736-0.492-1.265-0.492
				H79.229z M79.229,45.434h2.119c0.761,0,1.31-0.145,1.644-0.434c0.336-0.288,0.503-0.729,0.503-1.32
				c0-0.559-0.163-0.992-0.489-1.299c-0.325-0.308-0.832-0.461-1.521-0.461h-2.256V45.434z"/>
			<path fill="#0AFD8D" d="M89.976,50.95c-1.03,0-1.849-0.343-2.458-1.028c-0.607-0.687-0.912-1.576-0.912-2.67v-0.301
				c0-1.053,0.313-1.929,0.939-2.629c0.627-0.699,1.369-1.049,2.226-1.049c0.998,0,1.753,0.301,2.263,0.902s0.766,1.403,0.766,2.406
				v0.841H88l-0.021,0.034c0.014,0.709,0.194,1.292,0.54,1.748c0.346,0.457,0.832,0.686,1.456,0.686c0.456,0,0.855-0.064,1.2-0.195
				c0.344-0.129,0.641-0.309,0.892-0.536l0.526,0.876c-0.264,0.262-0.613,0.479-1.046,0.653
				C91.115,50.863,90.591,50.95,89.976,50.95z M89.771,44.333c-0.451,0-0.837,0.189-1.155,0.569
				c-0.318,0.379-0.516,0.854-0.588,1.427l0.014,0.034h3.411v-0.177c0-0.527-0.142-0.968-0.424-1.322S90.326,44.333,89.771,44.333z"
				/>
			<path fill="#0AFD8D" d="M94.016,47.245c0-1.189,0.26-2.148,0.779-2.878s1.237-1.094,2.153-1.094c0.47,0,0.882,0.095,1.237,0.283
				c0.355,0.189,0.652,0.462,0.889,0.817l0.164-0.964h1.073v7.438c0,0.948-0.276,1.676-0.827,2.184
				c-0.551,0.509-1.347,0.763-2.386,0.763c-0.355,0-0.739-0.049-1.151-0.147c-0.413-0.098-0.776-0.23-1.091-0.399l0.342-1.046
				c0.241,0.137,0.533,0.247,0.875,0.332c0.342,0.084,0.679,0.126,1.012,0.126c0.656,0,1.134-0.149,1.433-0.448
				c0.298-0.298,0.447-0.753,0.447-1.363v-0.834c-0.242,0.31-0.531,0.543-0.868,0.701c-0.337,0.156-0.725,0.235-1.162,0.235
				c-0.907,0-1.62-0.328-2.14-0.984s-0.779-1.516-0.779-2.577V47.245z M95.362,47.389c0,0.743,0.157,1.34,0.472,1.791
				s0.793,0.677,1.436,0.677c0.406,0,0.745-0.093,1.019-0.276c0.273-0.186,0.499-0.446,0.677-0.783v-3.404
				c-0.174-0.314-0.398-0.564-0.677-0.748c-0.278-0.186-0.612-0.277-1.005-0.277c-0.643,0-1.123,0.269-1.442,0.807
				s-0.479,1.229-0.479,2.071V47.389z"/>
			<path fill="#0AFD8D" d="M103.723,41.517h-1.347v-1.374h1.347V41.517z M103.723,50.807h-1.347V43.41h1.347V50.807z"/>
			<path fill="#0AFD8D" d="M110.094,48.838c0-0.296-0.113-0.54-0.338-0.731c-0.227-0.191-0.653-0.357-1.282-0.499
				c-0.897-0.195-1.573-0.461-2.026-0.795c-0.454-0.335-0.681-0.791-0.681-1.369c0-0.601,0.255-1.112,0.766-1.535
				s1.176-0.635,1.996-0.635c0.861,0,1.546,0.221,2.054,0.663c0.509,0.442,0.752,0.979,0.729,1.613l-0.014,0.041h-1.285
				c0-0.323-0.136-0.614-0.406-0.872c-0.271-0.257-0.631-0.386-1.077-0.386c-0.479,0-0.834,0.104-1.066,0.314
				s-0.349,0.463-0.349,0.759c0,0.292,0.103,0.521,0.308,0.69s0.622,0.319,1.251,0.451c0.934,0.2,1.629,0.473,2.085,0.817
				c0.456,0.344,0.684,0.805,0.684,1.384c0,0.656-0.266,1.188-0.796,1.593c-0.531,0.405-1.225,0.608-2.082,0.608
				c-0.943,0-1.686-0.239-2.229-0.718s-0.8-1.037-0.772-1.675l0.014-0.041h1.285c0.022,0.477,0.2,0.824,0.533,1.044
				s0.722,0.33,1.169,0.33c0.479,0,0.854-0.097,1.125-0.291C109.958,49.406,110.094,49.152,110.094,48.838z"/>
			<path fill="#0AFD8D" d="M114.893,41.626v1.784h1.401v0.998h-1.401v4.491c0,0.347,0.072,0.59,0.215,0.731
				c0.145,0.142,0.334,0.212,0.571,0.212c0.077,0,0.163-0.009,0.257-0.027c0.093-0.019,0.176-0.041,0.249-0.068l0.178,0.923
				c-0.101,0.082-0.247,0.149-0.44,0.201c-0.194,0.053-0.389,0.079-0.585,0.079c-0.547,0-0.981-0.165-1.306-0.495
				c-0.324-0.331-0.485-0.85-0.485-1.556v-4.491h-1.176V43.41h1.176v-1.784H114.893z"/>
			<path fill="#0AFD8D" d="M121.024,50.95c-1.03,0-1.849-0.343-2.458-1.028c-0.607-0.687-0.912-1.576-0.912-2.67v-0.301
				c0-1.053,0.313-1.929,0.939-2.629c0.627-0.699,1.369-1.049,2.226-1.049c0.998,0,1.753,0.301,2.263,0.902s0.766,1.403,0.766,2.406
				v0.841h-4.799l-0.021,0.034c0.014,0.709,0.194,1.292,0.54,1.748c0.346,0.457,0.832,0.686,1.456,0.686
				c0.456,0,0.855-0.064,1.2-0.195c0.344-0.129,0.641-0.309,0.892-0.536l0.526,0.876c-0.264,0.262-0.613,0.479-1.046,0.653
				C122.164,50.863,121.64,50.95,121.024,50.95z M120.819,44.333c-0.451,0-0.837,0.189-1.155,0.569
				c-0.318,0.379-0.516,0.854-0.588,1.427l0.014,0.034h3.411v-0.177c0-0.527-0.142-0.968-0.424-1.322S121.375,44.333,120.819,44.333
				z"/>
			<path fill="#0AFD8D" d="M128.858,44.6l-0.69-0.041c-0.355,0-0.655,0.084-0.898,0.253c-0.244,0.169-0.432,0.405-0.564,0.711v5.284
				h-1.347V43.41h1.203l0.13,1.08c0.209-0.383,0.469-0.682,0.775-0.896c0.309-0.214,0.662-0.321,1.063-0.321
				c0.101,0,0.196,0.008,0.287,0.023c0.091,0.017,0.167,0.033,0.226,0.052L128.858,44.6z"/>
		</g>
	</g>
</g>
</svg>
