<?xml version="1.0" encoding="utf-8"?>
<!-- Generator: Adobe Illustrator 16.0.0, SVG Export Plug-In . SVG Version: 6.00 Build 0)  -->
<!DOCTYPE svg PUBLIC "-//W3C//DTD SVG 1.1//EN" "http://www.w3.org/Graphics/SVG/1.1/DTD/svg11.dtd">
<svg version="1.1" id="Layer_1" xmlns="http://www.w3.org/2000/svg" xmlns:xlink="http://www.w3.org/1999/xlink" x="0px" y="0px"
	 width="66.75px" height="56.635px" viewBox="0 0 66.75 56.635" enable-background="new 0 0 66.75 56.635" xml:space="preserve">
<g id="Layer_1_1_">
	<g>
		<g>
			<path fill="#001DAA" d="M49.403,5.103h-33.23c-1.526,0-2.771,1.237-2.771,2.769v7.073v4.615v13.166
				c0,1.53,1.238,2.771,2.77,2.771h33.233c1.527,0,2.77-1.231,2.77-2.771V19.56v-4.616V7.869C52.173,6.34,50.935,5.103,49.403,5.103
				z M49.401,12.699v20.024H16.17V19.56h0.002v-6.711h33.231v2.094L49.401,12.699z"/>
			<path fill="#001DAA" d="M19.004,27.941h17.146c0.367,0,0.666-0.299,0.666-0.668s-0.299-0.668-0.666-0.668H19.004
				c-0.371,0-0.668,0.299-0.668,0.668S18.633,27.941,19.004,27.941z"/>
			<path fill="#001DAA" d="M19.004,30.722h17.146c0.367,0,0.666-0.3,0.666-0.666c0-0.371-0.299-0.671-0.666-0.671H19.004
				c-0.371,0-0.668,0.3-0.668,0.671C18.336,30.424,18.633,30.722,19.004,30.722z"/>
			<rect x="18.336" y="15.242" fill="#001DAA" width="18.479" height="5.811"/>
			<path fill="#001DAA" d="M19.004,25.164h17.146c0.367,0,0.666-0.301,0.666-0.67c0-0.367-0.299-0.664-0.666-0.664H19.004
				c-0.371,0-0.668,0.297-0.668,0.664C18.336,24.863,18.633,25.164,19.004,25.164z"/>
			<path fill="#001DAA" d="M39.718,30.722h6.855c0.367,0,0.666-0.302,0.666-0.669c0-0.37-0.299-0.668-0.666-0.668h-6.855
				c-0.371,0-0.67,0.298-0.67,0.668C39.048,30.422,39.347,30.722,39.718,30.722z"/>
			<path fill="#001DAA" d="M39.718,27.941h6.855c0.367,0,0.666-0.299,0.666-0.668s-0.299-0.668-0.666-0.668h-6.855
				c-0.371,0-0.67,0.299-0.67,0.668S39.347,27.941,39.718,27.941z"/>
			<path fill="#001DAA" d="M39.718,25.066h6.855c0.367,0,0.666-0.299,0.666-0.668s-0.299-0.668-0.666-0.668h-6.855
				c-0.371,0-0.67,0.299-0.67,0.668S39.347,25.066,39.718,25.066z"/>
			<g>
				<path fill="#001DAA" d="M38.228,20.941l2.117-5.514h0.787l2.256,5.514h-0.832l-0.643-1.67h-2.305l-0.605,1.67H38.228z
					 M39.819,18.678h1.867l-0.574-1.524c-0.176-0.465-0.307-0.846-0.391-1.146c-0.07,0.354-0.172,0.705-0.301,1.054L39.819,18.678z"
					/>
				<path fill="#001DAA" d="M44.507,20.941H43.88v-5.514h0.676v1.969c0.287-0.357,0.65-0.539,1.096-0.539
					c0.244,0,0.48,0.051,0.697,0.146c0.219,0.102,0.398,0.238,0.541,0.418c0.145,0.182,0.252,0.396,0.332,0.648
					c0.08,0.254,0.121,0.523,0.121,0.812c0,0.685-0.17,1.213-0.508,1.586c-0.338,0.375-0.744,0.562-1.219,0.562
					c-0.471,0-0.842-0.194-1.109-0.59V20.941z M44.499,18.916c0,0.479,0.066,0.824,0.195,1.037c0.215,0.35,0.502,0.521,0.865,0.521
					c0.297,0,0.551-0.127,0.768-0.387c0.217-0.256,0.322-0.64,0.322-1.146c0-0.521-0.104-0.905-0.312-1.153
					c-0.207-0.248-0.457-0.373-0.75-0.373c-0.297,0-0.553,0.129-0.77,0.387C44.608,18.058,44.499,18.428,44.499,18.916z"/>
			</g>
		</g>
		<rect y="35.26" fill="none" width="66.749" height="19.375"/>
		<g enable-background="new    ">
			<path fill="#001DAA" d="M9.229,46.493v4.312H7.883V40.86h3.604c1.089,0,1.921,0.24,2.494,0.725
				c0.574,0.484,0.861,1.186,0.861,2.105c0,0.511-0.133,0.955-0.4,1.332c-0.267,0.379-0.654,0.68-1.166,0.902
				c0.548,0.178,0.94,0.467,1.18,0.865c0.238,0.398,0.359,0.893,0.359,1.479v0.938c0,0.311,0.033,0.588,0.103,0.834
				s0.187,0.445,0.354,0.602v0.164h-1.388c-0.178-0.154-0.292-0.383-0.342-0.684s-0.075-0.609-0.075-0.93v-0.909
				c0-0.538-0.156-0.972-0.472-1.3c-0.315-0.327-0.736-0.491-1.265-0.491L9.229,46.493L9.229,46.493z M9.229,45.435h2.12
				c0.76,0,1.309-0.146,1.644-0.435c0.335-0.288,0.502-0.729,0.502-1.319c0-0.56-0.163-0.992-0.489-1.3s-0.833-0.461-1.521-0.461
				H9.229V45.435z"/>
			<path fill="#001DAA" d="M19.977,50.95c-1.031,0-1.85-0.344-2.459-1.028c-0.607-0.687-0.912-1.575-0.912-2.67v-0.301
				c0-1.054,0.312-1.929,0.939-2.629c0.626-0.699,1.368-1.05,2.225-1.05c0.998,0,1.752,0.302,2.264,0.902
				c0.511,0.602,0.766,1.403,0.766,2.406v0.841H18l-0.021,0.034c0.015,0.709,0.194,1.292,0.541,1.748
				c0.346,0.457,0.832,0.686,1.455,0.686c0.457,0,0.855-0.063,1.2-0.195c0.345-0.129,0.642-0.309,0.892-0.535l0.526,0.876
				c-0.264,0.262-0.612,0.479-1.046,0.653C21.115,50.862,20.591,50.95,19.977,50.95z M19.771,44.333
				c-0.451,0-0.836,0.189-1.155,0.568c-0.319,0.38-0.515,0.854-0.589,1.428l0.015,0.033h3.411v-0.176
				c0-0.527-0.141-0.969-0.424-1.322C20.746,44.51,20.327,44.333,19.771,44.333z"/>
			<path fill="#001DAA" d="M24.016,47.245c0-1.189,0.26-2.148,0.779-2.878s1.237-1.095,2.153-1.095c0.469,0,0.882,0.096,1.236,0.283
				c0.355,0.189,0.652,0.463,0.89,0.817l0.163-0.964h1.074v7.438c0,0.948-0.276,1.676-0.828,2.185
				c-0.551,0.509-1.346,0.763-2.385,0.763c-0.355,0-0.74-0.049-1.152-0.146c-0.413-0.099-0.776-0.23-1.091-0.399l0.343-1.046
				c0.241,0.137,0.533,0.247,0.875,0.332c0.342,0.084,0.679,0.126,1.012,0.126c0.656,0,1.135-0.149,1.432-0.448
				c0.299-0.298,0.448-0.753,0.448-1.363v-0.834c-0.241,0.311-0.53,0.543-0.868,0.701c-0.337,0.156-0.725,0.235-1.162,0.235
				c-0.906,0-1.62-0.328-2.14-0.984c-0.52-0.655-0.779-1.516-0.779-2.577V47.245z M25.363,47.39c0,0.742,0.156,1.34,0.472,1.791
				c0.314,0.45,0.793,0.676,1.436,0.676c0.406,0,0.746-0.092,1.02-0.275c0.273-0.186,0.499-0.446,0.677-0.783v-3.404
				c-0.173-0.313-0.399-0.563-0.677-0.748c-0.277-0.186-0.613-0.276-1.005-0.276c-0.644,0-1.124,0.269-1.442,0.807
				c-0.317,0.538-0.479,1.229-0.479,2.071V47.39L25.363,47.39z"/>
			<path fill="#001DAA" d="M33.724,41.517h-1.348v-1.373h1.348V41.517z M33.724,50.808h-1.348V43.41h1.348V50.808z"/>
			<path fill="#001DAA" d="M40.093,48.838c0-0.296-0.111-0.54-0.338-0.731c-0.227-0.19-0.652-0.356-1.281-0.498
				c-0.896-0.195-1.574-0.461-2.025-0.795c-0.453-0.336-0.682-0.791-0.682-1.369c0-0.602,0.256-1.112,0.768-1.535
				c0.51-0.424,1.176-0.635,1.994-0.635c0.861,0,1.547,0.221,2.055,0.662c0.51,0.442,0.752,0.979,0.729,1.613l-0.014,0.041h-1.285
				c0-0.322-0.135-0.613-0.406-0.872c-0.271-0.257-0.631-0.386-1.076-0.386c-0.479,0-0.834,0.104-1.066,0.314
				c-0.232,0.209-0.35,0.463-0.35,0.759c0,0.292,0.104,0.521,0.309,0.69c0.205,0.168,0.621,0.318,1.25,0.45
				c0.936,0.2,1.631,0.474,2.086,0.817s0.684,0.805,0.684,1.384c0,0.655-0.266,1.188-0.797,1.593
				c-0.529,0.405-1.225,0.608-2.082,0.608c-0.941,0-1.686-0.239-2.229-0.718c-0.541-0.479-0.799-1.037-0.771-1.676l0.016-0.041
				h1.283c0.023,0.478,0.201,0.824,0.533,1.045c0.332,0.219,0.723,0.33,1.168,0.33c0.48,0,0.855-0.098,1.125-0.291
				C39.958,49.406,40.093,49.151,40.093,48.838z"/>
			<path fill="#001DAA" d="M44.892,41.626v1.784h1.402v0.998h-1.402v4.491c0,0.347,0.072,0.59,0.217,0.73s0.334,0.212,0.57,0.212
				c0.078,0,0.162-0.009,0.256-0.026c0.094-0.019,0.178-0.041,0.25-0.068l0.178,0.923c-0.1,0.082-0.246,0.149-0.439,0.201
				c-0.193,0.053-0.389,0.079-0.584,0.079c-0.547,0-0.982-0.165-1.307-0.495c-0.324-0.331-0.484-0.851-0.484-1.556v-4.491h-1.176
				V43.41h1.176v-1.784H44.892z"/>
			<path fill="#001DAA" d="M51.024,50.95c-1.029,0-1.85-0.344-2.459-1.028c-0.607-0.687-0.912-1.575-0.912-2.67v-0.301
				c0-1.054,0.314-1.929,0.939-2.629c0.627-0.699,1.369-1.05,2.227-1.05c0.998,0,1.752,0.302,2.262,0.902
				c0.512,0.602,0.766,1.403,0.766,2.406v0.841h-4.799l-0.02,0.034c0.014,0.709,0.193,1.292,0.539,1.748
				c0.348,0.457,0.832,0.686,1.457,0.686c0.455,0,0.855-0.063,1.199-0.195c0.344-0.129,0.643-0.309,0.893-0.535l0.525,0.876
				c-0.264,0.262-0.613,0.479-1.045,0.653C52.163,50.862,51.64,50.95,51.024,50.95z M50.819,44.333
				c-0.451,0-0.838,0.189-1.156,0.568c-0.318,0.38-0.516,0.854-0.588,1.428l0.014,0.033h3.412v-0.176
				c0-0.527-0.143-0.969-0.424-1.322C51.794,44.51,51.376,44.333,50.819,44.333z"/>
			<path fill="#001DAA" d="M58.858,44.601l-0.691-0.041c-0.355,0-0.654,0.084-0.898,0.252c-0.244,0.17-0.432,0.405-0.562,0.711
				v5.285h-1.348V43.41h1.203l0.129,1.08c0.211-0.384,0.471-0.683,0.777-0.896s0.662-0.321,1.062-0.321
				c0.1,0,0.195,0.009,0.287,0.023c0.092,0.018,0.166,0.033,0.225,0.053L58.858,44.601z"/>
		</g>
	</g>
</g>
</svg>
