<?xml version="1.0" encoding="utf-8"?>
<!-- Generator: Adobe Illustrator 16.0.0, SVG Export Plug-In . SVG Version: 6.00 Build 0)  -->
<!DOCTYPE svg PUBLIC "-//W3C//DTD SVG 1.1//EN" "http://www.w3.org/Graphics/SVG/1.1/DTD/svg11.dtd">
<svg version="1.1" id="Layer_1" xmlns="http://www.w3.org/2000/svg" xmlns:xlink="http://www.w3.org/1999/xlink" x="0px" y="0px"
	 width="66.75px" height="56.635px" viewBox="74 0 66.75 56.635" enable-background="new 74 0 66.75 56.635" xml:space="preserve">
<g id="Layer_1_2_">
	<g>
		<g>
			<path fill="#0AFD8D" d="M123.405,5.103H90.173c-1.526,0-2.771,1.237-2.771,2.769v7.073v4.615v13.166
				c0,1.53,1.238,2.768,2.77,2.768h33.234c1.527,0,2.77-1.233,2.77-2.768V19.56v-4.616V7.869
				C126.174,6.34,124.936,5.103,123.405,5.103z M123.402,12.699v20.025H90.17V19.56h0.002v-6.711h33.232v2.094L123.402,12.699z"/>
			<path fill="#0AFD8D" d="M93.004,27.941h17.146c0.367,0,0.666-0.299,0.666-0.668s-0.299-0.668-0.666-0.668H93.004
				c-0.371,0-0.668,0.299-0.668,0.668S92.633,27.941,93.004,27.941z"/>
			<path fill="#0AFD8D" d="M93.004,30.721h17.146c0.367,0,0.666-0.299,0.666-0.666c0-0.37-0.299-0.67-0.666-0.67H93.004
				c-0.371,0-0.668,0.3-0.668,0.67C92.336,30.424,92.633,30.721,93.004,30.721z"/>
			<rect x="92.336" y="15.242" fill="#0AFD8D" width="18.48" height="5.811"/>
			<path fill="#0AFD8D" d="M93.004,25.164h17.146c0.367,0,0.666-0.301,0.666-0.67c0-0.367-0.299-0.664-0.666-0.664H93.004
				c-0.371,0-0.668,0.297-0.668,0.664C92.336,24.863,92.633,25.164,93.004,25.164z"/>
			<path fill="#0AFD8D" d="M113.719,30.721h6.855c0.367,0,0.666-0.301,0.666-0.668c0-0.37-0.299-0.668-0.666-0.668h-6.855
				c-0.371,0-0.67,0.298-0.67,0.668C113.049,30.422,113.348,30.721,113.719,30.721z"/>
			<path fill="#0AFD8D" d="M113.719,27.941h6.855c0.367,0,0.666-0.299,0.666-0.668s-0.299-0.668-0.666-0.668h-6.855
				c-0.371,0-0.67,0.299-0.67,0.668S113.348,27.941,113.719,27.941z"/>
			<path fill="#0AFD8D" d="M113.719,25.066h6.855c0.367,0,0.666-0.299,0.666-0.668s-0.299-0.668-0.666-0.668h-6.855
				c-0.371,0-0.67,0.299-0.67,0.668S113.348,25.066,113.719,25.066z"/>
			<g>
				<path fill="#0AFD8D" d="M112.229,20.941l2.117-5.514h0.786l2.257,5.514h-0.832l-0.643-1.67h-2.305l-0.605,1.67H112.229z
					 M113.82,18.678h1.867l-0.573-1.524c-0.177-0.465-0.308-0.846-0.392-1.146c-0.07,0.354-0.17,0.705-0.298,1.054L113.82,18.678z"
					/>
				<path fill="#0AFD8D" d="M118.508,20.941h-0.627v-5.514h0.676v1.969c0.287-0.357,0.65-0.539,1.096-0.539
					c0.244,0,0.478,0.051,0.697,0.146c0.219,0.102,0.398,0.238,0.541,0.418c0.142,0.182,0.252,0.396,0.332,0.648
					c0.08,0.254,0.121,0.523,0.121,0.812c0,0.685-0.17,1.213-0.508,1.586c-0.339,0.375-0.744,0.562-1.219,0.562
					c-0.471,0-0.842-0.194-1.109-0.59V20.941z M118.5,18.916c0,0.479,0.066,0.824,0.195,1.037c0.214,0.35,0.502,0.521,0.865,0.521
					c0.297,0,0.551-0.127,0.768-0.387c0.216-0.256,0.322-0.64,0.322-1.146c0-0.521-0.104-0.905-0.31-1.153
					c-0.207-0.248-0.457-0.373-0.75-0.373c-0.297,0-0.553,0.129-0.768,0.387C118.609,18.058,118.5,18.428,118.5,18.916z"/>
			</g>
		</g>
		<text transform="matrix(1 0 0 1 80.6523 50.8066)" fill="#0AFD8D" font-family="'Roboto-Regular'" font-size="14">Register</text>
	</g>
</g>
</svg>
