<?xml version="1.0" encoding="utf-8"?>
<!-- Generator: Adobe Illustrator 16.0.0, SVG Export Plug-In . SVG Version: 6.00 Build 0)  -->
<!DOCTYPE svg PUBLIC "-//W3C//DTD SVG 1.1//EN" "http://www.w3.org/Graphics/SVG/1.1/DTD/svg11.dtd">
<svg version="1.1" xmlns="http://www.w3.org/2000/svg" xmlns:xlink="http://www.w3.org/1999/xlink" x="0px" y="0px" width="11.68px"
	 height="24.866px" viewBox="68.912 223.664 11.68 24.866" enable-background="new 68.912 223.664 11.68 24.866"
	 xml:space="preserve">
<g id="Layer_1">
	<path fill="#FFFFFF" d="M80.592,225.605v-0.879c0-0.586-0.475-1.062-1.062-1.062c-0.586,0-1.061,0.477-1.061,1.062v0.213h-7.434
		v-0.213c0-0.586-0.475-1.062-1.062-1.062c-0.586,0-1.061,0.477-1.061,1.062v0.879c0,1.492,0.621,2.908,1.801,4.095
		c0.422,0.425,0.915,0.797,1.44,1.129c-0.471,0.357-1.205,0.937-1.44,1.173c-1.18,1.186-1.801,2.603-1.801,4.096
		s0.621,2.909,1.801,4.096c0.473,0.476,0.843,0.749,1.443,1.105c-0.405,0.271-1.167,0.917-1.443,1.196
		c-1.18,1.187-1.801,2.603-1.801,4.095v0.879c0,0.586,0.475,1.062,1.061,1.062s1.062-0.476,1.062-1.062v-0.213h7.434v0.213
		c0,0.586,0.475,1.062,1.062,1.062c0.586,0,1.061-0.476,1.061-1.062v-0.879c0-1.492-0.623-2.908-1.801-4.096
		c-0.421-0.424-0.913-0.795-1.438-1.127c0.472-0.359,1.203-0.939,1.437-1.174c1.18-1.187,1.803-2.604,1.803-4.096
		c0-1.493-0.623-2.91-1.803-4.096c-0.599-0.604-0.809-0.797-1.602-1.203c0.885-0.282,1.423-0.918,1.602-1.099
		C79.969,228.514,80.592,227.098,80.592,225.605z"/>
	<path fill="#231F20" d="M77.82,230.528c0.348-0.253,0.674-0.53,0.969-0.828c1.18-1.187,1.803-2.603,1.803-4.095v-0.879
		c0-0.586-0.475-1.062-1.062-1.062c-0.586,0-1.061,0.477-1.061,1.062v0.213h-7.434v-0.213c0-0.586-0.475-1.062-1.062-1.062
		c-0.586,0-1.061,0.477-1.061,1.062v0.879c0,1.492,0.621,2.908,1.801,4.095c0.992,0.999,2.324,1.771,3.75,2.173
		c1.064,0.301,2.092,0.893,2.82,1.626c0.434,0.436,0.934,1.096,1.115,1.939h-7.293c0.09-0.413,0.254-0.782,0.449-1.103h5.752
		c-0.131-0.176-0.27-0.331-0.4-0.463c-0.32-0.322-0.705-0.615-1.127-0.863h-3.002c0.361-0.279,0.766-0.527,1.193-0.731
		c-0.811-0.265-1.588-0.64-2.287-1.104c-0.35,0.254-0.674,0.53-0.971,0.828c-1.18,1.186-1.801,2.603-1.801,4.096
		s0.621,2.909,1.801,4.096c0.992,0.999,2.324,1.771,3.75,2.173c1.064,0.3,2.092,0.893,2.82,1.626
		c0.434,0.436,0.932,1.094,1.113,1.937h-7.291c0.09-0.413,0.254-0.782,0.451-1.102h5.748c-0.129-0.176-0.268-0.33-0.398-0.462
		c-0.32-0.323-0.707-0.617-1.131-0.865h-2.996c0.361-0.278,0.766-0.525,1.191-0.729c-0.811-0.265-1.588-0.641-2.287-1.104
		c-0.35,0.253-0.676,0.53-0.971,0.828c-1.18,1.187-1.801,2.603-1.801,4.095v0.879c0,0.586,0.475,1.062,1.061,1.062
		s1.062-0.476,1.062-1.062v-0.213h7.434v0.213c0,0.586,0.475,1.062,1.062,1.062c0.586,0,1.061-0.476,1.061-1.062v-0.879
		c0-1.492-0.623-2.908-1.801-4.096c-0.992-0.998-2.324-1.77-3.75-2.172c-1.064-0.301-2.092-0.893-2.82-1.626
		c-0.434-0.436-0.934-1.096-1.115-1.939h7.293c-0.09,0.413-0.254,0.782-0.451,1.102h-5.75c0.131,0.177,0.268,0.332,0.398,0.464
		c0.32,0.322,0.707,0.615,1.129,0.863h3c-0.361,0.279-0.766,0.527-1.193,0.731c0.812,0.264,1.588,0.64,2.287,1.104
		c0.35-0.254,0.676-0.531,0.971-0.828c1.18-1.187,1.803-2.604,1.803-4.096c0-1.493-0.623-2.91-1.803-4.096
		c-0.992-0.999-2.324-1.771-3.75-2.174c-1.064-0.299-2.092-0.893-2.82-1.625c-0.432-0.436-0.932-1.095-1.113-1.938h7.291
		c-0.09,0.413-0.254,0.782-0.451,1.102h-5.748c0.131,0.176,0.268,0.33,0.398,0.462c0.322,0.323,0.707,0.617,1.131,0.866h2.996
		c-0.361,0.277-0.766,0.524-1.191,0.729C76.344,229.688,77.119,230.063,77.82,230.528z"/>
</g>
<g id="nyt_x5F_exporter_x5F_info" display="none">
</g>
</svg>
