<?xml version="1.0" encoding="iso-8859-1"?>
<!-- Generator: Adobe Illustrator 16.0.0, SVG Export Plug-In . SVG Version: 6.00 Build 0)  -->
<!DOCTYPE svg PUBLIC "-//W3C//DTD SVG 1.1//EN" "http://www.w3.org/Graphics/SVG/1.1/DTD/svg11.dtd">
<svg version="1.1" xmlns="http://www.w3.org/2000/svg" xmlns:xlink="http://www.w3.org/1999/xlink" x="0px" y="0px"
	 width="33.475px" height="47.259px" viewBox="0 0 33.475 47.259" style="enable-background:new 0 0 33.475 47.259;"
	 xml:space="preserve">
<g id="Layer_1">
	<g>
		<g>
			<path style="fill:#1D4381;" d="M16.737,0C7.507,0-0.001,7.508-0.001,16.737c0,16.183,15.436,29.714,16.094,30.281
				c0.186,0.159,0.414,0.24,0.645,0.24s0.459-0.081,0.643-0.24c0.656-0.569,16.094-14.101,16.094-30.281
				C33.474,7.508,25.966,0,16.737,0z"/>
		</g>
		<path style="fill:#FFFFFF;" d="M19.854,13.996c0.348-0.253,0.674-0.53,0.969-0.828c1.18-1.186,1.803-2.602,1.803-4.096V8.195
			c0-0.588-0.475-1.062-1.062-1.062c-0.586,0-1.062,0.475-1.062,1.062v0.212h-7.432V8.195c0-0.588-0.477-1.062-1.062-1.062
			s-1.062,0.475-1.062,1.062v0.877c0,1.494,0.623,2.91,1.803,4.096c0.992,1,2.324,1.771,3.75,2.174
			c1.064,0.3,2.092,0.893,2.82,1.625c0.434,0.436,0.934,1.096,1.113,1.939H13.14c0.088-0.412,0.254-0.781,0.449-1.102h5.752
			c-0.131-0.176-0.27-0.332-0.4-0.464c-0.32-0.322-0.705-0.615-1.127-0.864h-3.002c0.361-0.279,0.766-0.525,1.193-0.73
			c-0.811-0.264-1.588-0.64-2.287-1.104c-0.35,0.253-0.676,0.529-0.971,0.827c-1.18,1.187-1.803,2.603-1.803,4.096
			s0.623,2.909,1.803,4.097c0.992,0.998,2.324,1.77,3.75,2.172c1.064,0.3,2.092,0.893,2.82,1.625
			c0.434,0.437,0.932,1.096,1.113,1.938H13.14c0.09-0.412,0.254-0.781,0.451-1.102h5.748c-0.129-0.176-0.268-0.33-0.398-0.461
			c-0.32-0.324-0.707-0.617-1.131-0.866h-2.996c0.361-0.278,0.766-0.524,1.191-0.729c-0.811-0.265-1.588-0.64-2.287-1.104
			c-0.35,0.254-0.676,0.531-0.971,0.828c-1.18,1.187-1.803,2.603-1.803,4.096v0.878c0,0.587,0.477,1.062,1.062,1.062
			s1.062-0.475,1.062-1.062v-0.212h7.434v0.212c0,0.587,0.475,1.062,1.061,1.062c0.588,0,1.062-0.475,1.062-1.062v-0.878
			c0-1.493-0.623-2.909-1.801-4.096c-0.992-0.999-2.324-1.771-3.75-2.173c-1.064-0.3-2.094-0.893-2.82-1.626
			c-0.434-0.436-0.934-1.096-1.115-1.939h7.293c-0.09,0.413-0.254,0.782-0.451,1.102h-5.752c0.131,0.177,0.27,0.332,0.4,0.464
			c0.32,0.323,0.707,0.616,1.129,0.864h3c-0.361,0.279-0.766,0.526-1.193,0.73c0.812,0.264,1.588,0.64,2.287,1.104
			c0.35-0.253,0.676-0.529,0.971-0.827c1.178-1.187,1.803-2.603,1.803-4.096s-0.625-2.909-1.803-4.097
			c-0.992-0.998-2.324-1.77-3.75-2.172c-1.064-0.301-2.092-0.893-2.82-1.625c-0.434-0.436-0.932-1.096-1.113-1.938h7.291
			c-0.09,0.412-0.254,0.781-0.451,1.102h-5.748c0.129,0.176,0.268,0.33,0.398,0.461c0.32,0.324,0.707,0.617,1.131,0.866h2.996
			c-0.361,0.278-0.766,0.524-1.191,0.729C18.378,13.156,19.153,13.531,19.854,13.996z"/>
	</g>
</g>
<g id="nyt_x5F_exporter_x5F_info" style="display:none;">
</g>
</svg>
