<?xml version="1.0" encoding="utf-8"?>
<!-- Generator: Adobe Illustrator 16.0.0, SVG Export Plug-In . SVG Version: 6.00 Build 0)  -->
<!DOCTYPE svg PUBLIC "-//W3C//DTD SVG 1.1//EN" "http://www.w3.org/Graphics/SVG/1.1/DTD/svg11.dtd">
<svg version="1.1" xmlns="http://www.w3.org/2000/svg" xmlns:xlink="http://www.w3.org/1999/xlink" x="0px" y="0px"
	 width="19.833px" height="22.667px" viewBox="-6.458 217.602 19.833 22.667" enable-background="new -6.458 217.602 19.833 22.667"
	 xml:space="preserve">
<g id="Layer_1">
	<g>
		<path d="M3.727,226.913c-0.24,0.371-0.471,0.746-0.723,1.108c-0.105,0.15-0.236,0.296-0.384,0.402
			c-0.8,0.578-1.609,1.142-2.416,1.71c-0.26,0.183-0.534,0.202-0.805,0.038c-0.263-0.158-0.375-0.405-0.339-0.71
			c0.028-0.242,0.174-0.406,0.368-0.542c0.734-0.514,1.467-1.028,2.196-1.55c0.106-0.077,0.205-0.179,0.276-0.289
			c0.667-1.021,1.333-2.042,1.982-3.074c0.24-0.381,0.539-0.519,0.986-0.444c1.143,0.188,2.291,0.355,3.438,0.518
			c0.316,0.045,0.56,0.169,0.764,0.42c0.528,0.647,1.079,1.277,1.615,1.919c0.222,0.266,0.247,0.591,0.083,0.859
			c-0.158,0.261-0.455,0.41-0.754,0.32c-0.169-0.051-0.341-0.167-0.458-0.3c-0.479-0.541-0.934-1.104-1.409-1.648
			c-0.075-0.086-0.202-0.154-0.315-0.175c-0.428-0.08-0.861-0.138-1.273-0.2c0,1.262-0.027,2.516,0.007,3.769
			c0.033,1.258-0.268,2.479-0.36,3.74c0.562,0.051,1.115,0.102,1.668,0.151c0.697,0.062,1.395,0.121,2.092,0.187
			c0.467,0.044,0.791,0.43,0.749,0.88c-0.04,0.445-0.435,0.773-0.896,0.732c-1.515-0.132-3.03-0.267-4.545-0.403
			c-0.539-0.049-0.849-0.412-0.79-0.949c0.073-0.656,0.167-1.311,0.259-2.021c-0.082,0.098-0.13,0.151-0.174,0.209
			c-0.607,0.786-1.217,1.571-1.821,2.361c-0.07,0.093-0.129,0.203-0.164,0.315c-0.398,1.263-0.789,2.527-1.185,3.79
			c-0.152,0.487-0.562,0.737-0.999,0.62c-0.475-0.127-0.708-0.58-0.551-1.086c0.358-1.158,0.734-2.309,1.073-3.472
			c0.157-0.539,0.402-1.007,0.754-1.443c0.676-0.839,1.322-1.7,1.978-2.554c0.053-0.069,0.116-0.155,0.116-0.234
			c0.009-0.978,0.006-1.957,0.006-2.936C3.76,226.927,3.743,226.92,3.727,226.913z"/>
		<path d="M1.792,221.861c-0.003-0.98,0.778-1.77,1.754-1.771c0.973-0.001,1.768,0.794,1.766,1.765
			c-0.002,0.965-0.785,1.752-1.749,1.758C2.583,223.619,1.794,222.839,1.792,221.861z"/>
		<path d="M-1.287,235.092c-0.005,0.972-0.785,1.749-1.756,1.75c-0.979,0-1.77-0.793-1.764-1.769
			c0.006-0.969,0.791-1.749,1.759-1.751C-2.069,233.321-1.282,234.111-1.287,235.092z"/>
	</g>
</g>
<g id="nyt_x5F_exporter_x5F_info" display="none">
</g>
</svg>
